<?xml version="1.0" encoding="utf-8"?>
<!-- Generator: Adobe Illustrator 23.0.0, SVG Export Plug-In . SVG Version: 6.00 Build 0)  -->
<svg version="1.1" id="Layer_1" xmlns="http://www.w3.org/2000/svg" xmlns:xlink="http://www.w3.org/1999/xlink" x="0px" y="0px"
	 width="270px" height="160px" viewBox="0 0 270 160" style="enable-background:new 0 0 270 160;" xml:space="preserve">
<style type="text/css">
	.st0{fill:#58595B;}
	.st1{fill:#808184;}
</style>
<g id="XMLID_33_">
	<g id="XMLID_12_">
		<polygon id="XMLID_14_" class="st0" points="78,100.9 94.3,108.9 94.3,73.2 78,65.3 		"/>
		<polygon id="XMLID_18_" class="st1" points="38.5,51.1 38.5,100.9 54.5,100.9 54.5,65.3 78,65.3 78,51.1 		"/>
	</g>
	<g>
		<path class="st0" d="M119.9,57.5c1.4-0.2,3.2-0.4,5-0.4c3.3,0,5.7,0.8,7.4,2.3c1.6,1.4,2.6,3.5,2.6,6.5c0,3-1,5.4-2.6,7.1
			c-1.7,1.7-4.5,2.6-8,2.6c-1.6,0-3.1-0.1-4.2-0.2L119.9,57.5L119.9,57.5z M122.2,73.6c0.6,0.1,1.4,0.1,2.4,0.1c5,0,7.7-2.8,7.7-7.7
			c0-4.3-2.4-7-7.4-7c-1.2,0-2.1,0.1-2.8,0.3V73.6z"/>
		<path class="st0" d="M139.2,69.4c0.1,3.3,2.1,4.5,4.5,4.5c1.7,0,2.7-0.3,3.6-0.7l0.4,1.7c-0.9,0.4-2.3,0.8-4.3,0.8
			c-4,0-6.4-2.7-6.4-6.6s2.3-7,6.1-7c4.2,0,5.4,3.7,5.4,6.1c0,0.5-0.1,0.9-0.1,1.1H139.2z M146.1,67.7c0-1.5-0.6-3.8-3.3-3.8
			c-2.4,0-3.4,2.2-3.6,3.8H146.1z"/>
		<path class="st0" d="M151.3,65.9c0-1.3,0-2.5-0.1-3.5h2.1l0.1,2.2h0.1c0.7-1.2,2.2-2.5,4.3-2.5c1.8,0,4.6,1.1,4.6,5.5v7.7H160
			v-7.6c0-2.1-0.8-3.8-3.1-3.8c-1.5,0-2.8,1.1-3.2,2.4c-0.1,0.3-0.2,0.7-0.2,1.1v7.8h-2.4L151.3,65.9L151.3,65.9z"/>
		<path class="st0" d="M166.8,62.4l2.6,7.4c0.4,1.1,0.8,2.3,1.1,3.3h0.1c0.3-1.1,0.7-2.2,1.1-3.3l2.5-7.4h2.5l-5.2,13h-2.3l-5-13
			H166.8z"/>
		<path class="st0" d="M179.9,69.4c0.1,3.3,2.1,4.5,4.5,4.5c1.7,0,2.7-0.3,3.6-0.7l0.4,1.7c-0.9,0.4-2.3,0.8-4.3,0.8
			c-4,0-6.4-2.7-6.4-6.6s2.3-7,6.1-7c4.2,0,5.4,3.7,5.4,6.1c0,0.5-0.1,0.9-0.1,1.1H179.9z M186.9,67.7c0-1.5-0.6-3.8-3.3-3.8
			c-2.4,0-3.4,2.2-3.6,3.8H186.9z"/>
		<path class="st0" d="M192.1,66.5c0-1.5,0-2.9-0.1-4.1h2.1l0.1,2.6h0.1c0.6-1.7,2-2.9,3.6-2.9c0.3,0,0.5,0,0.7,0.1v2.2
			c-0.3-0.1-0.5-0.1-0.8-0.1c-1.6,0-2.9,1.2-3.2,3.1c-0.1,0.3-0.1,0.7-0.1,1.1v7h-2.3v-9H192.1z"/>
		<path class="st0" d="M200.6,73c0.7,0.5,1.9,1,3.2,1c1.7,0,2.5-0.9,2.5-1.9c0-1.1-0.7-1.7-2.4-2.4c-2.3-0.9-3.4-2.1-3.4-3.7
			c0-2.1,1.7-3.8,4.5-3.8c1.3,0,2.5,0.4,3.3,0.8l-0.6,1.7c-0.5-0.3-1.4-0.8-2.7-0.8c-1.4,0-2.2,0.8-2.2,1.8c0,1.1,0.8,1.5,2.5,2.2
			c2.3,0.9,3.4,2,3.4,3.9c0,2.3-1.8,3.9-4.9,3.9c-1.4,0-2.8-0.4-3.6-0.9L200.6,73z"/>
		<path class="st0" d="M119.9,82.4c1.1-0.2,2.6-0.4,4.5-0.4c2.3,0,4,0.6,5.1,1.5c1,0.9,1.6,2.2,1.6,3.8c0,1.6-0.5,3-1.4,3.9
			c-1.2,1.3-3.3,2-5.5,2c-0.7,0-1.3,0-1.9-0.2v7.3h-2.3C119.9,100.4,119.9,82.4,119.9,82.4z M122.2,91.1c0.5,0.1,1.1,0.2,1.9,0.2
			c2.9,0,4.6-1.3,4.6-3.9c0-2.4-1.7-3.5-4.3-3.5c-1.1,0-1.8,0.1-2.2,0.2C122.2,84,122.2,91.1,122.2,91.1z"/>
		<path class="st0" d="M133.7,91.4c0-1.5,0-2.9-0.1-4h2.1l0.1,2.6h0.1c0.6-1.7,2-2.9,3.6-2.9c0.3,0,0.5,0,0.7,0.1v2.2
			c-0.3-0.1-0.5-0.1-0.8-0.1c-1.6,0-2.9,1.2-3.2,3.1c-0.1,0.3-0.1,0.7-0.1,1.1v7h-2.3v-9.1H133.7z"/>
		<path class="st0" d="M154,93.7c0,4.8-3.3,6.9-6.5,6.9c-3.5,0-6.2-2.6-6.2-6.7c0-4.4,2.9-6.9,6.5-6.9C151.5,87,154,89.7,154,93.7z
			 M143.7,93.9c0,2.9,1.6,5,3.9,5s3.9-2.1,3.9-5.1c0-2.2-1.1-5-3.9-5C144.9,88.8,143.7,91.4,143.7,93.9z"/>
		<path class="st0" d="M157,91.6c0-1.6-0.1-3.1-0.1-4.2h2.1l0.1,2.2h0.1c1-1.6,2.5-2.5,4.6-2.5c3.2,0,5.5,2.7,5.5,6.6
			c0,4.7-2.9,7-5.9,7c-1.7,0-3.3-0.8-4-2h-0.1v7.1H157V91.6z M159.4,95c0,0.4,0.1,0.7,0.1,1c0.4,1.6,1.8,2.8,3.5,2.8
			c2.5,0,3.9-2,3.9-5.1c0-2.6-1.3-4.9-3.9-4.9c-1.6,0-3.2,1.1-3.5,3c-0.1,0.3-0.2,0.7-0.2,1L159.4,95L159.4,95z"/>
		<path class="st0" d="M173.6,94.2c0.1,3.3,2.1,4.5,4.5,4.5c1.7,0,2.7-0.3,3.6-0.7l0.4,1.7c-0.9,0.4-2.3,0.8-4.3,0.8
			c-4,0-6.4-2.7-6.4-6.6c0-3.9,2.3-7,6.1-7c4.2,0,5.4,3.7,5.4,6.1c0,0.5-0.1,0.9-0.1,1.1H173.6z M180.6,92.5c0-1.5-0.6-3.8-3.3-3.8
			c-2.4,0-3.4,2.2-3.6,3.8H180.6z"/>
		<path class="st0" d="M185.9,91.4c0-1.5,0-2.9-0.1-4h2.1l0.1,2.6h0.1c0.6-1.7,2-2.9,3.6-2.9c0.3,0,0.5,0,0.7,0.1v2.2
			c-0.3-0.1-0.5-0.1-0.8-0.1c-1.6,0-2.9,1.2-3.2,3.1c-0.1,0.3-0.1,0.7-0.1,1.1v7h-2.3v-9.1H185.9z"/>
		<path class="st0" d="M198.1,83.5v3.7h3.3v1.8h-3.3v7c0,1.6,0.5,2.5,1.8,2.5c0.6,0,1.1-0.1,1.3-0.2l0.1,1.8
			c-0.5,0.2-1.1,0.3-2.1,0.3c-1.1,0-2-0.4-2.6-1c-0.7-0.7-1-1.8-1-3.3v-7.1h-2v-1.8h2v-3.2L198.1,83.5z"/>
		<path class="st0" d="M206.8,83.6c0,0.8-0.6,1.4-1.5,1.4c-0.9,0-1.4-0.7-1.4-1.4c0-0.9,0.6-1.4,1.4-1.4
			C206.2,82.1,206.8,82.8,206.8,83.6z M204.2,100.3v-13h2.4v13H204.2z"/>
		<path class="st0" d="M211.8,94.2c0.1,3.3,2.1,4.5,4.5,4.5c1.7,0,2.7-0.3,3.6-0.7l0.4,1.7c-0.9,0.4-2.3,0.8-4.3,0.8
			c-4,0-6.4-2.7-6.4-6.6c0-3.9,2.3-7,6.1-7c4.2,0,5.4,3.7,5.4,6.1c0,0.5-0.1,0.9-0.1,1.1H211.8z M218.7,92.5c0-1.5-0.6-3.8-3.3-3.8
			c-2.4,0-3.4,2.2-3.6,3.8H218.7z"/>
		<path class="st0" d="M223.6,97.9c0.7,0.5,1.9,1,3.2,1c1.7,0,2.5-0.9,2.5-1.9c0-1.1-0.7-1.7-2.4-2.4c-2.3-0.9-3.4-2.1-3.4-3.7
			c0-2.1,1.7-3.8,4.5-3.8c1.3,0,2.5,0.4,3.3,0.8l-0.6,1.7c-0.5-0.3-1.4-0.8-2.7-0.8c-1.4,0-2.2,0.8-2.2,1.8s0.8,1.5,2.5,2.2
			c2.3,0.9,3.4,2,3.4,3.9c0,2.3-1.8,3.9-4.9,3.9c-1.4,0-2.8-0.4-3.6-0.9L223.6,97.9z"/>
	</g>
</g>
</svg>
