<?xml version="1.0" encoding="utf-8"?>
<!-- Generator: Adobe Illustrator 23.0.0, SVG Export Plug-In . SVG Version: 6.00 Build 0)  -->
<svg version="1.1" id="Layer_1" xmlns="http://www.w3.org/2000/svg" xmlns:xlink="http://www.w3.org/1999/xlink" x="0px" y="0px"
	 width="270px" height="160px" viewBox="0 0 270 160" style="enable-background:new 0 0 270 160;" xml:space="preserve">
<style type="text/css">
	.st0{fill:#3A3A3A;}
	.st1{fill:#70706F;}
</style>
<g>
	<path class="st0" d="M142.53,28.72l59.11,26.55c1.93,0.87,3.49,2.22,4.56,3.88s1.67,3.64,1.67,5.75v30.2
		c0,2.11-0.59,4.08-1.67,5.75c-1.08,1.66-2.63,3.01-4.56,3.88l-59.11,26.55c-2.47,1.11-5,1.66-7.53,1.66
		c-2.52,0-5.05-0.55-7.53-1.66l-59.1-26.55c-1.93-0.87-3.49-2.22-4.56-3.88c-1.08-1.66-1.68-3.64-1.68-5.75V64.9
		c0-2.11,0.6-4.09,1.68-5.75c1.08-1.66,2.64-3.01,4.56-3.88l59.11-26.55c2.47-1.11,5-1.66,7.52-1.66
		C137.53,27.05,140.06,27.61,142.53,28.72L142.53,28.72z M201.26,56.1l-59.1-26.55c-2.35-1.05-4.76-1.58-7.16-1.58
		c-2.4,0-4.8,0.53-7.15,1.58L68.74,56.1c-1.76,0.8-3.19,2.02-4.17,3.54c-0.98,1.52-1.52,3.32-1.52,5.25v30.2
		c0,1.93,0.54,3.74,1.52,5.25c0.98,1.52,2.41,2.75,4.17,3.54l59.11,26.55c2.35,1.05,4.75,1.58,7.15,1.58c2.4,0,4.81-0.53,7.16-1.58
		l59.1-26.55c1.77-0.8,3.19-2.02,4.17-3.54c0.99-1.52,1.53-3.33,1.53-5.25V64.9c0-1.94-0.54-3.74-1.53-5.25
		C204.45,58.13,203.03,56.9,201.26,56.1z"/>
	<path class="st1" d="M141.59,30.81l59.11,26.55c1.52,0.67,2.74,1.74,3.57,3.03c0.84,1.3,1.3,2.85,1.3,4.51V80v15.1
		c0,1.66-0.46,3.21-1.3,4.51c-0.84,1.29-2.06,2.35-3.57,3.03l-59.11,26.55c-2.17,0.97-4.38,1.46-6.59,1.46
		c-2.2,0-4.41-0.49-6.58-1.46l-59.11-26.55c-1.52-0.68-2.74-1.74-3.57-3.03c-0.84-1.3-1.31-2.85-1.31-4.51V80V64.9
		c0-1.66,0.47-3.21,1.31-4.51c0.84-1.29,2.06-2.35,3.57-3.03l59.11-26.55c2.17-0.97,4.38-1.46,6.58-1.46
		C137.21,29.35,139.42,29.84,141.59,30.81L141.59,30.81z M200.32,58.2l-59.1-26.55c-2.05-0.92-4.14-1.38-6.22-1.38
		c-2.08,0-4.16,0.46-6.21,1.38L69.68,58.2c-1.35,0.6-2.43,1.54-3.18,2.69c-0.74,1.16-1.15,2.53-1.15,4.01V80v15.1
		c0,1.48,0.41,2.85,1.15,4c0.75,1.16,1.83,2.1,3.18,2.7l59.11,26.55c2.05,0.92,4.13,1.38,6.21,1.38c2.08,0,4.17-0.47,6.22-1.38
		l59.1-26.55c1.35-0.6,2.44-1.54,3.18-2.7c0.75-1.15,1.16-2.52,1.16-4V80V64.9c0-1.48-0.41-2.85-1.16-4.01
		C202.76,59.74,201.67,58.8,200.32,58.2z"/>
	<path class="st1" d="M85.04,58.98h99.92v0.92H85.04V58.98L85.04,58.98z M85.04,100.1h99.92v0.92H85.04V100.1z"/>
	<path class="st0" d="M130.94,108.94c-0.15-0.15-0.41-0.15-0.56,0c-0.15,0.16-0.15,0.41,0,0.56l4.23,4.23l-4.23,4.23
		c-0.15,0.15-0.15,0.4,0,0.56c0.15,0.15,0.41,0.15,0.56,0l4.23-4.23l4.23,4.23c0.15,0.15,0.4,0.15,0.56,0
		c0.15-0.16,0.15-0.41,0-0.56l-4.23-4.23l4.23-4.23c0.15-0.15,0.15-0.4,0-0.56c-0.16-0.15-0.41-0.15-0.56,0l-4.23,4.23
		L130.94,108.94z"/>
	<path class="st1" d="M147.82,112.6c0.14-0.14,0.14-0.38,0-0.52c-0.14-0.14-0.38-0.14-0.52,0l-1.13,1.12l-1.12-1.12
		c-0.14-0.14-0.38-0.14-0.52,0c-0.14,0.14-0.14,0.38,0,0.52l1.12,1.12l-1.12,1.12c-0.14,0.14-0.14,0.38,0,0.52
		c0.14,0.14,0.38,0.14,0.52,0l1.12-1.12l1.13,1.12c0.14,0.14,0.38,0.14,0.52,0c0.14-0.14,0.14-0.38,0-0.52l-1.12-1.12L147.82,112.6
		L147.82,112.6z M125.8,112.6c0.14-0.14,0.14-0.38,0-0.52c-0.14-0.14-0.38-0.14-0.52,0l-1.13,1.12l-1.12-1.12
		c-0.14-0.14-0.38-0.14-0.52,0c-0.14,0.14-0.14,0.38,0,0.52l1.12,1.12l-1.12,1.12c-0.14,0.14-0.14,0.38,0,0.52
		c0.14,0.14,0.38,0.14,0.52,0l1.12-1.12l1.13,1.12c0.14,0.14,0.38,0.14,0.52,0c0.14-0.14,0.14-0.38,0-0.52l-1.12-1.12L125.8,112.6z"
		/>
	<g>
		<path class="st0" d="M90.95,69.92h4.74v21.24h-4.74V82.8h-8.45v8.35h-4.74V69.92h4.74v8.87h8.45V69.92z"/>
		<path class="st0" d="M120.29,88.23c-2.14,2.1-4.79,3.14-7.93,3.14c-3.14,0-5.78-1.04-7.93-3.14c-2.14-2.1-3.22-4.71-3.22-7.82
			c0-3.12,1.08-5.73,3.22-7.82c2.14-2.1,4.79-3.15,7.93-3.15c3.14,0,5.78,1.05,7.93,3.15c2.14,2.1,3.22,4.71,3.22,7.82
			C123.51,83.52,122.44,86.13,120.29,88.23z M118.68,80.42c0-1.9-0.61-3.51-1.82-4.84c-1.22-1.34-2.71-2.01-4.48-2.01
			c-1.78,0-3.27,0.67-4.48,2.01c-1.21,1.33-1.82,2.95-1.82,4.84c0,1.9,0.61,3.5,1.82,4.83c1.21,1.33,2.71,1.99,4.48,1.99
			c1.78,0,3.26-0.67,4.48-1.99C118.07,83.92,118.68,82.31,118.68,80.42z"/>
		<path class="st0" d="M137.46,74.02v17.13h-4.74V74.02h-6.02v-4.1h16.77v4.1H137.46z"/>
		<path class="st0" d="M165.74,88.23c-2.14,2.1-4.79,3.14-7.93,3.14c-3.14,0-5.78-1.04-7.93-3.14c-2.14-2.1-3.22-4.71-3.22-7.82
			c0-3.12,1.08-5.73,3.22-7.82c2.14-2.1,4.79-3.15,7.93-3.15c3.14,0,5.78,1.05,7.93,3.15c2.15,2.1,3.22,4.71,3.22,7.82
			C168.96,83.52,167.9,86.13,165.74,88.23z M164.14,80.42c0-1.9-0.61-3.51-1.82-4.84c-1.21-1.34-2.71-2.01-4.48-2.01
			c-1.78,0-3.27,0.67-4.48,2.01c-1.21,1.33-1.82,2.95-1.82,4.84c0,1.9,0.61,3.5,1.82,4.83c1.21,1.33,2.71,1.99,4.48,1.99
			c1.78,0,3.27-0.67,4.48-1.99C163.53,83.92,164.14,82.31,164.14,80.42z"/>
		<path class="st0" d="M187.68,69.92h4.74v21.24h-4.74V82.8h-8.44v8.35h-4.74V69.92h4.74v8.87h8.44V69.92z"/>
	</g>
	<g>
		<path class="st0" d="M119.7,52.27c-0.64,0-1.36-0.31-1.15-1.34l0.39-1.82h-1.26c-1,2.31-1.89,3.16-2.85,3.16
			c-0.56,0-0.96-0.54-0.96-1.54c0-0.65,0.45-0.84,0.96-0.84c0.2,0,0.4,0.07,0.56,0.19c-0.19,0.44-0.24,0.9-0.24,1.16v0.1
			c0.89-0.34,2.02-1.72,3.66-7.21h-0.22c-1.02,0-1.39,0.58-1.39,1.1c0,0.25,0.09,0.5,0.22,0.65c-0.17,0.08-0.33,0.11-0.48,0.11
			c-0.58,0-0.92-0.51-0.92-1.06c0-0.72,0.54-1.52,1.86-1.52c1.48,0,2.86,0.51,3.72,0.22c0.11,0.06,0.16,0.18,0.16,0.29
			c0,0.22-0.14,0.44-0.39,0.44h-0.05l-1.28,5.99c-0.14,0.66,0.06,0.84,0.37,0.84c0.36,0,0.89-0.34,1.15-0.56
			c0.12,0.06,0.18,0.16,0.18,0.27c0,0.07-0.03,0.17-0.1,0.24C121.02,51.8,120.28,52.27,119.7,52.27z M119.36,44.16
			c-0.51,1.77-0.97,3.17-1.41,4.3h1.12l0.9-4.23C119.77,44.21,119.57,44.19,119.36,44.16z"/>
		<path class="st0" d="M122.05,47.81c0.05-0.18-0.01-0.28-0.11-0.28c-0.06,0-0.12,0.04-0.22,0.13c-0.14-0.09-0.22-0.43,0-0.62
			c0.39-0.3,0.79-0.54,1.26-0.54c0.4,0,0.64,0.19,0.54,0.62l-0.68,3.19c-0.1,0.47,0.04,0.67,0.38,0.67c0.39,0,0.73-0.22,1.04-0.59
			l0.67-3.18c0.11-0.51,0.54-0.71,0.94-0.71c0.2,0,0.39,0.06,0.53,0.15l-0.79,3.71c-0.14,0.63,0.05,0.84,0.34,0.84
			c0.42,0,0.9-0.28,1.18-0.56c0.12,0.06,0.19,0.16,0.19,0.27c0,0.07-0.04,0.17-0.1,0.24c-0.53,0.59-1.33,1.12-1.94,1.12
			c-0.55,0-1.1-0.28-1.04-1.27c-0.45,0.73-1,1.27-1.64,1.27c-1.24,0-1.24-1.32-1.06-2.16L122.05,47.81z"/>
		<path class="st0" d="M129.09,47.21l-0.67,3.16c-0.14,0.63,0.05,0.84,0.34,0.84c0.42,0,0.9-0.28,1.18-0.56
			c0.12,0.06,0.19,0.16,0.19,0.27c0,0.07-0.04,0.17-0.1,0.24c-0.53,0.59-1.38,1.12-2.14,1.12c-0.68,0-1.13-0.43-0.88-1.66l0.72-3.4
			h-0.56c-0.06-0.35,0.12-0.65,0.47-0.65h0.22l0.2-0.92c0.11-0.52,0.54-0.71,0.94-0.71c0.2,0,0.39,0.06,0.53,0.14l-0.31,1.48h0.82
			c0.06,0.36-0.13,0.65-0.47,0.65H129.09z"/>
		<path class="st0" d="M132.46,50.67l0.47-2.23c0.08-0.36,0.1-0.67-0.27-0.67c-0.41,0-0.75,0.24-1.04,0.59l-0.71,3.2
			c-0.11,0.51-0.54,0.71-0.94,0.71c-0.2,0-0.34-0.02-0.47-0.11l1.43-6.7c0.06-0.3-0.14-0.37-0.33-0.15
			c-0.15-0.14-0.17-0.26-0.17-0.35c0-0.26,0.81-0.8,1.42-0.8c0.4,0,0.63,0.19,0.54,0.62l-0.59,2.76c0.43-0.61,0.92-1.03,1.49-1.03
			c0.56,0,1.33,0.33,1.05,1.66l-0.55,2.59c-0.07,0.32,0.08,0.46,0.31,0.46c0.41,0,0.9-0.28,1.17-0.56c0.13,0.06,0.19,0.16,0.19,0.27
			c0,0.07-0.03,0.17-0.1,0.24c-0.53,0.59-1.29,1.12-2.03,1.12C132.78,52.27,132.18,51.99,132.46,50.67z"/>
		<path class="st0" d="M136.59,50.46c0.11,0.6,0.52,0.83,1.04,0.83c0.8,0,1.84-0.57,2.32-1.21c0.3-0.06,0.41,0.18,0.28,0.39
			c-0.77,1.13-2.08,1.81-3.17,1.81c-1.06,0-1.91-0.63-1.91-2.02c0-1.45,0.96-3.79,2.82-3.79c1.02,0,1.28,0.57,1.28,1.08
			C139.26,48.49,138.76,49.26,136.59,50.46z M136.55,49.97c1.09-0.68,1.83-1.47,1.83-2.2c0-0.26-0.13-0.43-0.32-0.43
			C136.94,47.34,136.59,49.19,136.55,49.97z"/>
		<path class="st0" d="M140.1,47.04c0.39-0.3,0.79-0.54,1.26-0.54c0.4,0,0.64,0.19,0.54,0.62l-0.11,0.51
			c0.47-0.67,1.19-1.12,1.84-1.12c0.59,0,1.03,0.47,0.76,1.66l-0.55,2.59c-0.06,0.32,0.08,0.46,0.31,0.46c0.41,0,0.9-0.28,1.18-0.56
			c0.12,0.06,0.18,0.16,0.18,0.27c0,0.07-0.03,0.17-0.1,0.24c-0.53,0.59-1.29,1.12-2.03,1.12c-0.56,0-1.16-0.28-0.88-1.6l0.47-2.23
			c0.1-0.47-0.06-0.67-0.3-0.67c-0.31,0-0.76,0.28-1,0.59l-0.68,3.21c-0.11,0.51-0.54,0.71-0.95,0.71c-0.2,0-0.39-0.06-0.52-0.14
			l0.92-4.31c0.05-0.18-0.01-0.28-0.11-0.28c-0.06,0-0.12,0.04-0.22,0.13C139.96,47.57,139.88,47.22,140.1,47.04z"/>
		<path class="st0" d="M147.29,47.21l-0.66,3.16c-0.13,0.58,0.02,0.83,0.24,0.83c0.21,0,0.47-0.14,0.63-0.55
			c0.21,0,0.34,0.11,0.34,0.31c0,0.79-0.92,1.32-1.55,1.32c-0.56,0-1.35-0.33-1.07-1.66l0.71-3.4h-0.56
			c-0.06-0.35,0.13-0.65,0.47-0.65h0.22l0.2-0.92c0.11-0.52,0.54-0.71,0.95-0.71c0.2,0,0.39,0.06,0.52,0.14l-0.31,1.48h2.44
			c0.4,0,0.63,0.19,0.54,0.62l-0.67,3.19c-0.14,0.63,0.05,0.84,0.34,0.84c0.42,0,0.9-0.28,1.18-0.56c0.12,0.06,0.19,0.16,0.19,0.27
			c0,0.07-0.04,0.17-0.1,0.24c-0.53,0.59-1.28,1.12-2.03,1.12c-0.56,0-1.21-0.31-1-1.34l0.72-3.44c0.05-0.18-0.06-0.28-0.23-0.28
			H147.29z M150.19,44.27c0.43,0,0.76,0.35,0.71,0.79c-0.06,0.43-0.43,0.79-0.88,0.79c-0.43,0-0.76-0.35-0.69-0.79
			C149.38,44.61,149.75,44.27,150.19,44.27z"/>
		<path class="st0" d="M154,46.46c0.91,0,1.36,0.36,1.36,1.08c0,0.63-0.37,0.92-0.79,0.92c-0.14,0-0.32-0.05-0.45-0.15
			c0.13-0.27,0.18-0.58,0.18-0.73c0-0.22-0.14-0.33-0.42-0.33c-0.63,0-1.36,1.21-1.36,2.82c0,0.84,0.43,1.21,1.01,1.21
			c0.49,0,0.85-0.23,1.04-0.64c0.21,0,0.34,0.11,0.34,0.31c0,0.62-1.04,1.32-2.02,1.32c-1.04,0-1.77-0.54-1.77-2.02
			C151.13,48.53,152.31,46.46,154,46.46z"/>
	</g>
</g>
</svg>
