<?xml version="1.0" encoding="utf-8"?>
<!-- Generator: Adobe Illustrator 23.0.0, SVG Export Plug-In . SVG Version: 6.00 Build 0)  -->
<svg version="1.1" id="Layer_1" xmlns="http://www.w3.org/2000/svg" xmlns:xlink="http://www.w3.org/1999/xlink" x="0px" y="0px"
	 width="270px" height="160px" viewBox="0 0 270 160" style="enable-background:new 0 0 270 160;" xml:space="preserve">
<style type="text/css">
	.st0{fill-rule:evenodd;clip-rule:evenodd;fill:#70706F;}
	.st1{fill:#3A3A3A;}
</style>
<g>
	<path class="st0" d="M158.27,110.75h43.29v-0.72h-43.29V110.75L158.27,110.75z M110.37,110.75H67.09v-0.72h43.28V110.75z"/>
	<path class="st0" d="M122.66,67.62H67.09V66.9h55.56V67.62L122.66,67.62z M145.99,67.62h55.57V66.9h-55.57V67.62L145.99,67.62z
		 M150.88,62.73h26.71v-0.72h-26.71V62.73L150.88,62.73z M117.76,62.73H91.05v-0.72h26.71V62.73z"/>
	<path class="st1" d="M134.33,47.01h-3.66l-3.04,5.24h6.71h6.7l-3.05-5.24H134.33L134.33,47.01z M129.63,47.01l-3.05,5.24h-7.11
		c0.03-0.07,0.08-0.14,0.13-0.21h0.01l4.14-4.66c0.17-0.23,0.46-0.37,0.8-0.37H129.63L129.63,47.01z M119.66,53.04l13.18,14.83
		l-6.29-14.83H119.66L119.66,53.04z M127.53,53.04h6.79h6.79l-6.35,14.95c-0.07,0.16-0.24,0.26-0.43,0.26c-0.2,0-0.37-0.1-0.44-0.26
		L127.53,53.04L127.53,53.04z M139.02,47.01h5.08c0.34,0,0.63,0.14,0.8,0.37l4.14,4.66h0.01c0.06,0.07,0.1,0.14,0.13,0.21h-7.11
		L139.02,47.01L139.02,47.01z M148.98,53.04h-6.89l-6.29,14.83L148.98,53.04z"/>
	<g>
		<path class="st1" d="M71.54,87.28c0,3.94-2.8,4.97-6.25,4.97h-1.95c0,2.01,0,4.15,0,6.17l1.38,0.94v0.91c-1.8,0-4.16,0-5.98,0
			v-0.91l1.42-0.94c0-6.11,0-12.36,0-18.46l-1.2-0.82v-0.91h6.39c3.39,0,6.19,1.29,6.19,5.12V87.28z M63.34,80.18
			c0,3.43,0,6.85,0,10.25h2.01c2.1,0,2.93-1.13,2.93-3.15v-3.93c0-2.01-0.75-3.17-2.89-3.17H63.34z"/>
		<path class="st1" d="M76.99,98.73l1.14,0.56v0.98h-4.31v-0.98l1.13-0.59c1.58-6.51,3.33-14.11,4.94-20.59h3.24l5.06,20.5
			l1.14,0.69v0.98h-5.6v-0.81l1.13-0.7l-1.03-4.43h-5.78L76.99,98.73z M78.44,92.53h4.94l-2.45-10.59h-0.03L78.44,92.53z"/>
		<path class="st1" d="M100.43,93.35c-0.63-1.7-1.2-2.14-3.05-2.14c0,1.98,0,5.18,0,7.2l1.38,0.94v0.91c-1.82,0-4.15,0-5.97,0v-0.91
			l1.38-0.94c0-6.11,0-12.36,0-18.46l-1.16-0.82v-0.91h6.39c3.39,0,6.16,1.29,6.16,5.12v2.86c0,2.71-1.51,4.22-3.55,4.62
			c0.94,0.51,1.36,1.1,1.7,2.08l1.48,4.05c0.31,0.85,0.87,2.08,1.88,1.86v1.22c-0.63,0.31-1.6,0.42-2.3,0.42
			c-1.98,0-2.16-1.42-2.79-3.09L100.43,93.35z M97.36,80.18c0,3.43,0,5.78,0,9.21h2.01c2.1,0,2.93-1.16,2.93-3.18v-2.86
			c0-2.01-0.73-3.17-2.89-3.17H97.36z"/>
		<path class="st1" d="M118.34,80.2c0,6,0,12.01,0,18.01l1.38,0.98v1.07c-1.82,0-4.27,0-6.06,0v-1.07l1.38-0.98c0-6,0-12.01,0-18.01
			h-2.36l-1.01,3.62h-1.51l0.13-5.6h12.8l0.12,5.6h-1.5l-1.07-3.62H118.34z"/>
		<path class="st1" d="M132.28,99.29v0.98c-1.54,0-3.37,0-4.9,0v-0.98l1.31-0.81c0-6.17,0-12.36,0-18.52l-1.2-0.82v-0.91
			c1.51,0,2.24,0,3.72,0c1.38,0,1.64,0.13,1.98,1.31l3.09,9.81l1.41,6.17h0.07c0-1.61-0.13-3.72-0.13-5.32V80.02l-1.2-0.81v-0.98
			c1.54,0,3.08,0,4.62,0v0.98l-1.2,0.81c0,6.76,0,13.49,0,20.25h-2.71c-0.76,0-1.16-0.44-1.35-1.07l-5.12-17.61l-0.09,0.03
			l0.37,3.15c0,4.55,0,9.14,0,13.71L132.28,99.29z"/>
		<path class="st1" d="M145.78,100.26v-0.91l1.42-0.94c0-6.2,0-12.39,0-18.56l-1.2-0.81v-0.81c3.83,0,7.35,0,11.19,0v4.94h-1.57
			l-0.88-3.09h-4.27c0,2.74,0,5.5,0,8.27h3.02l0.81-1.73h0.95c0,1.54,0,3.77,0,5.32h-0.95l-0.81-1.67h-3.02c0,2.33,0,4.62,0,6.95
			c0,0.5-0.13,0.78-0.66,0.98v0.15c1.8,0,3.55,0,5.35,0l1.07-3.02h1.38v4.94C153.67,100.26,149.75,100.26,145.78,100.26z"/>
		<path class="st1" d="M169.88,93.35c-0.63-1.7-1.2-2.14-3.04-2.14c0,1.98,0,5.18,0,7.2l1.38,0.94v0.91c-1.82,0-4.16,0-5.98,0v-0.91
			l1.39-0.94c0-6.11,0-12.36,0-18.46l-1.17-0.82v-0.91h6.39c3.39,0,6.17,1.29,6.17,5.12v2.86c0,2.71-1.51,4.22-3.55,4.62
			c0.94,0.51,1.35,1.1,1.7,2.08l1.48,4.05c0.31,0.85,0.88,2.08,1.88,1.86v1.22c-0.63,0.31-1.6,0.42-2.29,0.42
			c-1.98,0-2.17-1.42-2.8-3.09L169.88,93.35z M166.8,80.18c0,3.43,0,5.78,0,9.21h2.01c2.11,0,2.93-1.16,2.93-3.18v-2.86
			c0-2.01-0.72-3.17-2.89-3.17H166.8z"/>
		<path class="st1" d="M193.14,84.33h-3.27v-0.6c0-1.98-0.59-3.61-2.86-3.65c-1.48,0-2.83,1.01-2.83,3.77c0,1.32,0,9.59,0,10.92
			c0,2.6,1.03,3.77,2.93,3.77c2.29,0,2.95-1.31,2.95-3.55v-1.17h3.27v1.2c0,3.9-2.67,5.6-6.2,5.6c-3.52,0-6.23-1.86-6.23-5.84
			c0-1.32,0-9.59,0-10.92c0-3.74,2.3-5.84,6.01-5.84c1.35,0,2.76,0.31,3.71,1.35h0.09l0.25-1.2h2.17V84.33z"/>
		<path class="st1" d="M211.26,94.7c0,3.55-2.46,5.88-6.32,5.88c-3.84,0-6.29-2.36-6.29-5.88V83.76c0-3.52,2.45-5.88,6.29-5.88
			c3.86,0,6.32,2.32,6.32,5.88V94.7z M201.92,94.7c0,2.45,0.94,3.77,3.02,3.77c2.1,0,3.08-1.73,3.08-3.77V83.76
			c0-2.08-0.98-3.77-3.08-3.77c-2.08,0-3.02,1.29-3.02,3.77V94.7z"/>
	</g>
	<g>
		<path class="st1" d="M119.32,109.26c0,0.06-0.03,0.09-0.09,0.09h-1.36v1.09h1.04c0.05,0,0.08,0.03,0.08,0.09v0.53
			c0,0.06-0.03,0.09-0.08,0.09h-1.04v1.1h1.36c0.07,0,0.09,0.03,0.09,0.09v0.54c0,0.06-0.03,0.09-0.09,0.09h-2
			c-0.05,0-0.08-0.03-0.08-0.09v-4.18c0-0.06,0.03-0.09,0.08-0.09h2c0.07,0,0.09,0.03,0.09,0.09V109.26z"/>
		<path class="st1" d="M122.88,108.63c0.51,0,0.78,0.27,0.78,0.78v0.58c0,0.06-0.03,0.09-0.08,0.09h-0.57
			c-0.05,0-0.08-0.03-0.08-0.09v-0.42c0-0.14-0.07-0.22-0.22-0.22h-0.26c-0.14,0-0.21,0.08-0.21,0.22v0.75l1.3,0.42
			c0.09,0.03,0.14,0.1,0.14,0.2v1.26c0,0.52-0.27,0.79-0.78,0.79h-0.61c-0.51,0-0.79-0.27-0.79-0.79v-0.57
			c0-0.06,0.03-0.09,0.09-0.09h0.56c0.06,0,0.09,0.03,0.09,0.09v0.42c0,0.15,0.08,0.22,0.21,0.22h0.26c0.14,0,0.22-0.07,0.22-0.22
			v-0.72l-1.29-0.42c-0.1-0.03-0.15-0.1-0.15-0.2v-1.29c0-0.51,0.28-0.78,0.79-0.78H122.88z"/>
		<path class="st1" d="M127.87,108.63c0.06,0,0.08,0.03,0.08,0.09v0.54c0,0.06-0.03,0.08-0.08,0.08h-0.63v3.55
			c0,0.06-0.03,0.09-0.09,0.09h-0.56c-0.06,0-0.09-0.03-0.09-0.09v-3.55h-0.63c-0.06,0-0.09-0.03-0.09-0.08v-0.54
			c0-0.06,0.03-0.09,0.09-0.09H127.87z"/>
		<path class="st1" d="M130.18,108.72c0-0.06,0.03-0.09,0.09-0.09h1.31c0.51,0,0.78,0.27,0.78,0.79v2.78c0,0.52-0.27,0.79-0.78,0.79
			h-1.31c-0.06,0-0.09-0.03-0.09-0.09V108.72z M131.43,112.27c0.14,0,0.22-0.07,0.22-0.22v-2.48c0-0.15-0.08-0.23-0.22-0.23h-0.5
			v2.93H131.43z"/>
		<path class="st1" d="M136.87,111.56c-0.05,0.03-0.08,0.07-0.08,0.13v0.47c0,0.07,0.04,0.11,0.11,0.11h0.59v-0.22
			c0-0.08,0.03-0.11,0.11-0.11h0.52c0.08,0,0.11,0.03,0.11,0.11v0.83c0,0.07-0.03,0.11-0.11,0.11h-1.96c-0.07,0-0.11-0.04-0.11-0.11
			v-1.61c0-0.1,0.04-0.14,0.14-0.2l1.3-0.7v-0.81c0-0.14-0.09-0.22-0.22-0.22h-0.26c-0.14,0-0.22,0.08-0.22,0.22v0.42
			c0,0.06-0.03,0.09-0.08,0.09h-0.57c-0.06,0-0.09-0.03-0.09-0.09v-0.58c0-0.51,0.27-0.78,0.79-0.78h0.61c0.5,0,0.78,0.27,0.78,0.78
			v1.29c0,0.1-0.04,0.14-0.14,0.2L136.87,111.56z"/>
		<path class="st1" d="M140.57,109.41c0-0.51,0.27-0.78,0.78-0.78h0.61c0.52,0,0.79,0.27,0.79,0.78v2.79c0,0.52-0.27,0.79-0.79,0.79
			h-0.61c-0.51,0-0.78-0.27-0.78-0.79V109.41z M141.82,112.29c0.14,0,0.22-0.08,0.22-0.22v-2.52c0-0.14-0.08-0.21-0.22-0.21h-0.31
			c-0.14,0-0.22,0.08-0.22,0.21v2.52c0,0.14,0.08,0.22,0.22,0.22H141.82z"/>
		<path class="st1" d="M145.08,109.41c0-0.51,0.27-0.78,0.78-0.78h0.61c0.52,0,0.79,0.27,0.79,0.78v2.79c0,0.52-0.27,0.79-0.79,0.79
			h-0.61c-0.51,0-0.78-0.27-0.78-0.79V109.41z M146.34,112.29c0.14,0,0.22-0.08,0.22-0.22v-2.52c0-0.14-0.08-0.21-0.22-0.21h-0.31
			c-0.14,0-0.22,0.08-0.22,0.21v2.52c0,0.14,0.08,0.22,0.22,0.22H146.34z"/>
		<path class="st1" d="M150.41,111.56c-0.05,0.03-0.08,0.07-0.08,0.13v0.47c0,0.07,0.04,0.11,0.11,0.11h0.59v-0.22
			c0-0.08,0.04-0.11,0.11-0.11h0.53c0.07,0,0.11,0.03,0.11,0.11v0.83c0,0.07-0.04,0.11-0.11,0.11h-1.96c-0.08,0-0.11-0.04-0.11-0.11
			v-1.61c0-0.1,0.03-0.14,0.14-0.2l1.3-0.7v-0.81c0-0.14-0.08-0.22-0.21-0.22h-0.26c-0.15,0-0.22,0.08-0.22,0.22v0.42
			c0,0.06-0.03,0.09-0.08,0.09h-0.57c-0.06,0-0.08-0.03-0.08-0.09v-0.58c0-0.51,0.27-0.78,0.78-0.78h0.61
			c0.51,0,0.79,0.27,0.79,0.78v1.29c0,0.1-0.04,0.14-0.15,0.2L150.41,111.56z"/>
	</g>
</g>
</svg>
