<?xml version="1.0" encoding="utf-8"?>
<!-- Generator: Adobe Illustrator 23.0.0, SVG Export Plug-In . SVG Version: 6.00 Build 0)  -->
<svg version="1.1" id="Layer_1" xmlns="http://www.w3.org/2000/svg" xmlns:xlink="http://www.w3.org/1999/xlink" x="0px" y="0px"
	 width="270px" height="160px" viewBox="0 0 270 160" style="enable-background:new 0 0 270 160;" xml:space="preserve">
<style type="text/css">
	.st0{fill:#3A3A3A;}
	.st1{fill-rule:evenodd;clip-rule:evenodd;fill:#70706F;}
	.st2{fill-rule:evenodd;clip-rule:evenodd;fill:#3A3A3A;}
	.st3{fill:#70706F;}
</style>
<g>
	<g>
		<path class="st0" d="M109.8,118.02l0.26-0.53c0.02-0.04,0.01-0.07-0.02-0.1l-0.48-0.34l-1.61,2.29c-0.02,0.03-0.02,0.06-0.02,0.09
			c0.01,0.02,0.02,0.05,0.05,0.07l0.24,0.2l-0.15,0.22l-1.31-0.92l0.15-0.22l0.27,0.16c0.03,0.02,0.06,0.02,0.09,0.02
			c0.03,0,0.06-0.02,0.07-0.04l1.61-2.29l-0.48-0.34c-0.04-0.03-0.07-0.03-0.1,0l-0.41,0.43l-0.31-0.22l0.56-0.78l2.48,1.74
			l-0.55,0.78L109.8,118.02z"/>
		<path class="st0" d="M114.95,123.8c-0.11-0.04-0.21-0.07-0.29-0.09c-0.08-0.02-0.16-0.04-0.21-0.07
			c-0.15-0.07-0.27-0.16-0.35-0.26c-0.08-0.09-0.14-0.19-0.17-0.29c-0.03-0.11-0.05-0.21-0.04-0.32c0-0.11,0.01-0.21,0.02-0.32
			c0.01-0.11,0.02-0.21,0.04-0.31c0.01-0.11,0.01-0.21-0.01-0.3c-0.01-0.1-0.05-0.18-0.1-0.26c-0.05-0.07-0.14-0.14-0.25-0.2
			l-0.09-0.05l-0.51,1.01c-0.02,0.03-0.02,0.07,0,0.09c0.01,0.02,0.03,0.05,0.06,0.07l0.25,0.16l-0.12,0.24l-1.4-0.7l0.12-0.24
			l0.26,0.11c0.03,0.01,0.06,0.01,0.09,0c0.03-0.01,0.05-0.02,0.07-0.05l1.21-2.43c0.01-0.03,0.02-0.06,0-0.09
			c-0.02-0.02-0.03-0.05-0.06-0.07l-0.24-0.15l0.12-0.25l1.57,0.78c0.06,0.03,0.12,0.07,0.19,0.12c0.07,0.04,0.14,0.09,0.2,0.16
			c0.07,0.06,0.12,0.12,0.18,0.2c0.06,0.07,0.1,0.15,0.12,0.24c0.03,0.08,0.04,0.17,0.03,0.27c0,0.1-0.04,0.21-0.09,0.32
			c-0.05,0.11-0.11,0.19-0.18,0.25c-0.07,0.07-0.14,0.12-0.22,0.16c-0.08,0.03-0.16,0.06-0.23,0.07c-0.08,0.01-0.16,0.02-0.23,0.01
			c-0.07-0.01-0.14-0.02-0.21-0.03c-0.07-0.01-0.12-0.02-0.16-0.04c0.09,0.07,0.16,0.15,0.22,0.22c0.05,0.07,0.09,0.15,0.11,0.22
			c0.02,0.08,0.04,0.16,0.04,0.23c0,0.08,0,0.16-0.01,0.23c-0.01,0.08-0.02,0.16-0.04,0.23c-0.01,0.07-0.02,0.14-0.03,0.21
			c0,0.07,0,0.13,0,0.2c0,0.07,0.02,0.12,0.06,0.18c0.03,0.06,0.08,0.12,0.15,0.16c0.07,0.05,0.15,0.09,0.26,0.13L114.95,123.8z
			 M114.8,120.87c0.1-0.2,0.11-0.38,0.04-0.53c-0.07-0.16-0.22-0.29-0.45-0.4c-0.01-0.01-0.02-0.02-0.04-0.02l-0.05-0.02
			c-0.02-0.01-0.04-0.02-0.06-0.02l-0.6,1.2c0.04,0.02,0.07,0.04,0.09,0.06c0.02,0.01,0.04,0.02,0.05,0.02
			c0.07,0.04,0.16,0.07,0.24,0.1c0.09,0.02,0.18,0.03,0.27,0.02c0.09-0.01,0.18-0.05,0.27-0.11
			C114.65,121.1,114.73,121,114.8,120.87z"/>
		<path class="st0" d="M120.15,125.75l0.08-0.26l0.3,0.07c0.02,0,0.04-0.01,0.05-0.02c0.02-0.01,0.02-0.02,0.02-0.05l-0.01-0.88
			l-1.07-0.35l-0.53,0.68c-0.02,0.02-0.02,0.05-0.01,0.07c0.01,0.02,0.03,0.05,0.05,0.05l0.27,0.13l-0.08,0.25l-1.08-0.35l0.08-0.26
			l0.3,0.06l2.14-2.79l0.57,0.19l0.12,3.41c0,0.03,0.01,0.06,0.02,0.07c0.01,0.02,0.03,0.04,0.06,0.06l0.18,0.1l-0.08,0.26
			L120.15,125.75z M120.53,122.93l-0.81,1.06l0.85,0.28L120.53,122.93z"/>
		<path class="st0" d="M128.75,125.83c-0.05,0.3-0.13,0.55-0.25,0.76c-0.12,0.21-0.27,0.37-0.46,0.49
			c-0.18,0.12-0.39,0.21-0.62,0.24c-0.23,0.04-0.49,0.03-0.77-0.01l-1.62-0.26l0.05-0.26l0.29,0.02c0.03,0,0.06-0.01,0.09-0.02
			c0.03-0.01,0.05-0.03,0.05-0.07l0.44-2.67c0-0.03,0-0.06-0.02-0.08c-0.02-0.02-0.05-0.04-0.08-0.05l-0.28-0.07l0.04-0.26
			l1.59,0.26c0.3,0.05,0.55,0.14,0.77,0.25c0.21,0.12,0.39,0.27,0.52,0.44c0.14,0.17,0.22,0.38,0.27,0.6
			C128.79,125.34,128.79,125.57,128.75,125.83z M127.91,125.74c0.03-0.2,0.05-0.37,0.04-0.53c-0.01-0.16-0.03-0.29-0.06-0.4
			c-0.04-0.12-0.09-0.22-0.15-0.3c-0.06-0.08-0.13-0.15-0.21-0.21c-0.07-0.06-0.16-0.1-0.24-0.13c-0.09-0.03-0.18-0.05-0.26-0.07
			l-0.33-0.06l-0.47,2.88l0.43,0.06c0.07,0.02,0.15,0.02,0.23,0.01c0.08,0,0.16-0.02,0.25-0.05c0.08-0.03,0.16-0.07,0.24-0.13
			c0.08-0.07,0.15-0.14,0.22-0.24c0.07-0.09,0.13-0.21,0.18-0.35C127.84,126.09,127.88,125.93,127.91,125.74z"/>
		<path class="st0" d="M132.2,127.91l0-0.26l0.29-0.02c0.03-0.01,0.06-0.02,0.08-0.03c0.02-0.02,0.04-0.05,0.04-0.08l0.03-2.7
			c0-0.04-0.01-0.07-0.04-0.08c-0.02-0.02-0.05-0.03-0.08-0.04l-0.29-0.02v-0.27l2.68,0.03l-0.01,0.84l-0.38-0.01l-0.07-0.44
			c-0.01-0.02-0.02-0.05-0.03-0.07c-0.02-0.02-0.04-0.03-0.06-0.03l-0.98-0.01l-0.02,1.23l0.62,0.01c0.02,0,0.05-0.02,0.06-0.03
			c0.02-0.02,0.02-0.04,0.03-0.07l0.05-0.35h0.33l-0.02,1.24l-0.32-0.01l-0.05-0.35c0-0.02-0.01-0.04-0.03-0.07
			c-0.02-0.02-0.04-0.03-0.06-0.03l-0.62-0.01l-0.02,1.34l1.15,0.02c0.02,0,0.05-0.01,0.06-0.03c0.02-0.02,0.03-0.05,0.04-0.07
			l0.09-0.55l0.38,0.01l-0.01,0.96L132.2,127.91z"/>
		<path class="st0" d="M141.67,127.37l-0.04-0.27l0.25-0.06c0.03-0.01,0.05-0.02,0.07-0.05c0.02-0.02,0.03-0.05,0.02-0.08
			l-0.39-2.74l-0.59,3.29l-0.4,0.06l-1.47-2.97l0.39,2.71c0.01,0.03,0.02,0.06,0.05,0.07c0.02,0.02,0.05,0.02,0.08,0.02l0.28-0.02
			l0.04,0.26l-1.2,0.17l-0.04-0.26l0.29-0.07c0.03-0.01,0.05-0.02,0.08-0.05c0.02-0.02,0.03-0.05,0.02-0.08l-0.39-2.68
			c0-0.03-0.02-0.07-0.05-0.08c-0.02-0.02-0.05-0.02-0.09-0.02l-0.3,0.02l-0.04-0.27l1.5-0.21l0.02,0.15l1.05,2.12l0.41-2.33
			l-0.02-0.14l1.48-0.21l0.04,0.26l-0.3,0.07c-0.03,0.01-0.05,0.02-0.07,0.05c-0.02,0.02-0.03,0.06-0.02,0.09l0.38,2.68
			c0,0.03,0.02,0.06,0.05,0.07c0.02,0.02,0.05,0.02,0.09,0.02l0.3-0.02l0.04,0.26L141.67,127.37z"/>
		<path class="st0" d="M148.72,125.68l-0.08-0.26l0.28-0.13c0.02-0.01,0.03-0.02,0.03-0.04c0.01-0.02,0-0.04-0.01-0.06l-0.52-0.72
			l-1.07,0.35l-0.03,0.86c0,0.02,0.01,0.05,0.04,0.07c0.02,0.02,0.05,0.02,0.07,0.02l0.3-0.06l0.08,0.25l-1.08,0.35l-0.08-0.26
			l0.27-0.13l0.14-3.51l0.57-0.17l2.08,2.7c0.02,0.03,0.05,0.05,0.06,0.06c0.01,0.01,0.04,0.01,0.08,0.01l0.21-0.02l0.08,0.26
			L148.72,125.68z M147.39,123.16l-0.04,1.34l0.85-0.27L147.39,123.16z"/>
		<path class="st0" d="M156.64,122.34c-0.1,0.07-0.18,0.12-0.25,0.18c-0.06,0.06-0.12,0.1-0.18,0.12c-0.16,0.07-0.29,0.11-0.41,0.12
			c-0.12,0.01-0.23-0.01-0.33-0.04c-0.1-0.03-0.19-0.09-0.28-0.16c-0.08-0.07-0.16-0.14-0.24-0.21c-0.08-0.07-0.15-0.15-0.23-0.22
			c-0.08-0.07-0.16-0.13-0.24-0.17c-0.08-0.04-0.17-0.07-0.27-0.07c-0.09-0.01-0.2,0.02-0.32,0.07l-0.09,0.05l0.5,1.02
			c0.01,0.02,0.04,0.05,0.07,0.06c0.03,0.01,0.06,0,0.09-0.01l0.28-0.1l0.12,0.24l-1.4,0.68l-0.12-0.24l0.24-0.15
			c0.03-0.02,0.05-0.04,0.06-0.07c0.01-0.03,0.01-0.06,0-0.09l-1.19-2.43c-0.01-0.02-0.04-0.05-0.07-0.06
			c-0.03-0.01-0.06,0-0.09,0.01l-0.26,0.1l-0.12-0.24l1.57-0.77c0.06-0.02,0.13-0.06,0.21-0.08c0.08-0.03,0.16-0.05,0.25-0.07
			c0.09-0.02,0.17-0.02,0.27-0.02c0.09,0,0.18,0.02,0.26,0.04c0.08,0.03,0.16,0.08,0.24,0.15c0.07,0.07,0.14,0.16,0.2,0.26
			c0.05,0.11,0.08,0.21,0.09,0.3c0.01,0.09,0.01,0.18-0.01,0.26c-0.02,0.08-0.05,0.16-0.09,0.23c-0.04,0.07-0.09,0.13-0.14,0.18
			c-0.05,0.06-0.1,0.11-0.15,0.15c-0.05,0.04-0.09,0.07-0.13,0.11c0.11-0.03,0.21-0.05,0.3-0.04c0.09,0,0.17,0.02,0.25,0.05
			c0.07,0.02,0.14,0.07,0.2,0.11c0.07,0.05,0.12,0.1,0.18,0.16c0.05,0.05,0.1,0.11,0.15,0.16c0.05,0.06,0.1,0.11,0.16,0.16
			c0.05,0.04,0.1,0.08,0.16,0.11c0.06,0.03,0.12,0.06,0.18,0.07c0.07,0.01,0.14,0,0.22-0.02c0.08-0.02,0.17-0.07,0.27-0.13
			L156.64,122.34z M154.22,120.68c-0.1-0.2-0.23-0.31-0.39-0.35c-0.17-0.04-0.37,0-0.6,0.11c-0.01,0-0.03,0.01-0.05,0.02l-0.05,0.02
			c-0.02,0.01-0.04,0.02-0.05,0.03l0.59,1.21c0.04-0.02,0.08-0.03,0.1-0.04c0.02-0.02,0.05-0.02,0.06-0.03
			c0.07-0.03,0.15-0.07,0.22-0.13c0.07-0.06,0.14-0.12,0.18-0.21c0.05-0.07,0.07-0.16,0.08-0.27
			C154.31,120.94,154.28,120.82,154.22,120.68z"/>
		<path class="st0" d="M161.62,119.2l-0.11-0.16l-1.48-0.62l-0.23,0.16l0.65,0.93c0.02,0.03,0.05,0.05,0.07,0.05
			c0.03,0.01,0.06,0,0.09-0.02l0.24-0.14l0.16,0.22l-1.27,0.88l-0.15-0.22l0.21-0.18c0.02-0.02,0.04-0.04,0.04-0.07
			c0.01-0.02,0-0.06-0.02-0.08l-1.55-2.23c-0.02-0.02-0.05-0.04-0.07-0.05c-0.03,0-0.06,0.01-0.09,0.02l-0.25,0.14l-0.15-0.21
			l1.27-0.88l0.15,0.21l-0.21,0.18c-0.02,0.02-0.04,0.05-0.05,0.07c0,0.03,0,0.07,0.02,0.09l0.76,1.08l0.12-0.08l0.14-1.78
			c0-0.02,0-0.02-0.02-0.04c-0.02-0.01-0.03-0.01-0.05,0l-0.26,0.15l-0.15-0.21l0.99-0.69l0.15,0.22c-0.03,0.02-0.06,0.05-0.09,0.07
			c-0.02,0.02-0.06,0.05-0.09,0.08c-0.03,0.02-0.07,0.05-0.1,0.08l-0.14,1.51l1.92,0.81l0.32-0.18l0.15,0.21L161.62,119.2z"/>
	</g>
	<g>
		<path class="st1" d="M163.47,114.75c0.24-0.21,0.6-0.17,0.81,0.06c0.21,0.24,0.18,0.6-0.06,0.81c-0.24,0.21-0.6,0.18-0.81-0.06
			C163.21,115.31,163.24,114.95,163.47,114.75z M105.22,115.56c-0.21,0.24-0.57,0.27-0.81,0.06c-0.24-0.21-0.27-0.58-0.06-0.81
			c0.21-0.23,0.58-0.26,0.81-0.06C105.39,114.95,105.42,115.31,105.22,115.56z"/>
		<path class="st1" d="M108.36,111.04l-0.3,0.35c7.22,6.27,16.69,9.8,26.25,9.77c9.57,0.03,19.04-3.49,26.25-9.77l-0.3-0.35
			c-7.13,6.21-16.49,9.69-25.95,9.66C124.86,120.73,115.5,117.25,108.36,111.04z M101.21,119.32c4.55,3.93,9.8,7.05,15.45,9.15
			c5.64,2.1,11.66,3.17,17.66,3.17s12.03-1.07,17.67-3.17c5.64-2.1,10.9-5.22,15.44-9.15l-0.3-0.35c-4.5,3.9-9.71,6.99-15.3,9.07
			c-5.59,2.08-11.56,3.14-17.51,3.14c-5.95,0-11.92-1.06-17.5-3.14c-5.59-2.08-10.8-5.17-15.31-9.07L101.21,119.32z"/>
	</g>
	<path class="st1" d="M71.48,51.28h25.24v0.5H71.48V51.28L71.48,51.28z M171.92,51.28h25.24v0.5h-25.24V51.28L171.92,51.28z
		 M171.92,52.79h25.24v0.51h-25.24V52.79L171.92,52.79z M71.48,52.79h25.24v0.51H71.48V52.79z"/>
	<path class="st2" d="M141.62,102.53v6.63c0,0.5-0.41,0.91-0.91,0.91h-12.77c-0.5,0-0.91-0.41-0.91-0.91v-6.63
		c0.02,0.01,0.04,0.02,0.06,0.03l6.33,3.62c0.28,0.16,0.59,0.25,0.9,0.25c0.32,0,0.63-0.08,0.9-0.25l6.34-3.62
		C141.58,102.56,141.6,102.54,141.62,102.53L141.62,102.53z M134.32,105.52c0.16,0,0.31-0.04,0.45-0.12l6.35-3.63
		c0.3-0.16,0.5-0.46,0.5-0.81v-0.91c0-0.51-0.41-0.91-0.91-0.91h-6.39h-6.39c-0.5,0-0.91,0.4-0.91,0.91v0.91
		c0,0.35,0.21,0.66,0.5,0.81l6.35,3.63C134.01,105.47,134.17,105.52,134.32,105.52z"/>
	<path class="st1" d="M143.06,36.98c-0.03,0-0.07-0.02-0.09-0.03c-0.06-0.04-0.08-0.11-0.06-0.18L143.5,35l-1.34-0.96
		c-0.06-0.04-0.08-0.11-0.06-0.18c0.02-0.07,0.08-0.12,0.16-0.12h1.66l0.61-1.83c0.02-0.07,0.09-0.11,0.16-0.11
		c0.07,0,0.13,0.04,0.15,0.11l0.61,1.83h1.66c0.07,0,0.13,0.05,0.16,0.12c0.02,0.07,0,0.14-0.06,0.18L145.86,35l0.59,1.77
		c0.02,0.07,0,0.14-0.05,0.18c-0.03,0.02-0.06,0.03-0.1,0.03c-0.03,0-0.07-0.02-0.09-0.03l-1.52-1.09l-1.52,1.09
		C143.13,36.97,143.1,36.98,143.06,36.98L143.06,36.98z M122.34,36.98c-0.03,0-0.07-0.02-0.09-0.03c-0.06-0.04-0.08-0.11-0.06-0.18
		l0.59-1.77l-1.34-0.96c-0.06-0.04-0.08-0.11-0.06-0.18c0.02-0.07,0.09-0.12,0.15-0.12h1.66l0.61-1.83
		c0.02-0.07,0.08-0.11,0.15-0.11c0.07,0,0.13,0.04,0.15,0.11l0.61,1.83h1.66c0.07,0,0.14,0.05,0.15,0.12c0.02,0.07,0,0.14-0.06,0.18
		L125.13,35l0.59,1.77c0.02,0.07,0,0.14-0.06,0.18c-0.03,0.02-0.07,0.03-0.1,0.03c-0.03,0-0.07-0.02-0.09-0.03l-1.52-1.09
		l-1.52,1.09C122.41,36.97,122.37,36.98,122.34,36.98z"/>
	<path class="st2" d="M131.5,37.36c-0.06,0-0.11-0.02-0.16-0.05c-0.1-0.07-0.14-0.21-0.1-0.32l1.03-3.07l-2.33-1.68
		c-0.1-0.07-0.14-0.2-0.1-0.31c0.04-0.12,0.14-0.2,0.27-0.2h2.89l1.06-3.18c0.04-0.12,0.15-0.2,0.27-0.2c0.12,0,0.23,0.08,0.27,0.2
		l1.06,3.18h2.89c0.12,0,0.23,0.08,0.27,0.2c0.04,0.11,0,0.25-0.1,0.31l-2.33,1.68l1.02,3.07c0.04,0.12,0,0.25-0.1,0.32
		c-0.05,0.03-0.11,0.05-0.17,0.05c-0.05,0-0.11-0.02-0.16-0.05l-2.65-1.91l-2.65,1.91C131.62,37.35,131.56,37.36,131.5,37.36z"/>
	<g>
		<path class="st0" d="M102.93,54.52c0.21,0.11,0.48,0.17,0.8,0.17s0.61-0.1,0.88-0.29c0.27-0.2,0.49-0.47,0.68-0.82
			c0.39-0.76,0.59-1.74,0.59-2.95c0-0.77-0.17-1.16-0.52-1.16c-0.18,0-0.37,0.1-0.54,0.3c-0.18,0.21-0.34,0.47-0.48,0.79
			c-0.31,0.74-0.46,1.55-0.46,2.42c0,0.18,0.04,0.32,0.13,0.43c0.08,0.11,0.2,0.16,0.36,0.16c-0.02,0.19-0.12,0.35-0.29,0.48
			c-0.16,0.13-0.35,0.2-0.56,0.2c-0.5,0-0.87-0.15-1.13-0.46c-0.25-0.31-0.38-0.75-0.38-1.31c0-0.56,0.08-1.06,0.26-1.5
			c0.17-0.44,0.41-0.82,0.71-1.15c0.3-0.32,0.66-0.57,1.07-0.76c0.41-0.18,0.87-0.27,1.35-0.27c1.64,0,2.46,0.8,2.46,2.39
			c0,1.15-0.28,2.08-0.83,2.79c-0.55,0.71-1.31,1.11-2.26,1.19c0.56,0.12,1.13,0.19,1.7,0.19c0.44,0,0.83-0.1,1.16-0.29
			c0.09-0.06,0.16-0.11,0.19-0.17c0.18,0.16,0.28,0.41,0.28,0.74c0,0.33-0.15,0.58-0.44,0.77c-0.29,0.19-0.72,0.29-1.28,0.29
			c-0.57,0-1.18-0.13-1.83-0.39c-0.66-0.26-1.26-0.64-1.83-1.13L102.93,54.52z"/>
		<path class="st0" d="M111.25,54.68c-0.3,0.38-0.81,0.57-1.53,0.57c-0.38,0-0.71-0.11-0.98-0.35c-0.28-0.23-0.41-0.51-0.41-0.84
			c0-0.18,0.01-0.32,0.03-0.41l0.61-3.27l1.87-0.19l-0.67,3.55c-0.02,0.13-0.04,0.24-0.04,0.32c0,0.35,0.11,0.53,0.32,0.53
			c0.24,0,0.44-0.16,0.62-0.48c0.05-0.11,0.09-0.23,0.12-0.36l0.65-3.37l1.81-0.19l-0.68,3.58c-0.02,0.09-0.02,0.19-0.02,0.29
			c0,0.1,0.02,0.2,0.08,0.3c0.05,0.11,0.17,0.17,0.35,0.2c-0.04,0.15-0.12,0.27-0.25,0.37c-0.27,0.21-0.55,0.31-0.84,0.31
			c-0.29,0-0.52-0.05-0.69-0.16C111.41,54.99,111.3,54.86,111.25,54.68z"/>
		<path class="st0" d="M116.88,51.84c0.08-0.22,0.13-0.44,0.13-0.63c0-0.36-0.15-0.54-0.44-0.54c-0.16,0-0.3,0.07-0.42,0.21
			c-0.12,0.13-0.19,0.29-0.19,0.46c0,0.12,0.05,0.23,0.15,0.33c0.14,0.14,0.39,0.31,0.75,0.53c0.36,0.22,0.61,0.42,0.75,0.6
			c0.14,0.18,0.21,0.39,0.21,0.64c0,0.26-0.06,0.49-0.18,0.72c-0.12,0.23-0.29,0.42-0.5,0.58c-0.46,0.35-1.06,0.52-1.79,0.52
			c-0.39,0-0.75-0.11-1.05-0.31c-0.31-0.21-0.46-0.42-0.46-0.66c0-0.24,0.09-0.44,0.26-0.58c0.17-0.14,0.39-0.21,0.65-0.21
			c0.26,0,0.46,0.05,0.62,0.15c-0.08,0.2-0.12,0.37-0.12,0.5c0,0.4,0.17,0.61,0.51,0.61c0.15,0,0.27-0.05,0.37-0.14
			c0.1-0.09,0.15-0.21,0.15-0.38c0-0.31-0.26-0.63-0.79-0.96c-0.43-0.28-0.69-0.48-0.79-0.59c-0.16-0.2-0.25-0.41-0.25-0.66
			s0.06-0.49,0.17-0.72c0.11-0.24,0.28-0.44,0.5-0.6c0.44-0.35,1.06-0.52,1.84-0.52c0.39,0,0.72,0.08,0.95,0.25
			c0.23,0.16,0.35,0.37,0.35,0.64c0,0.27-0.08,0.48-0.24,0.63c-0.16,0.15-0.39,0.23-0.69,0.23
			C117.13,51.94,116.98,51.91,116.88,51.84z"/>
		<path class="st0" d="M118.75,54.15c0-0.16,0.04-0.46,0.13-0.87l0.49-2.48h-0.54l0.03-0.27c0.74-0.22,1.46-0.6,2.17-1.14h0.44
			l-0.22,1h0.72l-0.08,0.41h-0.71l-0.47,2.48c-0.08,0.38-0.12,0.63-0.12,0.76c0,0.29,0.13,0.47,0.39,0.53
			c-0.06,0.21-0.2,0.38-0.42,0.5c-0.22,0.12-0.49,0.18-0.8,0.18s-0.56-0.1-0.74-0.3C118.83,54.76,118.75,54.49,118.75,54.15z"/>
		<path class="st0" d="M123.88,55.25c-1.35,0-2.02-0.63-2.02-1.9c0-0.9,0.25-1.64,0.74-2.23c0.53-0.62,1.25-0.93,2.16-0.93
			c0.66,0,1.16,0.16,1.5,0.46c0.34,0.31,0.5,0.78,0.5,1.43c0,0.98-0.26,1.75-0.79,2.32C125.46,54.97,124.76,55.25,123.88,55.25z
			 M124.12,51.25c-0.07,0.16-0.14,0.37-0.2,0.62c-0.06,0.25-0.13,0.58-0.2,0.96c-0.07,0.39-0.11,0.83-0.11,1.32
			c0,0.16,0.02,0.29,0.08,0.39c0.05,0.11,0.15,0.16,0.29,0.16c0.14,0,0.26-0.03,0.35-0.1c0.09-0.07,0.17-0.18,0.23-0.35
			c0.12-0.28,0.23-0.68,0.33-1.21c0.1-0.52,0.16-0.9,0.16-1.12c0.01-0.23,0.01-0.43,0.01-0.6c0-0.16-0.02-0.3-0.07-0.41
			c-0.05-0.11-0.14-0.16-0.28-0.16c-0.14,0-0.25,0.04-0.35,0.12C124.28,50.97,124.19,51.09,124.12,51.25z"/>
		<path class="st0" d="M133.92,55.25c-0.74,0-1.11-0.29-1.11-0.86c0-0.25,0.05-0.62,0.16-1.11c0.11-0.49,0.18-0.82,0.21-1.02
			c0.09-0.45,0.13-0.74,0.13-0.88c0-0.31-0.11-0.47-0.35-0.47c-0.15,0-0.3,0.1-0.45,0.31c-0.15,0.21-0.26,0.53-0.32,0.95l-0.57,2.89
			l-1.79,0.18l0.5-2.5c0.05-0.27,0.11-0.57,0.16-0.88s0.07-0.49,0.07-0.54c0-0.28-0.11-0.42-0.31-0.42c-0.14,0-0.29,0.1-0.44,0.31
			c-0.15,0.21-0.27,0.53-0.36,0.95l-0.56,2.89l-1.81,0.18l0.97-4.87l1.5-0.19l-0.16,0.93c0.16-0.33,0.39-0.57,0.68-0.71
			c0.29-0.15,0.67-0.22,1.13-0.22c0.26,0,0.48,0.07,0.65,0.2c0.17,0.13,0.29,0.3,0.34,0.5c0.1-0.21,0.29-0.38,0.56-0.51
			c0.27-0.12,0.56-0.19,0.89-0.19c0.33,0,0.57,0.04,0.74,0.11c0.16,0.07,0.29,0.16,0.39,0.28c0.16,0.21,0.25,0.52,0.25,0.91
			c0,0.39-0.08,0.98-0.25,1.78c-0.09,0.39-0.13,0.66-0.13,0.81c0,0.14,0.04,0.25,0.12,0.34c0.08,0.09,0.18,0.14,0.3,0.15
			c-0.06,0.21-0.2,0.38-0.41,0.5S134.19,55.25,133.92,55.25z"/>
		<path class="st0" d="M143.62,51.25c0,2.61-1.41,3.91-4.24,3.91c-0.46,0-1.06-0.06-1.8-0.16l1.03-5.43
			c0.05-0.24,0.09-0.44,0.12-0.58c0.93-0.07,1.6-0.1,2.01-0.1c0.41,0,0.81,0.04,1.19,0.12c0.38,0.09,0.69,0.23,0.95,0.42
			C143.37,49.81,143.62,50.42,143.62,51.25z M141.73,50.92c0-0.91-0.33-1.37-0.98-1.37h-0.09c-0.03,0-0.06,0.01-0.09,0.01
			l-0.95,4.93c0.02,0.02,0.05,0.02,0.07,0.02h0.07c0.23,0,0.46-0.07,0.69-0.21c0.23-0.14,0.45-0.35,0.63-0.64
			C141.51,52.98,141.73,52.07,141.73,50.92z"/>
		<path class="st0" d="M147.81,53.52c0.16,0.11,0.23,0.27,0.23,0.5s-0.06,0.42-0.17,0.56c-0.11,0.15-0.27,0.27-0.46,0.37
			c-0.39,0.21-0.8,0.3-1.22,0.3c-0.42,0-0.76-0.05-1.01-0.14c-0.25-0.09-0.45-0.22-0.62-0.39c-0.32-0.32-0.48-0.78-0.48-1.37
			c0-0.93,0.25-1.67,0.75-2.24c0.54-0.61,1.28-0.91,2.22-0.91c0.58,0,1.02,0.12,1.3,0.37c0.21,0.19,0.32,0.43,0.32,0.72
			c0,1.08-0.93,1.62-2.79,1.62c-0.02,0.16-0.04,0.3-0.04,0.44c0,0.28,0.06,0.48,0.19,0.58c0.12,0.11,0.3,0.16,0.53,0.16
			c0.23,0,0.48-0.05,0.72-0.16C147.53,53.83,147.7,53.69,147.81,53.52z M145.93,52.51c0.44,0,0.78-0.13,1.03-0.4
			c0.25-0.25,0.37-0.59,0.37-1c0-0.14-0.02-0.25-0.07-0.33c-0.05-0.07-0.13-0.11-0.24-0.11c-0.1,0-0.2,0.02-0.29,0.07
			c-0.09,0.04-0.18,0.12-0.27,0.26C146.24,51.3,146.06,51.81,145.93,52.51z"/>
		<path class="st0" d="M151.72,51.84c0.09-0.22,0.13-0.44,0.13-0.63c0-0.36-0.15-0.54-0.44-0.54c-0.15,0-0.29,0.07-0.41,0.21
			c-0.13,0.13-0.19,0.29-0.19,0.46c0,0.12,0.05,0.23,0.15,0.33c0.14,0.14,0.39,0.31,0.75,0.53c0.36,0.22,0.61,0.42,0.75,0.6
			c0.14,0.18,0.21,0.39,0.21,0.64c0,0.26-0.06,0.49-0.18,0.72c-0.12,0.23-0.29,0.42-0.5,0.58c-0.46,0.35-1.06,0.52-1.79,0.52
			c-0.4,0-0.75-0.11-1.06-0.31c-0.3-0.21-0.46-0.42-0.46-0.66c0-0.24,0.09-0.44,0.26-0.58c0.18-0.14,0.39-0.21,0.65-0.21
			c0.26,0,0.46,0.05,0.62,0.15c-0.08,0.2-0.12,0.37-0.12,0.5c0,0.4,0.17,0.61,0.51,0.61c0.15,0,0.27-0.05,0.37-0.14
			c0.1-0.09,0.15-0.21,0.15-0.38c0-0.31-0.26-0.63-0.79-0.96c-0.43-0.28-0.69-0.48-0.79-0.59c-0.16-0.2-0.25-0.41-0.25-0.66
			s0.06-0.49,0.18-0.72c0.12-0.24,0.28-0.44,0.5-0.6c0.44-0.35,1.06-0.52,1.83-0.52c0.4,0,0.72,0.08,0.95,0.25
			c0.23,0.16,0.35,0.37,0.35,0.64c0,0.27-0.08,0.48-0.25,0.63c-0.16,0.15-0.39,0.23-0.68,0.23
			C151.97,51.94,151.82,51.91,151.72,51.84z"/>
		<path class="st0" d="M155.64,54.56c-0.19,0.46-0.59,0.69-1.2,0.69c-0.31,0-0.57-0.11-0.76-0.32c-0.17-0.19-0.25-0.38-0.25-0.57
			c0-0.5,0.11-1.23,0.34-2.19l0.34-1.78l1.87-0.19l-0.56,2.91c-0.1,0.45-0.16,0.76-0.16,0.91
			C155.27,54.37,155.39,54.55,155.64,54.56z M154.28,49.1c0-0.24,0.1-0.42,0.3-0.55c0.2-0.12,0.44-0.19,0.73-0.19
			c0.29,0,0.52,0.07,0.69,0.19c0.18,0.13,0.26,0.31,0.26,0.55c0,0.25-0.1,0.43-0.29,0.54c-0.19,0.12-0.43,0.19-0.72,0.19
			c-0.29,0-0.52-0.07-0.7-0.19C154.37,49.53,154.28,49.35,154.28,49.1z"/>
		<path class="st0" d="M157.08,51.23c0.21-0.3,0.47-0.54,0.78-0.74c0.32-0.2,0.67-0.3,1.05-0.3c0.39,0,0.67,0.07,0.86,0.19l1.8-0.19
			l-0.62,3.53c-0.21,1.2-0.55,2.03-1,2.51c-0.44,0.44-1.08,0.67-1.92,0.67c-0.65,0-1.15-0.1-1.52-0.3c-0.37-0.2-0.55-0.47-0.55-0.81
			c0-0.25,0.09-0.45,0.28-0.59c0.19-0.15,0.43-0.21,0.72-0.21c0.26,0,0.49,0.06,0.68,0.17c0.11,0.06,0.2,0.13,0.25,0.22
			c-0.14,0.12-0.21,0.28-0.21,0.48c0,0.26,0.12,0.39,0.37,0.39c0.41,0,0.73-0.48,0.97-1.45c0.07-0.26,0.13-0.53,0.18-0.79
			c-0.28,0.34-0.73,0.51-1.35,0.51c-0.44,0-0.78-0.11-1.03-0.31c-0.25-0.21-0.37-0.56-0.37-1.05c0-0.3,0.05-0.63,0.16-0.98
			C156.71,51.84,156.87,51.52,157.08,51.23z M158.27,53.19c0,0.41,0.11,0.62,0.32,0.62c0.15,0,0.29-0.08,0.43-0.24
			c0.11-0.13,0.19-0.29,0.23-0.48l0.47-2.37c-0.03,0-0.06-0.01-0.09-0.02c-0.06-0.02-0.13-0.03-0.21-0.03
			c-0.37,0-0.67,0.3-0.89,0.91C158.36,52.07,158.27,52.6,158.27,53.19z"/>
		<path class="st0" d="M165.81,55.25c-0.74,0-1.11-0.29-1.11-0.86c0.01-0.16,0.03-0.37,0.08-0.64l0.17-0.85
			c0.16-0.8,0.25-1.28,0.25-1.46c0-0.35-0.1-0.53-0.31-0.53c-0.35,0-0.61,0.45-0.8,1.36l-0.54,2.79l-1.85,0.18l0.95-4.87l1.5-0.18
			l-0.14,0.9c0.29-0.6,0.87-0.9,1.76-0.9c0.43,0,0.73,0.09,0.91,0.27c0.18,0.18,0.27,0.48,0.27,0.88c0,0.38-0.1,1.01-0.3,1.9
			c-0.09,0.4-0.14,0.67-0.14,0.82c0,0.16,0.04,0.27,0.12,0.35c0.08,0.09,0.19,0.14,0.31,0.15c-0.06,0.21-0.2,0.38-0.41,0.5
			C166.33,55.19,166.09,55.25,165.81,55.25z"/>
	</g>
	<g>
		<path class="st0" d="M73.09,76.39c0,1.01-0.73,1.77-1.71,1.93v0.06c0.98,0.16,1.71,0.92,1.71,1.93v5c0,2.56-1.39,3.92-3.94,3.92
			h-6.53c-0.27,0-0.44-0.16-0.44-0.44V67.91c0-0.3,0.16-0.44,0.44-0.44h6.53c2.56,0,3.94,1.36,3.94,3.91V76.39z M69.47,72.15
			c0-0.71-0.35-1.08-1.09-1.08h-2.47v5.49h2.47c0.71,0,1.09-0.38,1.09-1.06V72.15z M69.47,81.23c0-0.71-0.35-1.08-1.09-1.08h-2.47
			v5.49h2.47c0.71,0,1.09-0.35,1.09-1.08V81.23z"/>
		<path class="st0" d="M89.05,78.03c0,1.82-0.68,3.02-1.99,3.58l1.88,7.13c0.08,0.33-0.08,0.49-0.38,0.49h-2.83
			c-0.27,0-0.41-0.14-0.46-0.39l-1.82-6.9h-1.88v6.86c0,0.27-0.16,0.44-0.44,0.44h-2.83c-0.27,0-0.44-0.16-0.44-0.44V67.91
			c0-0.27,0.16-0.44,0.44-0.44h6.83c2.56,0,3.91,1.36,3.91,3.91V78.03z M84.27,78.35c0.71,0,1.09-0.38,1.09-1.08v-5.11
			c0-0.71-0.38-1.08-1.09-1.08h-2.69v7.28H84.27z"/>
		<path class="st0" d="M103.25,89.23c-0.25,0-0.38-0.14-0.44-0.39l-0.76-3.97h-4.84l-0.74,3.97c-0.05,0.25-0.19,0.39-0.44,0.39
			h-2.91c-0.3,0-0.44-0.16-0.35-0.46l4.51-20.92c0.06-0.27,0.22-0.38,0.46-0.38h3.78c0.24,0,0.41,0.11,0.46,0.38l4.52,20.92
			c0.05,0.3-0.06,0.46-0.38,0.46H103.25z M99.63,72.23l-1.74,9.49h3.48L99.63,72.23z"/>
		<path class="st0" d="M121.93,67.47c0.27,0,0.44,0.16,0.44,0.44V88.8c0,0.27-0.16,0.44-0.44,0.44h-2.69
			c-0.25,0-0.41-0.11-0.49-0.35l-4.16-11.61h-0.14V88.8c0,0.27-0.14,0.44-0.44,0.44h-2.83c-0.27,0-0.44-0.16-0.44-0.44V67.91
			c0-0.27,0.16-0.44,0.44-0.44h2.69c0.25,0,0.41,0.11,0.49,0.35l4.13,11.56h0.16V67.91c0-0.27,0.14-0.44,0.43-0.44H121.93z"/>
		<path class="st0" d="M127.16,67.91c0-0.27,0.14-0.44,0.44-0.44h6.53c2.56,0,3.91,1.39,3.91,3.95v13.89c0,2.56-1.36,3.92-3.91,3.92
			h-6.53c-0.3,0-0.44-0.14-0.44-0.44V67.91z M133.36,85.64c0.71,0,1.09-0.35,1.09-1.08V72.17c0-0.73-0.38-1.11-1.09-1.11h-2.5v14.57
			H133.36z"/>
		<path class="st0" d="M154,67.47c0.27,0,0.44,0.16,0.44,0.44V88.8c0,0.27-0.16,0.44-0.44,0.44h-2.69c-0.25,0-0.41-0.11-0.49-0.35
			l-4.16-11.61h-0.14V88.8c0,0.27-0.14,0.44-0.44,0.44h-2.83c-0.27,0-0.44-0.16-0.44-0.44V67.91c0-0.27,0.16-0.44,0.44-0.44h2.69
			c0.25,0,0.41,0.11,0.49,0.35l4.13,11.56h0.16V67.91c0-0.27,0.14-0.44,0.43-0.44H154z"/>
		<path class="st0" d="M169.45,89.23c-0.25,0-0.38-0.14-0.44-0.39l-0.76-3.97h-4.84l-0.73,3.97c-0.06,0.25-0.19,0.39-0.44,0.39
			h-2.91c-0.3,0-0.44-0.16-0.35-0.46l4.51-20.92c0.06-0.27,0.22-0.38,0.46-0.38h3.78c0.25,0,0.41,0.11,0.46,0.38l4.52,20.92
			c0.05,0.3-0.06,0.46-0.38,0.46H169.45z M165.83,72.23l-1.74,9.49h3.48L165.83,72.23z"/>
		<path class="st0" d="M191.64,67.47c0.35,0,0.55,0.19,0.55,0.54v20.67c0,0.35-0.19,0.54-0.55,0.54h-2.53
			c-0.35,0-0.55-0.19-0.55-0.54V76.45h-0.19l-2.69,12.29c-0.08,0.33-0.27,0.49-0.6,0.49h-1.33c-0.32,0-0.52-0.16-0.6-0.49
			l-2.69-12.29h-0.19v12.24c0,0.35-0.19,0.54-0.54,0.54h-2.5c-0.35,0-0.54-0.19-0.54-0.54V68.02c0-0.35,0.19-0.54,0.54-0.54h3.59
			c0.32,0,0.51,0.16,0.6,0.48l3.02,13.55l3.02-13.55c0.08-0.32,0.27-0.48,0.6-0.48H191.64z"/>
		<path class="st0" d="M207.82,70.63c0,0.27-0.11,0.46-0.44,0.46h-6.8v5.44h5.2c0.27,0,0.44,0.16,0.44,0.46v2.69
			c0,0.3-0.16,0.47-0.44,0.47h-5.2v5.49h6.8c0.33,0,0.44,0.14,0.44,0.44v2.72c0,0.27-0.11,0.44-0.44,0.44h-10.01
			c-0.24,0-0.41-0.16-0.41-0.44V67.91c0-0.27,0.16-0.44,0.41-0.44h10.01c0.33,0,0.44,0.16,0.44,0.44V70.63z"/>
	</g>
	<g>
		<g>
			<path class="st3" d="M80.52,106.86h-0.6v-3.85h0.6v1.65h0.69v-1.65h0.61v3.85h-0.61v-1.64h-0.69V106.86z"/>
			<path class="st3" d="M86.04,106.86h-0.61l-0.11-0.7h-0.74l-0.1,0.7h-0.56l0.61-3.85h0.89L86.04,106.86z M84.66,105.65h0.58
				l-0.29-1.95L84.66,105.65z"/>
			<path class="st3" d="M88.68,104.08v2.79h-0.54v-3.85h0.76l0.62,2.3v-2.3h0.54v3.85h-0.62L88.68,104.08z"/>
			<path class="st3" d="M92.31,103.02h0.95c0.6,0,0.9,0.34,0.9,0.95v1.94c0,0.62-0.3,0.95-0.9,0.95h-0.95V103.02z M92.91,103.57
				v2.75h0.34c0.19,0,0.31-0.1,0.31-0.37v-2c0-0.28-0.11-0.38-0.31-0.38H92.91z"/>
			<path class="st3" d="M98.12,105.43v0.51c0,0.62-0.31,0.96-0.9,0.96c-0.59,0-0.9-0.35-0.9-0.96v-2c0-0.62,0.31-0.97,0.9-0.97
				c0.59,0,0.9,0.35,0.9,0.97v0.37h-0.57v-0.41c0-0.27-0.12-0.38-0.31-0.38c-0.19,0-0.31,0.11-0.31,0.38v2.07
				c0,0.28,0.12,0.38,0.31,0.38c0.19,0,0.31-0.1,0.31-0.38v-0.54H98.12z"/>
			<path class="st3" d="M101.57,106.86c-0.03-0.1-0.06-0.16-0.06-0.48v-0.6c0-0.35-0.12-0.48-0.39-0.48h-0.21v1.56h-0.6v-3.85h0.91
				c0.63,0,0.9,0.3,0.9,0.89v0.3c0,0.39-0.13,0.65-0.39,0.77c0.3,0.13,0.4,0.42,0.4,0.82v0.59c0,0.19,0.01,0.33,0.07,0.47H101.57z
				 M100.91,103.57v1.18h0.24c0.22,0,0.36-0.1,0.36-0.41v-0.38c0-0.27-0.09-0.39-0.31-0.39H100.91z"/>
			<path class="st3" d="M106.29,106.86h-0.61l-0.11-0.7h-0.74l-0.1,0.7h-0.55l0.61-3.85h0.89L106.29,106.86z M104.91,105.65h0.58
				l-0.29-1.95L104.91,105.65z"/>
			<path class="st3" d="M109,104.73h0.78v0.55H109v1.59h-0.6v-3.85h1.6v0.55H109V104.73z"/>
			<path class="st3" d="M111.93,103.02h1.87v0.55h-0.63v3.3h-0.6v-3.3h-0.63V103.02z"/>
			<path class="st3" d="M116.48,104.64h0.83v0.55h-0.83v1.13h1.04v0.55h-1.64v-3.85h1.64v0.55h-1.04V104.64z"/>
			<path class="st3" d="M119.72,103.02h0.96c0.6,0,0.9,0.34,0.9,0.95v1.94c0,0.62-0.3,0.95-0.9,0.95h-0.96V103.02z M120.32,103.57
				v2.75h0.34c0.19,0,0.31-0.1,0.31-0.37v-2c0-0.28-0.12-0.38-0.31-0.38H120.32z"/>
		</g>
		<g>
			<path class="st3" d="M147.89,106.86h-0.6v-3.85h0.6v1.65h0.69v-1.65h0.62v3.85h-0.62v-1.64h-0.69V106.86z"/>
			<path class="st3" d="M153.4,106.86h-0.61l-0.11-0.7h-0.74l-0.1,0.7h-0.55l0.62-3.85h0.88L153.4,106.86z M152.03,105.65h0.58
				l-0.29-1.95L152.03,105.65z"/>
			<path class="st3" d="M156.04,104.08v2.79h-0.54v-3.85h0.76l0.62,2.3v-2.3h0.53v3.85h-0.62L156.04,104.08z"/>
			<path class="st3" d="M159.67,103.02h0.96c0.6,0,0.9,0.34,0.9,0.95v1.94c0,0.62-0.3,0.95-0.9,0.95h-0.96V103.02z M160.28,103.57
				v2.75h0.34c0.19,0,0.31-0.1,0.31-0.37v-2c0-0.28-0.12-0.38-0.31-0.38H160.28z"/>
			<path class="st3" d="M165.48,105.43v0.51c0,0.62-0.31,0.96-0.9,0.96s-0.9-0.35-0.9-0.96v-2c0-0.62,0.31-0.97,0.9-0.97
				s0.9,0.35,0.9,0.97v0.37h-0.57v-0.41c0-0.27-0.12-0.38-0.31-0.38s-0.31,0.11-0.31,0.38v2.07c0,0.28,0.12,0.38,0.31,0.38
				s0.31-0.1,0.31-0.38v-0.54H165.48z"/>
			<path class="st3" d="M168.94,106.86c-0.03-0.1-0.05-0.16-0.05-0.48v-0.6c0-0.35-0.12-0.48-0.39-0.48h-0.21v1.56h-0.6v-3.85h0.91
				c0.62,0,0.89,0.3,0.89,0.89v0.3c0,0.39-0.13,0.65-0.39,0.77c0.3,0.13,0.4,0.42,0.4,0.82v0.59c0,0.19,0.01,0.33,0.07,0.47H168.94z
				 M168.28,103.57v1.18h0.23c0.23,0,0.36-0.1,0.36-0.41v-0.38c0-0.27-0.09-0.39-0.3-0.39H168.28z"/>
			<path class="st3" d="M173.65,106.86h-0.61l-0.1-0.7h-0.74l-0.1,0.7h-0.55l0.61-3.85h0.89L173.65,106.86z M172.28,105.65h0.58
				l-0.29-1.95L172.28,105.65z"/>
			<path class="st3" d="M176.36,104.73h0.78v0.55h-0.78v1.59h-0.6v-3.85h1.6v0.55h-0.99V104.73z"/>
			<path class="st3" d="M179.29,103.02h1.87v0.55h-0.63v3.3h-0.6v-3.3h-0.63V103.02z"/>
			<path class="st3" d="M183.85,104.64h0.83v0.55h-0.83v1.13h1.04v0.55h-1.64v-3.85h1.64v0.55h-1.04V104.64z"/>
			<path class="st3" d="M187.08,103.02h0.96c0.6,0,0.9,0.34,0.9,0.95v1.94c0,0.62-0.3,0.95-0.9,0.95h-0.96V103.02z M187.69,103.57
				v2.75h0.34c0.19,0,0.31-0.1,0.31-0.37v-2c0-0.28-0.11-0.38-0.31-0.38H187.69z"/>
		</g>
	</g>
</g>
</svg>
