<?xml version="1.0" encoding="utf-8"?>
<!-- Generator: Adobe Illustrator 23.0.0, SVG Export Plug-In . SVG Version: 6.00 Build 0)  -->
<svg version="1.1" id="Layer_1" xmlns="http://www.w3.org/2000/svg" xmlns:xlink="http://www.w3.org/1999/xlink" x="0px" y="0px"
	 width="270px" height="160px" viewBox="0 0 270 160" style="enable-background:new 0 0 270 160;" xml:space="preserve">
<style type="text/css">
	.st0{fill:#3A3A3A;}
	.st1{fill:#70706F;}
	.st2{fill-rule:evenodd;clip-rule:evenodd;fill:#70706F;}
</style>
<g>
	<g>
		<path class="st0" d="M101.72,52.2c0.18,0.29,0.2,0.55,0.05,0.77l1.02,0.94c0.04,0.04,0.04,0.09-0.01,0.12l-0.45,0.29
			c-0.04,0.02-0.08,0.02-0.11-0.02l-0.99-0.9l-0.3,0.19l0.7,1.08c0.02,0.05,0.02,0.09-0.02,0.11l-0.45,0.29
			c-0.04,0.02-0.08,0.02-0.11-0.03l-2.12-3.29c-0.02-0.04-0.02-0.09,0.03-0.11l1.07-0.69c0.4-0.26,0.76-0.18,1.01,0.21L101.72,52.2z
			 M101,52.74c0.11-0.07,0.13-0.17,0.06-0.29l-0.52-0.8c-0.07-0.11-0.17-0.13-0.28-0.06l-0.43,0.27l0.74,1.15L101,52.74z"/>
		<path class="st0" d="M104.36,49.07c0.02,0.05,0.02,0.09-0.03,0.12l-1.11,0.63l0.5,0.89l0.85-0.48c0.04-0.02,0.09-0.02,0.11,0.03
			l0.25,0.44c0.03,0.05,0.02,0.09-0.03,0.11l-0.85,0.48l0.5,0.9l1.11-0.63c0.06-0.03,0.08-0.02,0.11,0.03l0.25,0.44
			c0.02,0.05,0.02,0.08-0.03,0.11l-1.64,0.92c-0.04,0.02-0.08,0.01-0.1-0.04l-1.91-3.41c-0.03-0.05-0.01-0.09,0.03-0.11l1.63-0.92
			c0.06-0.02,0.09-0.01,0.11,0.03L104.36,49.07z"/>
		<path class="st0" d="M107.43,46.86c0.05-0.02,0.09-0.01,0.11,0.04l0.22,0.45c0.02,0.05,0.01,0.09-0.04,0.11l-0.53,0.26l1.45,2.99
			c0.02,0.05,0.01,0.08-0.04,0.1l-0.48,0.24c-0.04,0.02-0.08,0.01-0.11-0.04l-1.45-2.99l-0.53,0.26c-0.05,0.02-0.09,0.01-0.11-0.04
			l-0.22-0.46c-0.02-0.05-0.01-0.09,0.04-0.11L107.43,46.86z"/>
		<path class="st0" d="M111.85,47.11c0.13,0.32,0.1,0.57-0.09,0.76l0.84,1.1c0.04,0.05,0.02,0.09-0.03,0.11l-0.49,0.21
			c-0.04,0.02-0.08,0-0.1-0.03l-0.81-1.07l-0.33,0.13l0.49,1.19c0.02,0.05,0,0.09-0.04,0.1l-0.49,0.21c-0.05,0.02-0.09,0-0.1-0.05
			l-1.5-3.61c-0.02-0.05,0-0.09,0.04-0.1l1.19-0.49c0.44-0.18,0.77-0.05,0.96,0.4L111.85,47.11z M111.04,47.51
			c0.12-0.06,0.16-0.15,0.11-0.27l-0.37-0.89c-0.05-0.12-0.15-0.16-0.27-0.11l-0.47,0.2l0.52,1.26L111.04,47.51z"/>
		<path class="st0" d="M113.02,45.34c-0.16-0.45,0-0.77,0.45-0.93l0.54-0.19c0.46-0.15,0.78,0.01,0.94,0.46l0.85,2.47
			c0.15,0.45,0,0.78-0.46,0.93l-0.54,0.19c-0.45,0.15-0.78,0-0.93-0.46L113.02,45.34z M115,47.5c0.12-0.04,0.17-0.13,0.12-0.25
			l-0.76-2.23c-0.05-0.13-0.13-0.17-0.26-0.13l-0.28,0.09c-0.13,0.05-0.17,0.13-0.13,0.26l0.77,2.22c0.04,0.13,0.13,0.17,0.26,0.13
			L115,47.5z"/>
		<path class="st0" d="M121.87,46.25c-0.04,0.01-0.08-0.01-0.1-0.05l-0.31-0.7l-0.88,0.21l0.03,0.75c0,0.05-0.02,0.08-0.06,0.09
			l-0.53,0.13c-0.06,0.01-0.09-0.02-0.09-0.07l-0.06-4.01c0-0.06,0.02-0.08,0.07-0.09l0.69-0.16c0.04-0.02,0.08,0,0.1,0.05
			l1.71,3.63c0.02,0.06,0.01,0.09-0.05,0.1L121.87,46.25z M120.5,43.3l0.08,1.82l0.64-0.15L120.5,43.3z"/>
		<path class="st0" d="M125.18,41.49c0.06-0.01,0.11,0.03,0.12,0.09l0.53,3.19c0.08,0.48-0.13,0.77-0.61,0.85l-0.56,0.09
			c-0.47,0.08-0.77-0.13-0.84-0.6l-0.53-3.2c-0.01-0.06,0.03-0.11,0.08-0.12l0.48-0.08c0.06-0.01,0.11,0.03,0.12,0.09l0.51,3.06
			c0.02,0.13,0.1,0.18,0.23,0.17l0.26-0.05c0.13-0.02,0.19-0.1,0.17-0.23l-0.51-3.06c-0.01-0.06,0.03-0.11,0.08-0.12L125.18,41.49z"
			/>
		<path class="st0" d="M129.03,41.02c0.06-0.01,0.08,0.02,0.09,0.07l0.06,0.51c0,0.05-0.02,0.08-0.08,0.09l-0.59,0.06l0.36,3.31
			c0,0.06-0.02,0.08-0.08,0.09l-0.53,0.06c-0.05,0.01-0.08-0.02-0.09-0.07l-0.36-3.31l-0.59,0.06c-0.05,0.01-0.09-0.02-0.09-0.07
			l-0.06-0.51c0-0.05,0.02-0.09,0.08-0.09L129.03,41.02z"/>
		<path class="st0" d="M132.25,40.9c0-0.05,0.03-0.08,0.08-0.09l0.52-0.02c0.06,0,0.09,0.03,0.09,0.08l0.18,3.92
			c0,0.05-0.02,0.08-0.08,0.08l-0.52,0.02c-0.05,0.01-0.08-0.02-0.09-0.07l-0.07-1.63l-0.65,0.03l0.08,1.62
			c0,0.06-0.03,0.09-0.08,0.09l-0.52,0.02c-0.06,0.01-0.09-0.02-0.09-0.08l-0.18-3.91c0-0.06,0.02-0.09,0.08-0.09l0.52-0.02
			c0.05,0,0.08,0.03,0.09,0.08l0.08,1.62l0.65-0.02L132.25,40.9z"/>
		<path class="st0" d="M136.87,41.38c0,0.05-0.02,0.09-0.08,0.09l-1.27-0.02l-0.01,1.01l0.97,0.02c0.05,0,0.08,0.03,0.08,0.09
			l-0.01,0.5c0,0.06-0.03,0.09-0.08,0.09l-0.97-0.01l-0.02,1.02l1.28,0.02c0.06,0,0.08,0.03,0.08,0.09l-0.01,0.51
			c0,0.05-0.02,0.08-0.08,0.08l-1.87-0.02c-0.05,0-0.08-0.03-0.08-0.08l0.05-3.92c0-0.05,0.03-0.08,0.08-0.08l1.87,0.02
			c0.06,0,0.08,0.03,0.08,0.09L136.87,41.38z"/>
		<path class="st0" d="M140.89,41.01c0.05,0,0.08,0.03,0.07,0.09l-0.29,3.91c0,0.05-0.04,0.08-0.09,0.08l-0.5-0.04
			c-0.04,0-0.08-0.02-0.09-0.07l-0.62-2.24h-0.03l-0.16,2.16c0,0.06-0.03,0.08-0.09,0.08l-0.53-0.04c-0.05,0-0.08-0.04-0.08-0.09
			l0.29-3.91c0-0.06,0.04-0.08,0.09-0.08l0.5,0.04c0.04,0,0.08,0.02,0.09,0.07l0.61,2.22h0.03l0.16-2.15c0-0.05,0.03-0.08,0.09-0.07
			L140.89,41.01z"/>
		<path class="st0" d="M144.71,41.46c0.06,0.01,0.08,0.05,0.07,0.1l-0.07,0.51c-0.01,0.05-0.04,0.08-0.09,0.07l-0.59-0.08l-0.44,3.3
			c-0.01,0.06-0.04,0.08-0.1,0.07l-0.52-0.07c-0.05-0.01-0.08-0.03-0.07-0.09l0.44-3.31l-0.59-0.08c-0.05-0.01-0.08-0.04-0.07-0.09
			l0.07-0.51c0.01-0.06,0.04-0.08,0.09-0.07L144.71,41.46z"/>
		<path class="st0" d="M147.15,41.89c0.05,0.01,0.08,0.05,0.07,0.09l-0.71,3.85c-0.01,0.05-0.05,0.08-0.1,0.06l-0.52-0.1
			c-0.06-0.01-0.08-0.05-0.06-0.09l0.71-3.85c0.01-0.05,0.04-0.07,0.09-0.06L147.15,41.89z"/>
		<path class="st0" d="M150.76,43.99c-0.01,0.06-0.05,0.07-0.09,0.06l-0.5-0.12c-0.06-0.02-0.07-0.05-0.06-0.09l0.09-0.4
			c0.03-0.13-0.02-0.22-0.15-0.25l-0.26-0.06c-0.13-0.03-0.21,0.02-0.25,0.15l-0.53,2.27c-0.03,0.13,0.02,0.21,0.15,0.25l0.26,0.06
			c0.13,0.02,0.21-0.02,0.25-0.16l0.09-0.4c0.01-0.05,0.04-0.07,0.1-0.06l0.5,0.11c0.05,0.02,0.08,0.06,0.06,0.1l-0.13,0.54
			c-0.11,0.47-0.42,0.65-0.88,0.54l-0.55-0.13c-0.47-0.11-0.66-0.42-0.55-0.89l0.6-2.54c0.11-0.47,0.42-0.66,0.89-0.55l0.56,0.13
			c0.46,0.11,0.65,0.42,0.54,0.89L150.76,43.99z"/>
		<path class="st0" d="M156.65,44.45c0.45,0.16,0.61,0.48,0.45,0.94l-0.18,0.52c-0.02,0.05-0.05,0.06-0.1,0.05l-0.5-0.17
			c-0.05-0.02-0.07-0.06-0.05-0.1l0.13-0.38c0.04-0.12,0-0.21-0.13-0.25l-0.23-0.08c-0.12-0.05-0.21,0-0.26,0.12l-0.23,0.67
			l1.02,0.78c0.07,0.06,0.09,0.13,0.06,0.22l-0.39,1.11c-0.15,0.45-0.48,0.61-0.93,0.45l-0.54-0.18c-0.45-0.16-0.61-0.48-0.46-0.94
			l0.18-0.51c0.02-0.06,0.06-0.06,0.1-0.05l0.5,0.17c0.06,0.02,0.07,0.05,0.05,0.1l-0.13,0.36c-0.04,0.13,0.01,0.22,0.13,0.26
			l0.23,0.08c0.13,0.05,0.21,0.01,0.26-0.13l0.22-0.63l-1.01-0.78c-0.08-0.06-0.1-0.13-0.07-0.22l0.39-1.13
			c0.16-0.45,0.49-0.61,0.94-0.45L156.65,44.45z"/>
		<path class="st0" d="M160.74,46.05c0.05,0.02,0.06,0.06,0.04,0.1l-0.19,0.48c-0.02,0.04-0.06,0.06-0.11,0.04l-0.55-0.22
			l-1.27,3.07c-0.02,0.05-0.06,0.06-0.1,0.04l-0.49-0.2c-0.05-0.02-0.07-0.06-0.04-0.11l1.27-3.07l-0.55-0.22
			c-0.05-0.02-0.06-0.06-0.04-0.11l0.19-0.47c0.02-0.05,0.06-0.06,0.11-0.05L160.74,46.05z"/>
		<path class="st0" d="M164.52,47.81c0.07,0.03,0.08,0.09,0.02,0.14l-1.83,1.63l-0.69,1.43c-0.03,0.06-0.08,0.07-0.14,0.05
			l-0.44-0.21c-0.06-0.03-0.08-0.08-0.05-0.13l0.69-1.43l0.15-2.45c0-0.07,0.06-0.1,0.12-0.06l0.46,0.22
			c0.06,0.02,0.08,0.06,0.07,0.13l-0.13,1.56l1.16-1.06c0.04-0.05,0.08-0.06,0.14-0.02L164.52,47.81z"/>
		<path class="st0" d="M165.04,51.95l1.05,0.6c0.05,0.02,0.06,0.06,0.03,0.11l-0.25,0.44c-0.03,0.05-0.06,0.06-0.11,0.03l-1.59-0.9
			c-0.05-0.02-0.06-0.06-0.03-0.11l1.93-3.41c0.02-0.05,0.07-0.06,0.11-0.03l0.46,0.26c0.05,0.02,0.06,0.06,0.03,0.11L165.04,51.95z
			"/>
		<path class="st0" d="M170.78,52.16c-0.03,0.04-0.06,0.06-0.12,0.03l-1.07-0.69l-0.55,0.86l0.82,0.52
			c0.04,0.03,0.05,0.07,0.02,0.12l-0.27,0.43c-0.03,0.04-0.07,0.06-0.11,0.02l-0.82-0.52l-0.55,0.86l1.07,0.69
			c0.06,0.03,0.06,0.06,0.03,0.11l-0.28,0.43c-0.03,0.05-0.06,0.06-0.11,0.02l-1.58-1.01c-0.04-0.02-0.05-0.06-0.02-0.1l2.12-3.3
			c0.02-0.04,0.07-0.05,0.11-0.02l1.58,1.01c0.05,0.03,0.05,0.06,0.02,0.11L170.78,52.16z"/>
	</g>
	<g>
		<path class="st0" d="M102.12,105.67c0.03-0.04,0.07-0.06,0.11-0.02l1.05,0.64c0.41,0.25,0.49,0.6,0.24,1.01l-0.65,1.06
			c-0.25,0.4-0.6,0.5-1.01,0.25l-0.52-0.32l-0.67,1.1c-0.02,0.04-0.06,0.06-0.11,0.02l-0.45-0.28c-0.04-0.03-0.06-0.07-0.03-0.11
			L102.12,105.67z M102.07,107.94c0.12,0.07,0.21,0.04,0.28-0.07l0.5-0.82c0.07-0.11,0.05-0.21-0.06-0.29l-0.38-0.23l-0.72,1.17
			L102.07,107.94z"/>
		<path class="st0" d="M106.22,110.21c-0.16,0.3-0.38,0.44-0.65,0.42l-0.32,1.34c-0.02,0.06-0.06,0.08-0.1,0.05l-0.47-0.25
			c-0.04-0.02-0.06-0.06-0.04-0.1l0.31-1.31l-0.31-0.17l-0.61,1.14c-0.02,0.04-0.07,0.06-0.11,0.03l-0.47-0.25
			c-0.04-0.02-0.06-0.06-0.04-0.11l1.85-3.46c0.02-0.05,0.06-0.06,0.11-0.03l1.13,0.6c0.42,0.22,0.53,0.57,0.3,0.99L106.22,110.21z
			 M105.4,109.84c0.12,0.06,0.21,0.03,0.28-0.08l0.45-0.85c0.06-0.12,0.03-0.21-0.09-0.28l-0.44-0.24l-0.64,1.2L105.4,109.84z"/>
		<path class="st0" d="M110.23,110.59c-0.02,0.05-0.06,0.07-0.11,0.05l-1.16-0.53l-0.42,0.93l0.88,0.4
			c0.05,0.02,0.06,0.06,0.04,0.11l-0.21,0.46c-0.02,0.05-0.06,0.06-0.11,0.04l-0.88-0.4l-0.43,0.94l1.15,0.53
			c0.06,0.02,0.07,0.06,0.04,0.11l-0.21,0.46c-0.02,0.05-0.05,0.06-0.11,0.04l-1.7-0.78c-0.04-0.02-0.06-0.06-0.04-0.11l1.63-3.55
			c0.02-0.05,0.06-0.06,0.1-0.04l1.7,0.78c0.06,0.02,0.06,0.06,0.04,0.11L110.23,110.59z"/>
		<path class="st0" d="M114.57,111.68c0.06,0.02,0.08,0.07,0.06,0.13l-1.38,3.62c-0.02,0.06-0.07,0.08-0.13,0.06l-0.44-0.17
			c-0.06-0.02-0.09-0.07-0.06-0.13l0.82-2.15l-0.03-0.02l-1.29,1.98c-0.04,0.05-0.08,0.06-0.13,0.04l-0.24-0.09
			c-0.06-0.02-0.08-0.06-0.07-0.13l0.35-2.33l-0.04-0.02l-0.81,2.15c-0.02,0.06-0.07,0.08-0.13,0.06l-0.44-0.17
			c-0.06-0.02-0.08-0.06-0.06-0.13l1.38-3.62c0.02-0.06,0.07-0.09,0.13-0.06l0.63,0.24c0.06,0.02,0.08,0.06,0.07,0.13l-0.37,2.58
			l1.43-2.17c0.03-0.06,0.08-0.07,0.13-0.05L114.57,111.68z"/>
		<path class="st0" d="M116.85,112.42c0.05,0.02,0.07,0.06,0.06,0.1l-1.18,3.73c-0.01,0.05-0.05,0.07-0.1,0.06l-0.51-0.17
			c-0.05-0.02-0.07-0.05-0.05-0.09l1.18-3.73c0.02-0.06,0.05-0.07,0.1-0.06L116.85,112.42z"/>
		<path class="st0" d="M120.41,113.41c0.05,0.02,0.09,0.07,0.07,0.12l-0.82,3.15c-0.12,0.46-0.43,0.64-0.9,0.52l-0.55-0.14
			c-0.46-0.12-0.65-0.44-0.53-0.9l0.82-3.14c0.01-0.06,0.07-0.09,0.12-0.08l0.47,0.13c0.06,0.02,0.09,0.07,0.08,0.13l-0.78,3
			c-0.04,0.13,0.02,0.22,0.15,0.25l0.26,0.06c0.13,0.04,0.21-0.01,0.25-0.14l0.78-3c0.01-0.06,0.07-0.09,0.12-0.07L120.41,113.41z"
			/>
		<path class="st0" d="M124.77,114.32c0.06,0.02,0.09,0.06,0.08,0.12l-0.73,3.81c-0.01,0.06-0.05,0.09-0.12,0.09l-0.46-0.1
			c-0.07-0.01-0.1-0.06-0.08-0.12l0.43-2.26h-0.04l-0.93,2.17c-0.03,0.06-0.07,0.08-0.13,0.06l-0.25-0.05
			c-0.06-0.01-0.09-0.05-0.09-0.11l-0.06-2.36l-0.04-0.01l-0.43,2.26c-0.01,0.06-0.06,0.09-0.12,0.08l-0.46-0.09
			c-0.07-0.01-0.09-0.06-0.08-0.12l0.73-3.81c0.01-0.06,0.06-0.1,0.12-0.08l0.66,0.13c0.06,0.02,0.09,0.05,0.09,0.11l0.08,2.61
			l1.03-2.39c0.03-0.06,0.07-0.08,0.13-0.07L124.77,114.32z"/>
		<path class="st0" d="M130.85,116.71c-0.02,0.19-0.16,0.32-0.35,0.33v0.02c0.18,0.04,0.31,0.2,0.29,0.38l-0.08,0.94
			c-0.04,0.48-0.32,0.71-0.8,0.67l-1.22-0.1c-0.05,0-0.08-0.03-0.08-0.09l0.33-3.9c0-0.06,0.04-0.08,0.09-0.07l1.22,0.09
			c0.48,0.04,0.72,0.32,0.68,0.79L130.85,116.71z M130.1,117.56c0.01-0.13-0.05-0.21-0.19-0.22l-0.46-0.03l-0.09,1.02l0.46,0.04
			c0.13,0.01,0.21-0.05,0.22-0.19L130.1,117.56z M130.24,115.86c0.01-0.13-0.05-0.21-0.18-0.21l-0.46-0.04l-0.08,1.02l0.46,0.04
			c0.13,0.01,0.21-0.06,0.22-0.18L130.24,115.86z"/>
		<path class="st0" d="M134.7,117.16c0,0.34-0.14,0.56-0.38,0.67l0.32,1.34c0.02,0.06-0.02,0.09-0.07,0.09l-0.53-0.01
			c-0.05,0-0.08-0.03-0.08-0.07l-0.32-1.31l-0.35-0.01l-0.03,1.28c0,0.06-0.03,0.09-0.08,0.08l-0.53-0.01
			c-0.05,0-0.08-0.03-0.08-0.08l0.08-3.92c0-0.05,0.03-0.08,0.08-0.08l1.28,0.02c0.48,0.02,0.73,0.28,0.72,0.75L134.7,117.16z
			 M133.81,117.2c0.13,0,0.2-0.06,0.21-0.2l0.02-0.96c0-0.13-0.06-0.21-0.2-0.21l-0.5-0.02l-0.03,1.37L133.81,117.2z"/>
		<path class="st0" d="M138.32,119.16c-0.04,0.01-0.07-0.02-0.08-0.06l-0.17-0.74l-0.9,0.03l-0.11,0.75
			c-0.01,0.05-0.03,0.07-0.08,0.07l-0.54,0.02c-0.06,0-0.08-0.03-0.07-0.09l0.69-3.95c0.01-0.06,0.04-0.07,0.08-0.08l0.71-0.02
			c0.04,0,0.08,0.02,0.09,0.07l1,3.88c0.02,0.06-0.01,0.09-0.07,0.09L138.32,119.16z M137.51,116.01l-0.25,1.79l0.65-0.02
			L137.51,116.01z"/>
		<path class="st0" d="M142.4,114.72c0.05,0,0.08,0.02,0.09,0.07l0.4,3.9c0.01,0.06-0.02,0.09-0.07,0.09l-0.5,0.05
			c-0.04,0.01-0.08-0.01-0.1-0.06l-1-2.09h-0.03l0.23,2.16c0,0.05-0.02,0.08-0.08,0.09l-0.53,0.06c-0.05,0.01-0.09-0.02-0.09-0.07
			l-0.4-3.9c0-0.06,0.02-0.09,0.08-0.1l0.5-0.05c0.05-0.01,0.08,0.01,0.1,0.06l1,2.08h0.03l-0.22-2.15c0-0.05,0.02-0.08,0.07-0.09
			L142.4,114.72z"/>
		<path class="st0" d="M144.16,114.57c-0.01-0.05,0.01-0.09,0.07-0.09l1.21-0.2c0.47-0.08,0.77,0.13,0.84,0.61l0.43,2.57
			c0.08,0.48-0.13,0.77-0.6,0.85l-1.21,0.2c-0.06,0.01-0.08-0.01-0.1-0.06L144.16,114.57z M145.85,117.66
			c0.13-0.02,0.19-0.1,0.17-0.24l-0.38-2.29c-0.02-0.13-0.1-0.19-0.23-0.17l-0.46,0.07l0.45,2.7L145.85,117.66z"/>
		<path class="st0" d="M150.2,113.34c-0.01-0.05,0-0.09,0.06-0.09l1.19-0.33c0.46-0.13,0.78,0.06,0.9,0.52l0.69,2.52
			c0.13,0.46-0.05,0.78-0.52,0.9l-1.18,0.33c-0.05,0.01-0.08-0.01-0.1-0.06L150.2,113.34z M152.21,116.24
			c0.13-0.03,0.18-0.11,0.14-0.25l-0.61-2.24c-0.04-0.13-0.12-0.18-0.25-0.14l-0.46,0.12l0.73,2.64L152.21,116.24z"/>
		<path class="st0" d="M155.86,112.15c0.02,0.05,0.01,0.09-0.05,0.11l-1.2,0.41l0.33,0.96l0.92-0.31c0.05-0.02,0.09,0,0.11,0.06
			l0.16,0.48c0.02,0.06,0,0.09-0.05,0.11l-0.92,0.31l0.33,0.98l1.21-0.41c0.06-0.02,0.09,0,0.1,0.05l0.16,0.48
			c0.02,0.05,0.01,0.09-0.05,0.1l-1.78,0.6c-0.04,0.02-0.08,0-0.1-0.05l-1.26-3.71c-0.02-0.05,0-0.09,0.05-0.1l1.78-0.6
			c0.06-0.02,0.09,0,0.1,0.05L155.86,112.15z"/>
		<path class="st0" d="M158.31,110.56c0.44-0.17,0.78-0.04,0.96,0.4l0.2,0.5c0.02,0.05,0,0.09-0.04,0.11l-0.49,0.2
			c-0.05,0.02-0.09,0-0.11-0.05l-0.15-0.36c-0.05-0.13-0.14-0.17-0.27-0.11l-0.23,0.09c-0.12,0.05-0.16,0.14-0.11,0.27l0.27,0.65
			l1.27-0.09c0.09,0,0.16,0.03,0.2,0.13l0.44,1.09c0.18,0.44,0.04,0.78-0.4,0.96l-0.53,0.21c-0.44,0.18-0.78,0.04-0.96-0.4
			l-0.2-0.49c-0.02-0.06,0-0.09,0.04-0.11l0.49-0.2c0.05-0.02,0.09-0.01,0.11,0.05l0.15,0.36c0.05,0.13,0.15,0.16,0.27,0.11
			l0.23-0.1c0.12-0.05,0.16-0.13,0.11-0.26l-0.26-0.63l-1.27,0.09c-0.09,0.01-0.16-0.03-0.2-0.12l-0.45-1.12
			c-0.18-0.44-0.04-0.78,0.4-0.96L158.31,110.56z"/>
		<path class="st0" d="M161.07,109.35c0.05-0.02,0.09-0.01,0.11,0.03l1.65,3.54c0.02,0.05,0.01,0.09-0.04,0.11l-0.48,0.22
			c-0.05,0.02-0.09,0.01-0.11-0.04l-1.65-3.54c-0.02-0.04-0.01-0.08,0.04-0.1L161.07,109.35z"/>
		<path class="st0" d="M163,109.21c-0.23-0.42-0.12-0.77,0.3-0.99l0.59-0.32c0.42-0.23,0.77-0.13,0.99,0.3l0.25,0.47
			c0.02,0.05,0.01,0.09-0.04,0.11l-0.45,0.24c-0.05,0.02-0.09,0.02-0.11-0.03l-0.18-0.34c-0.06-0.12-0.16-0.15-0.28-0.09l-0.32,0.17
			c-0.12,0.06-0.15,0.16-0.09,0.28l1.09,2.05c0.07,0.12,0.16,0.14,0.28,0.09l0.33-0.17c0.12-0.06,0.15-0.16,0.08-0.28l-0.32-0.6
			l-0.23,0.12c-0.05,0.03-0.09,0.02-0.11-0.03l-0.24-0.45c-0.02-0.05-0.02-0.08,0.04-0.11l0.76-0.4c0.04-0.02,0.08-0.02,0.11,0.03
			l0.67,1.25c0.23,0.42,0.11,0.77-0.3,0.99l-0.59,0.32c-0.42,0.23-0.77,0.12-1-0.3L163,109.21z"/>
		<path class="st0" d="M167.77,105.65c0.04-0.03,0.08-0.02,0.11,0.02l2.05,3.35c0.03,0.04,0.02,0.08-0.03,0.11l-0.43,0.26
			c-0.04,0.02-0.08,0.02-0.11-0.01l-1.8-1.45l-0.02,0.02l1.13,1.84c0.03,0.05,0.02,0.09-0.03,0.11l-0.45,0.28
			c-0.04,0.03-0.09,0.02-0.11-0.02l-2.05-3.34c-0.03-0.05-0.02-0.09,0.03-0.12l0.43-0.26c0.04-0.02,0.08-0.02,0.11,0.01l1.8,1.44
			l0.03-0.02l-1.13-1.83c-0.03-0.05-0.02-0.09,0.03-0.11L167.77,105.65z"/>
	</g>
	<path class="st1" d="M193.8,94.9L189.37,80l4.42-14.85c0.02-0.07,0.04-0.14,0.04-0.22c0-0.35-0.29-0.63-0.64-0.63h-8.4V50.56
		c0-1.55-0.42-2.99-1.18-4.21c-0.76-1.23-1.87-2.24-3.27-2.91l-41.86-20.45c-1.13-0.55-2.3-0.83-3.48-0.83s-2.34,0.28-3.48,0.83
		L89.66,43.44c-1.39,0.67-2.51,1.68-3.27,2.91c-0.76,1.22-1.18,2.66-1.18,4.21V64.3h-8.4c-0.06,0-0.12,0.01-0.18,0.02
		c-0.34,0.1-0.53,0.46-0.43,0.79l0,0L80.63,80l-4.42,14.86c-0.02,0.07-0.04,0.14-0.04,0.22c0,0.35,0.29,0.63,0.64,0.63h8.4v13.74
		c0,1.55,0.42,2.99,1.18,4.21c0.76,1.23,1.87,2.23,3.27,2.91l41.86,20.44c1.13,0.55,2.3,0.82,3.48,0.82s2.34-0.28,3.48-0.82
		l41.86-20.44c1.39-0.68,2.51-1.68,3.27-2.91c0.76-1.22,1.18-2.66,1.18-4.21V95.71h8.4c0.06,0,0.12-0.01,0.18-0.02
		C193.71,95.59,193.9,95.23,193.8,94.9L193.8,94.9z M85.97,50.56c0-1.41,0.37-2.71,1.06-3.81c0.69-1.1,1.7-2.01,2.96-2.63
		l41.86-20.44c1.03-0.51,2.09-0.75,3.15-0.75s2.12,0.25,3.14,0.75l41.87,20.44c1.26,0.62,2.27,1.53,2.96,2.63
		c0.69,1.1,1.06,2.4,1.06,3.81V64.3h-1.62V50.56c0-1.09-0.29-2.1-0.82-2.95c-0.53-0.86-1.31-1.55-2.29-2.04l-41.86-20.44
		c-0.8-0.4-1.61-0.59-2.43-0.59s-1.63,0.19-2.43,0.59L90.71,45.57c-0.98,0.48-1.76,1.18-2.29,2.04c-0.54,0.85-0.82,1.85-0.82,2.95
		V64.3h-1.62V50.56z M181.13,50.56V64.3H88.87V50.56c0-0.86,0.22-1.63,0.62-2.28c0.41-0.65,1.01-1.19,1.77-1.56l41.87-20.44
		c0.62-0.3,1.25-0.45,1.87-0.45s1.25,0.15,1.87,0.45l41.87,20.44c0.76,0.37,1.36,0.91,1.77,1.56
		C180.91,48.93,181.13,49.7,181.13,50.56z M184.03,109.45c0,1.4-0.37,2.71-1.06,3.81c-0.69,1.1-1.7,2.01-2.96,2.63l-41.87,20.44
		c-1.03,0.51-2.09,0.75-3.14,0.75s-2.12-0.25-3.15-0.75L89.99,115.9c-1.26-0.62-2.27-1.53-2.96-2.63c-0.69-1.1-1.06-2.41-1.06-3.81
		V95.71h1.62v13.74c0,1.09,0.29,2.1,0.82,2.95c0.53,0.86,1.31,1.55,2.29,2.03l41.86,20.44c0.8,0.4,1.61,0.59,2.43,0.59
		s1.63-0.19,2.43-0.59l41.86-20.44c0.98-0.48,1.76-1.17,2.29-2.03c0.54-0.85,0.82-1.85,0.82-2.95V95.71h1.62V109.45z M88.87,109.45
		V95.71h92.25v13.74c0,0.85-0.22,1.63-0.62,2.28c-0.41,0.65-1.01,1.18-1.77,1.56l-41.87,20.44c-0.62,0.31-1.25,0.46-1.87,0.46
		s-1.25-0.15-1.87-0.46l-41.87-20.44c-0.76-0.38-1.36-0.91-1.77-1.56C89.09,111.08,88.87,110.31,88.87,109.45z M77.67,94.44
		l4.25-14.25l0,0c0.04-0.13,0.04-0.27-0.01-0.4l-4.23-14.21h114.66l-4.25,14.25l0,0c-0.04,0.13-0.04,0.28,0.01,0.4l4.23,14.22H77.67
		z"/>
	<path class="st2" d="M132.61,59.13c-0.05,0-0.1-0.02-0.14-0.05c-0.08-0.06-0.11-0.17-0.08-0.27l0.87-2.6l-1.97-1.43
		c-0.08-0.06-0.12-0.17-0.09-0.26c0.03-0.1,0.12-0.17,0.23-0.17h2.45l0.9-2.7c0.03-0.09,0.12-0.16,0.23-0.16
		c0.1,0,0.19,0.06,0.23,0.16l0.9,2.7h2.45c0.1,0,0.19,0.06,0.23,0.17c0.03,0.1,0,0.21-0.09,0.26l-1.97,1.43l0.87,2.6
		c0.03,0.1,0,0.21-0.08,0.27c-0.04,0.03-0.09,0.05-0.14,0.05c-0.05,0-0.1-0.02-0.14-0.05L135,57.46l-2.24,1.62
		C132.71,59.11,132.66,59.13,132.61,59.13L132.61,59.13z M145.82,59.13c-0.04,0-0.08-0.02-0.11-0.04c-0.06-0.05-0.09-0.13-0.06-0.21
		l0.68-2.05l-1.55-1.12c-0.07-0.05-0.09-0.13-0.07-0.21c0.02-0.08,0.1-0.13,0.18-0.13h1.93l0.71-2.13c0.02-0.07,0.1-0.13,0.18-0.13
		c0.08,0,0.15,0.06,0.18,0.13l0.71,2.13h1.93c0.08,0,0.15,0.05,0.18,0.13c0.03,0.08,0,0.17-0.07,0.21l-1.55,1.12l0.68,2.05
		c0.02,0.07,0,0.16-0.06,0.21c-0.04,0.02-0.08,0.04-0.11,0.04c-0.04,0-0.08-0.02-0.11-0.04l-1.77-1.27l-1.77,1.27
		C145.89,59.11,145.85,59.13,145.82,59.13L145.82,59.13z M120.43,59.13c-0.04,0-0.08-0.02-0.11-0.04c-0.06-0.05-0.09-0.13-0.06-0.21
		l0.68-2.05l-1.55-1.12c-0.07-0.05-0.1-0.13-0.07-0.21c0.02-0.08,0.09-0.13,0.18-0.13h1.93l0.71-2.13c0.02-0.07,0.1-0.13,0.18-0.13
		c0.08,0,0.15,0.06,0.18,0.13l0.71,2.13h1.93c0.08,0,0.15,0.05,0.18,0.13c0.03,0.08,0,0.17-0.07,0.21l-1.55,1.12l0.68,2.05
		c0.03,0.07,0,0.16-0.06,0.21c-0.04,0.02-0.08,0.04-0.11,0.04c-0.04,0-0.08-0.02-0.11-0.04l-1.77-1.27l-1.77,1.27
		C120.5,59.11,120.46,59.13,120.43,59.13z"/>
	<g>
		<path class="st0" d="M96.35,76.19v2.16c0,2.66-1.28,4.11-3.9,4.11h-1.24v6.25H88.6V72.08h3.85
			C95.07,72.08,96.35,73.53,96.35,76.19z M91.22,74.46v5.63h1.24c0.83,0,1.28-0.37,1.28-1.56v-2.5c0-1.19-0.45-1.57-1.28-1.57H91.22
			z"/>
		<path class="st0" d="M107.06,88.72c-0.14-0.43-0.24-0.69-0.24-2.05v-2.62c0-1.55-0.52-2.12-1.71-2.12h-0.9v6.78h-2.62V72.08h3.95
			c2.71,0,3.87,1.26,3.87,3.83v1.31c0,1.71-0.55,2.82-1.71,3.37c1.31,0.55,1.74,1.81,1.74,3.54v2.57c0,0.81,0.02,1.4,0.29,2.02
			H107.06z M104.21,74.46v5.11h1.02c0.97,0,1.57-0.43,1.57-1.76v-1.64c0-1.19-0.4-1.71-1.33-1.71H104.21z"/>
		<path class="st0" d="M117.8,79.1h3.59v2.37h-3.59v4.88h4.51v2.38h-7.13V72.08h7.13v2.38h-4.51V79.1z"/>
		<path class="st0" d="M131.47,71.89c2.54,0,3.85,1.52,3.85,4.19v0.52h-2.47v-0.69c0-1.19-0.48-1.64-1.31-1.64
			c-0.83,0-1.3,0.45-1.3,1.64c0,3.42,5.11,4.07,5.11,8.82c0,2.66-1.33,4.19-3.9,4.19c-2.56,0-3.9-1.52-3.9-4.19V83.7h2.47v1.19
			c0,1.19,0.52,1.62,1.35,1.62c0.83,0,1.36-0.43,1.36-1.62c0-3.42-5.11-4.07-5.11-8.82C127.62,73.41,128.93,71.89,131.47,71.89z"/>
		<path class="st0" d="M140.12,72.08h8.08v2.38h-2.73v14.26h-2.62V74.46h-2.73V72.08z"/>
		<path class="st0" d="M153.37,72.08h2.62v16.64h-2.62V72.08z"/>
		<path class="st0" d="M165.84,79.45h3.66v5.27c0,2.66-1.33,4.19-3.9,4.19c-2.57,0-3.9-1.52-3.9-4.19v-8.65
			c0-2.66,1.33-4.19,3.9-4.19c2.56,0,3.9,1.52,3.9,4.19v1.62h-2.47v-1.78c0-1.19-0.52-1.64-1.36-1.64c-0.83,0-1.36,0.45-1.36,1.64
			v8.98c0,1.19,0.52,1.62,1.36,1.62c0.83,0,1.36-0.43,1.36-1.62v-3.07h-1.19V79.45z"/>
		<path class="st0" d="M177.83,79.1h3.59v2.37h-3.59v4.88h4.51v2.38h-7.13V72.08h7.13v2.38h-4.51V79.1z"/>
	</g>
	<g>
		<path class="st1" d="M122.59,102.22c0.38,0.35,0.57,0.84,0.57,1.46c0,0.63-0.19,1.12-0.56,1.48c-0.37,0.36-0.94,0.55-1.71,0.55
			h-1.38v-4.01h1.42C121.65,101.7,122.21,101.87,122.59,102.22z M121.93,104.61c0.22-0.21,0.33-0.51,0.33-0.9
			c0-0.4-0.11-0.7-0.33-0.91c-0.22-0.21-0.55-0.32-1.01-0.32h-0.5v2.44h0.57C121.39,104.92,121.71,104.81,121.93,104.61z"/>
		<path class="st1" d="M128.78,101.7v0.79h-2v0.83h1.8v0.76h-1.8v0.83h2.07v0.79h-2.96v-4.01H128.78z"/>
		<path class="st1" d="M132.52,102.5c-0.09,0.07-0.13,0.16-0.13,0.28c0,0.12,0.05,0.21,0.16,0.28c0.1,0.07,0.35,0.15,0.73,0.25
			c0.38,0.09,0.67,0.24,0.89,0.42c0.21,0.19,0.31,0.47,0.31,0.82c0,0.36-0.13,0.65-0.4,0.87c-0.27,0.23-0.63,0.34-1.07,0.34
			c-0.63,0-1.21-0.24-1.72-0.71l0.53-0.66c0.43,0.38,0.83,0.57,1.2,0.57c0.17,0,0.3-0.04,0.39-0.11c0.09-0.07,0.14-0.17,0.14-0.29
			c0-0.12-0.05-0.21-0.15-0.29c-0.1-0.07-0.3-0.14-0.59-0.21c-0.47-0.11-0.81-0.25-1.03-0.44c-0.21-0.17-0.33-0.46-0.33-0.84
			c0-0.38,0.14-0.67,0.41-0.88c0.27-0.21,0.61-0.31,1.03-0.31c0.27,0,0.53,0.05,0.8,0.13c0.27,0.1,0.5,0.22,0.7,0.4l-0.45,0.65
			c-0.35-0.26-0.71-0.4-1.08-0.4C132.72,102.39,132.61,102.43,132.52,102.5z"/>
		<path class="st1" d="M137.19,101.7h0.9v4.01h-0.9V101.7z"/>
		<path class="st1" d="M143.63,103.66h0.9v1.43c-0.4,0.44-0.95,0.67-1.65,0.67c-0.59,0-1.09-0.2-1.49-0.59
			c-0.4-0.39-0.6-0.89-0.6-1.48c0-0.59,0.2-1.09,0.61-1.49c0.41-0.4,0.9-0.59,1.47-0.59c0.58,0,1.08,0.19,1.51,0.57l-0.47,0.67
			c-0.18-0.15-0.35-0.26-0.5-0.32c-0.15-0.06-0.32-0.09-0.49-0.09c-0.34,0-0.63,0.12-0.86,0.35c-0.24,0.23-0.35,0.54-0.35,0.92
			c0,0.38,0.11,0.68,0.34,0.91c0.22,0.22,0.49,0.34,0.8,0.34c0.31,0,0.57-0.06,0.78-0.18V103.66z"/>
		<path class="st1" d="M150.08,101.7h0.9v4.01h-0.9l-1.91-2.51v2.51h-0.9v-4.01h0.84l1.97,2.58V101.7z"/>
	</g>
</g>
</svg>
