<?xml version="1.0" encoding="utf-8"?>
<!-- Generator: Adobe Illustrator 23.0.1, SVG Export Plug-In . SVG Version: 6.00 Build 0)  -->
<svg version="1.1" id="Layer_1" xmlns="http://www.w3.org/2000/svg" xmlns:xlink="http://www.w3.org/1999/xlink" x="0px" y="0px"
	 width="270px" height="160px" viewBox="0 0 270 160" style="enable-background:new 0 0 270 160;" xml:space="preserve">
<style type="text/css">
	.st0{fill:#58595B;}
</style>
<g>
	<g>
		<path class="st0" d="M73,95.4c-0.8,1.2-1.7,2.1-2.5,2.6c-0.8,0.6-1.9,0.8-3.2,0.8c-1.5,0-2.7-0.5-3.6-1.3S62,95.1,61.5,93
			l-1.2-5.4c-0.5-1.9-0.8-3.3-1.2-4.4c-0.4-1-0.9-1.9-1.7-2.4c-0.7-0.6-1.9-0.9-3.2-0.9h-5.1v12.4c0,1.4,0.1,2.3,0.3,3
			s0.6,1,1.2,1.2c0.6,0.2,1.6,0.4,2.9,0.5v1.1c-1.7-0.1-3.9-0.2-6.9-0.2c-3.1,0-5.4,0.1-6.9,0.2V97c1.3-0.1,2.2-0.2,2.9-0.5
			c0.6-0.2,1-0.6,1.2-1.2c0.2-0.6,0.3-1.6,0.3-3V65.6c0-1.4-0.1-2.3-0.3-3c-0.2-0.6-0.6-1-1.2-1.2c-0.6-0.2-1.6-0.4-2.9-0.5v-1.1
			c1.5,0.1,3.7,0.2,6.6,0.2l5.8-0.1c0.6,0,1.5-0.1,2.3-0.1c4.2,0,7.4,0.8,9.6,2.6c2.2,1.8,3.3,4,3.3,6.8c0,1.4-0.4,2.8-1,4.3
			c-0.6,1.4-1.8,2.7-3.3,3.8c-1.6,1.1-3.6,1.9-6.1,2.3l0.6,0.1c2.4,0.4,4.1,1.1,5.2,2.1c1.1,1,1.9,2.7,2.4,4.9l1.4,5.5
			c0.4,1.7,0.7,2.8,1.1,3.4c0.4,0.6,0.9,0.9,1.6,0.9s1.1-0.2,1.6-0.5c0.4-0.4,0.9-0.8,1.4-1.6L73,95.4z M50.6,61.3
			c-0.6,0.3-0.9,0.7-1.2,1.4c-0.2,0.6-0.3,1.6-0.3,2.9v13.3h3.6c3.5,0,6-0.8,7.3-2.4c1.3-1.6,2-3.8,2-6.6c0-3-0.7-5.2-2.1-6.7
			c-1.4-1.5-3.7-2.2-6.9-2.2C52,61,51.1,61.1,50.6,61.3z"/>
		<path class="st0" d="M97.3,91.6c-0.6,1.9-1.9,3.7-3.6,5.1s-3.9,2.1-6.4,2.1c-2.6,0-4.7-0.6-6.7-1.8c-1.9-1.2-3.3-2.8-4.3-4.9
			c-0.9-2.1-1.5-4.5-1.5-7.3c0-3.2,0.5-5.8,1.5-8.2c1-2.3,2.4-4.1,4.3-5.3c1.9-1.2,4-1.9,6.4-1.9c3.2,0,5.8,1,7.5,3s2.6,4.9,2.6,8.9
			H80.3c-0.1,1-0.2,2.1-0.2,3.4c0,2.4,0.4,4.5,1.2,6.2c0.7,1.8,1.8,3.2,3.1,4.1s2.6,1.4,4,1.4c1.8,0,3.2-0.4,4.5-1.2
			s2.4-2.2,3.3-4.2L97.3,91.6z M82.5,73c-1.2,1.7-1.9,4.1-2.2,7.3h11.8c0.1-2.8-0.4-5.1-1.2-7c-0.8-1.9-2.2-2.8-3.9-2.8
			C85.1,70.6,83.7,71.4,82.5,73z"/>
		<path class="st0" d="M143.4,89.3l-1.4,3.9c-1.3,3.7-3.7,5.6-7.3,5.6c-2,0-3.5-0.6-4.4-1.9c-0.4-0.6-0.6-1.4-0.6-2.4
			c0-1.2,0.3-2.6,0.8-4.2l4.8-14.6c0.3-0.9,0.5-1.7,0.5-2.1c0-0.7-0.3-1.1-0.7-1.1c-1.5,0-3.2,1.8-5.3,5.3c-2,3.5-4.2,8.7-6.2,15.5
			v-0.2l-1.4,5h-7.7l6.6-22.4c0.3-0.9,0.5-1.7,0.5-2.2c0-0.6-0.3-1-0.8-1c-1.6,0-3.4,1.9-5.5,5.6s-4,8.6-5.8,14.7v-0.1l-1.4,5.5
			h-7.6l6.6-23.3c0.2-0.6,0.3-1.1,0.3-1.6c0-0.7-0.3-1.1-0.9-1.1s-1.2,0.4-1.8,1c-0.6,0.6-1.1,1.8-1.7,3.2l-1,2.8h-1l1.5-4.1
			c0.7-1.9,1.8-3.4,3-4.3c1.3-0.8,2.7-1.3,4.3-1.3s2.7,0.4,3.3,1.2s1,1.9,1,3.2c0,0.9-0.2,2-0.5,3.2l-1.2,4.6
			c1.8-4.4,3.5-7.5,5.4-9.4c1.9-1.9,4.1-2.8,6.7-2.8c2.9,0,4.3,1.4,4.3,4.2c0,1-0.2,2.3-0.6,3.9l-0.9,3.4c1.8-4.3,3.6-7.3,5.5-9
			c1.9-1.8,4-2.6,6.4-2.6c1.5,0,2.6,0.4,3.3,1.1c0.7,0.7,1.1,1.8,1.1,3.1c0,1.2-0.3,2.5-0.7,3.9l-5.3,16c-0.2,0.6-0.3,1.2-0.3,1.6
			c0,0.7,0.4,1.1,1,1.1c1.2,0,2.3-1.4,3.4-4.3l0.9-2.6C142.6,89.3,143.4,89.3,143.4,89.3z"/>
		<path class="st0" d="M172.6,89.3h1l-1.4,3.9c-0.7,2-1.8,3.4-3,4.3c-1.3,0.8-2.7,1.3-4.1,1.3c-1.9,0-3.2-0.6-4-1.7
			c-0.5-0.6-0.7-1.6-0.7-2.7c0-0.9,0.2-2,0.5-3.2c-1.2,2.7-2.6,4.5-4.1,5.8c-1.5,1.2-3.2,1.8-4.9,1.8c-1.9,0-3.4-0.6-4.5-1.8
			c-1-1.2-1.6-2.8-1.6-4.9c0-3.2,0.8-6.6,2.6-10.2c1.7-3.6,3.9-6.6,6.5-9c2.6-2.4,5.2-3.6,7.7-3.6c0.9,0,1.8,0.3,2.3,0.8
			c0.6,0.6,0.9,1.5,1,2.6l0.7-2.7c2.9,0,5.5-0.3,7.8-0.8l-7,24.3c-0.2,0.6-0.3,1.1-0.3,1.5c0,0.8,0.4,1.2,1,1.2
			c1.3,0,2.4-1.4,3.3-4.3L172.6,89.3z M165.3,75c0-0.2,0.1-0.5,0.1-0.8c0-0.9-0.2-1.6-0.5-2c-0.3-0.5-0.7-0.7-1.4-0.7
			c-1.2,0-2.6,1.1-4.2,3.2c-1.6,2.1-2.9,4.9-4,8.3c-1.1,3.3-1.7,6.5-1.7,9.6c0,1.2,0.1,2,0.4,2.6c0.3,0.6,0.6,0.7,1.1,0.7
			c0.8,0,1.7-0.6,2.6-1.7c0.9-1.1,1.9-2.7,2.9-4.7c0.9-2,1.8-4.5,2.5-7.3l-0.3,1.3L165.3,75z"/>
		<path class="st0" d="M201.6,70.6c0.7,0.8,1.2,1.9,1.2,3.2c0,1.6-0.5,2.9-1.5,4c-1,1.1-2.2,1.7-3.6,1.7c-1,0-1.9-0.3-2.4-0.8
			c-0.6-0.6-0.8-1.4-0.8-2.4c0-1.3,0.5-2.4,1.3-3.4c0.8-1,1.9-1.7,3.2-1.9c-0.1,0-0.2,0-0.3-0.1c-0.2-0.1-0.3-0.1-0.4-0.1
			c-1.9,0-3.7,1.3-5.6,4c-1.9,2.7-3.8,7.4-5.8,14.3l-2.4,9.2h-7.7l6.6-23.3c0.2-0.6,0.3-1.1,0.3-1.7c0-0.6-0.3-1-0.8-1
			c-0.6,0-1.3,0.3-1.9,0.9s-1.1,1.8-1.7,3.2l-1,2.8h-1l1.5-4.1c1.3-3.7,3.8-5.6,7.4-5.6c2.8,0,4.2,1.5,4.2,4.4c0,1-0.2,2.1-0.5,3.2
			l-0.5,1.8c1.3-3.4,2.7-5.8,4.1-7.2c1.4-1.4,3.1-2,5-2C199.8,69.4,200.9,69.9,201.6,70.6z"/>
		<path class="st0" d="M229.1,70.8c0.8,0.9,1.3,2,1.3,3.5c0,1.4-0.4,2.5-1.2,3.4c-0.8,0.9-1.9,1.4-3.2,1.4c-1.1,0-1.9-0.3-2.5-0.8
			c-0.6-0.6-0.9-1.3-0.9-2.1c0-1.1,0.4-2,1-3c0.6-0.8,1.5-1.6,2.5-2.1c-0.2-0.3-0.5-0.5-0.8-0.5c-0.8,0-1.6,0.3-2.2,0.8
			c-0.5,0.4-0.8,0.9-1.1,1.5c-0.3,0.6-0.7,1.5-1.2,2.7c-0.7,1.9-1.5,3.3-2.3,4.5c-0.8,1.1-2,1.9-3.5,2.3c6,0.2,9,2.1,9,5.8
			c0,0.6-0.1,1.1-0.2,1.8l-0.8,4c-0.1,0.5-0.2,0.8-0.2,1.2c0,0.4,0.1,0.6,0.3,0.8c0.2,0.2,0.4,0.3,0.7,0.3c1.2,0,2.3-1.4,3.2-4.3
			l0.9-2.6h1l-1.4,3.9c-1.3,3.7-3.9,5.6-7.8,5.6c-1.5,0-2.5-0.4-3.3-1.1c-0.8-0.7-1.1-1.8-1.1-3.2c0-0.7,0.1-1.4,0.2-2l0.9-4.2
			c0.2-0.8,0.3-1.6,0.3-2.2c0-1-0.3-1.9-0.9-2.4c-0.6-0.6-1.7-0.9-3.2-1.1L208,98.1h-7.6l10.7-36c0.2-0.6,0.3-1.1,0.3-1.5
			c0-0.7-0.3-1.2-0.8-1.6c-0.6-0.3-1.5-0.5-2.9-0.5l0.3-1.1c2.5,0,4.7-0.3,6.8-0.6c2-0.4,3.9-0.9,5.8-1.6L212.7,82
			c1.3-0.2,2.4-0.6,3.2-1.3c0.8-0.6,1.5-1.4,1.9-2.2c0.5-0.8,0.9-1.9,1.5-3.2c0.4-1.1,0.7-2,1.1-2.7c0.4-0.7,0.8-1.3,1.4-1.8
			c1-0.8,2.1-1.2,3.3-1.2C226.9,69.4,228.2,69.9,229.1,70.8z"/>
	</g>
</g>
</svg>
