<svg xmlns="http://www.w3.org/2000/svg" xmlns:xlink="http://www.w3.org/1999/xlink" version="1.1" id="Layer_1" x="0px" y="0px" width="270px" height="160px" viewBox="0 0 270 160" style="enable-background:new 0 0 270 160;" xml:space="preserve">
<style type="text/css">
	.st0{fill:#58595B;}
	.st1{fill:#808184;}
	.st2{fill:#6D6E70;}
</style>
<g id="XMLID_65_">
	<g id="XMLID_41_">
		<rect id="XMLID_7_" x="39.3" y="92" class="st0" width="20" height="20"/>
		<rect id="XMLID_6_" x="39.3" y="52" class="st1" width="20" height="20"/>
		<rect id="XMLID_5_" x="19.3" y="72" class="st2" width="20" height="20"/>
	</g>
	<g>
		<path class="st0" d="M84.1,93.4c-2.2-2.2-3.3-5.2-3.4-9.1l-0.1-2.2l0.1-2.2c0.1-3.9,1.2-7,3.4-9.1c2.2-2.2,5.2-3.3,9-3.3    c2.6,0,4.8,0.5,6.5,1.4c1.8,0.9,3.1,2.1,4,3.4c0.9,1.4,1.4,2.7,1.4,4.1c0,0.3-0.1,0.6-0.3,0.9c-0.3,0.3-0.6,0.4-0.9,0.4h-2.4    c-0.4,0-0.6-0.1-0.8-0.2s-0.4-0.5-0.5-0.9c-0.6-1.8-1.5-3-2.7-3.7c-1.1-0.7-2.6-1.1-4.3-1.1c-2.3,0-4.1,0.7-5.4,2.1    s-2,3.5-2.2,6.4l-0.1,1.9l0.1,1.9c0.1,2.9,0.8,5,2.2,6.4c1.3,1.4,3.1,2.1,5.4,2.1c1.8,0,3.2-0.4,4.3-1.1c1.1-0.7,2-2,2.6-3.7    c0.2-0.4,0.4-0.7,0.5-0.9c0.2-0.2,0.4-0.2,0.8-0.2h2.4c0.3,0,0.6,0.1,0.9,0.4s0.4,0.5,0.3,0.9c-0.1,1.3-0.5,2.7-1.4,4    c-0.9,1.4-2.2,2.5-4,3.4s-4,1.4-6.5,1.4C89.3,96.6,86.3,95.5,84.1,93.4z"/>
		<path class="st0" d="M113.8,93.3c-2.1-2.2-3.3-5.2-3.4-8.9l-0.1-2.3l0.1-2.3c0.1-3.7,1.3-6.7,3.5-8.9c2.2-2.2,5.2-3.3,9.1-3.3    s6.9,1.1,9.1,3.3c2.2,2.2,3.3,5.2,3.5,8.9c0.1,0.8,0.1,1.6,0.1,2.3c0,0.8,0,1.5-0.1,2.3c-0.1,3.7-1.3,6.7-3.4,8.9    c-2.1,2.2-5.2,3.3-9.1,3.3C119,96.6,115.9,95.5,113.8,93.3z M128.4,90.4c1.3-1.5,2.1-3.5,2.2-6.3c0-0.4,0.1-1,0.1-2s0-1.7-0.1-2    c-0.1-2.7-0.8-4.8-2.2-6.3c-1.3-1.5-3.2-2.2-5.5-2.2s-4.1,0.7-5.5,2.2c-1.3,1.5-2.1,3.5-2.2,6.3l-0.1,2l0.1,2    c0.1,2.7,0.8,4.8,2.2,6.3c1.3,1.5,3.2,2.2,5.5,2.2S127.1,91.9,128.4,90.4z"/>
		<path class="st0" d="M142.8,106c-0.2-0.2-0.4-0.5-0.4-0.9V69.3c0-0.4,0.1-0.7,0.4-0.9c0.2-0.2,0.5-0.3,0.9-0.3h2.3    c0.4,0,0.7,0.1,0.9,0.3c0.2,0.2,0.3,0.5,0.3,0.9v2.4c2.1-2.8,5-4.1,8.9-4.1c3.8,0,6.6,1.2,8.5,3.6s2.9,5.4,3,9.1    c0,0.4,0.1,1,0.1,1.8s0,1.4-0.1,1.8c-0.1,3.7-1.1,6.7-3,9.1s-4.7,3.6-8.5,3.6s-6.8-1.4-8.7-4.1v12.6c0,0.4-0.1,0.7-0.3,0.9    c-0.2,0.2-0.5,0.3-0.9,0.3h-2.4C143.3,106.3,143,106.2,142.8,106z M160.7,90c1.2-1.6,1.8-3.7,1.9-6.4c0-0.4,0.1-0.9,0.1-1.6    c0-6.9-2.6-10.3-7.7-10.3c-2.5,0-4.4,0.8-5.7,2.5s-1.9,3.6-2,5.9c0,0.4-0.1,1.1-0.1,2.1s0,1.7,0.1,2.1c0.1,2.2,0.8,4.1,2.1,5.7    s3.2,2.4,5.6,2.4C157.6,92.4,159.5,91.6,160.7,90z"/>
		<path class="st0" d="M174.3,62.4c-0.2-0.2-0.3-0.5-0.3-0.9v-2.8c0-0.4,0.1-0.7,0.3-0.9c0.2-0.3,0.5-0.4,0.9-0.4h3.2    c0.4,0,0.7,0.1,0.9,0.4c0.3,0.3,0.4,0.6,0.4,0.9v2.8c0,0.4-0.1,0.7-0.4,0.9c-0.3,0.2-0.6,0.3-0.9,0.3h-3.2    C174.9,62.8,174.6,62.7,174.3,62.4z M174.8,95.7c-0.2-0.2-0.3-0.5-0.3-0.9V69.3c0-0.4,0.1-0.7,0.3-0.9c0.2-0.2,0.5-0.4,0.9-0.4    h2.4c0.4,0,0.7,0.1,0.9,0.4c0.2,0.2,0.4,0.5,0.4,0.9v25.5c0,0.4-0.1,0.7-0.4,0.9c-0.2,0.2-0.5,0.3-0.9,0.3h-2.4    C175.3,96.1,175,96,174.8,95.7z"/>
		<path class="st0" d="M185.2,95.8c-0.2-0.2-0.3-0.5-0.3-0.8s0.1-0.7,0.4-1l9.4-12.2l-8.8-11.6c-0.3-0.4-0.4-0.7-0.4-1    s0.1-0.6,0.3-0.8c0.2-0.2,0.5-0.3,0.8-0.3h2.6c0.5,0,1,0.3,1.4,0.9l7.3,9.4l7.3-9.4c0.2-0.3,0.4-0.5,0.6-0.6    c0.2-0.1,0.5-0.2,0.8-0.2h2.5c0.3,0,0.5,0.1,0.8,0.3c0.2,0.2,0.3,0.5,0.3,0.8c0,0.4-0.1,0.7-0.4,1L200.9,82l9.4,12.1    c0.3,0.4,0.4,0.7,0.4,1s-0.1,0.6-0.3,0.8c-0.2,0.2-0.5,0.3-0.8,0.3H207c-0.5,0-1-0.3-1.4-0.8l-7.7-10l-7.7,10    c-0.2,0.3-0.4,0.4-0.6,0.6c-0.2,0.1-0.5,0.2-0.8,0.2h-2.5C185.7,96.1,185.5,96,185.2,95.8z"/>
		<path class="st0" d="M217.8,93.2c-2.2-2.3-3.4-5.4-3.6-9.4l-0.1-1.8l0.1-1.8c0.2-3.9,1.4-7,3.6-9.3c2.2-2.3,5.1-3.4,8.8-3.4    c4,0,7,1.3,9.2,3.8s3.3,5.9,3.3,10.2v1c0,0.4-0.1,0.7-0.4,0.9c-0.2,0.2-0.5,0.3-0.9,0.3h-18.7v0.5c0.1,2.3,0.8,4.3,2.2,6    c1.3,1.7,3.1,2.5,5.3,2.5c1.7,0,3.1-0.3,4.1-1c1.1-0.7,1.9-1.4,2.4-2.1c0.3-0.4,0.6-0.7,0.8-0.8c0.2-0.1,0.5-0.1,0.9-0.1h2.4    c0.3,0,0.6,0.1,0.8,0.3c0.2,0.2,0.3,0.4,0.3,0.7c0,0.8-0.5,1.7-1.5,2.9c-1,1.1-2.3,2.1-4.1,2.9s-3.8,1.2-6.1,1.2    C223,96.6,220,95.5,217.8,93.2z M234.2,80.1v-0.2c0-2.5-0.7-4.6-2-6.1c-1.4-1.6-3.2-2.4-5.5-2.4s-4.2,0.8-5.5,2.4s-2,3.6-2,6.1    v0.2H234.2z"/>
		<path class="st0" d="M246.1,95.7c-0.2-0.2-0.4-0.5-0.4-0.9V59.1c0-0.4,0.1-0.7,0.4-0.9c0.2-0.2,0.5-0.3,0.9-0.3h2.4    c0.4,0,0.7,0.1,0.9,0.4c0.2,0.2,0.4,0.5,0.4,0.9V95c0,0.4-0.1,0.7-0.4,0.9c-0.2,0.2-0.5,0.3-0.9,0.3h-2.5    C246.6,96.1,246.3,96,246.1,95.7z"/>
	</g>
</g>
</svg>