<?xml version="1.0" encoding="utf-8"?>
<!-- Generator: Adobe Illustrator 23.0.0, SVG Export Plug-In . SVG Version: 6.00 Build 0)  -->
<svg version="1.1" id="Layer_1" xmlns="http://www.w3.org/2000/svg" xmlns:xlink="http://www.w3.org/1999/xlink" x="0px" y="0px"
	 width="270px" height="160px" viewBox="0 0 270 160" style="enable-background:new 0 0 270 160;" xml:space="preserve">
<style type="text/css">
	.st0{fill:#58595B;}
</style>
<g>
	<g>
		<path class="st0" d="M50.7,71h-0.9c0.2-0.8,0.3-1.7,0.3-2.5c0-1.7-0.5-3.1-1.5-4.2c-1-1.1-2.6-1.6-4.6-1.6c-1.8,0-3.3,0.5-4.4,1.4
			c-1.1,0.9-1.7,2.3-1.7,4.1c0,1.4,0.4,2.7,1.3,3.9c0.9,1.2,2.2,2.6,4,4.2c1.2,1.1,2.2,2.1,3,2.9c0.8,0.8,1.4,1.8,1.9,2.8
			c0.5,1,0.8,2.1,0.8,3.3c0,1.9-0.5,3.5-1.6,4.7c-1.1,1.3-2.5,2.2-4.1,2.8c-1.7,0.6-3.4,0.9-5.2,0.9c-1.5,0-2.8-0.2-3.7-0.6
			c-0.9-0.4-1.7-0.9-2.5-1.4c-0.5-0.4-1.1-0.7-1.6-0.7c-0.3,0-0.6,0.2-0.9,0.5c-0.2,0.3-0.5,1-0.9,1.8h-0.9c0.5-1.1,0.9-2.4,1.4-4
			c0.4-1.5,1-3.7,1.6-6.4h0.9c-0.3,1.4-0.4,2.4-0.4,3.2c0,2.1,0.6,3.7,1.7,4.9c1.2,1.2,2.9,1.7,5.3,1.7c2,0,3.5-0.4,4.7-1.3
			c1.1-0.9,1.7-2.3,1.7-4.1c0-1.1-0.2-2.1-0.7-3c-0.4-0.9-1-1.7-1.6-2.4c-0.6-0.7-1.5-1.6-2.6-2.7c-1.2-1.1-2.1-2-2.8-2.8
			c-0.7-0.8-1.3-1.7-1.7-2.7c-0.5-1-0.7-2.2-0.7-3.5c0-1.8,0.5-3.3,1.4-4.6c0.9-1.3,2.1-2.2,3.6-2.9c1.5-0.6,3-1,4.6-1
			c1.2,0,2.2,0.1,3.1,0.4s1.7,0.8,2.6,1.4c0.7,0.5,1.2,0.8,1.4,0.8c0.2,0,0.5-0.2,0.7-0.5c0.2-0.4,0.5-0.9,0.8-1.8h0.9
			C52.2,64.8,51.4,67.7,50.7,71z"/>
		<path class="st0" d="M66.4,79.3c-2.6,1.8-5.6,3.2-9,4.3c-0.3,1.4-0.5,2.8-0.5,4.2c0,2.8,1,4.2,3,4.2c2.5,0,4.7-1.4,6.7-4.3
			l0.7,0.3c-0.9,1.6-2.2,3-3.7,4.1c-1.6,1.1-3.2,1.7-5,1.7c-1.8,0-3.2-0.5-4.2-1.6c-1-1-1.5-2.6-1.5-4.5c0-2.2,0.6-4.7,1.9-7.4
			s3-5.1,5.2-7c2.2-1.9,4.6-2.9,7.1-2.9c0.9,0,1.7,0.2,2.3,0.7c0.6,0.5,0.9,1.2,0.9,2.1C70.3,75.5,69,77.5,66.4,79.3z M63.1,72.7
			c-1.1,1.1-2.2,2.5-3.2,4.3c-1,1.8-1.8,3.7-2.3,5.7c2.7-1,4.7-1.9,5.9-2.8c1.1-0.8,1.9-1.9,2.5-3.1c0.6-1.2,0.9-2.5,0.9-3.9
			c0-0.8-0.1-1.3-0.2-1.6c-0.1-0.3-0.3-0.4-0.5-0.4C65.3,71.1,64.2,71.6,63.1,72.7z"/>
		<path class="st0" d="M89.9,71c0.5,0.5,0.7,1.1,0.7,1.8c0,0.9-0.3,1.6-0.9,2.2s-1.3,0.9-2.1,0.9c-0.5,0-0.9-0.1-1.3-0.4
			c-0.3-0.3-0.5-0.7-0.5-1.1c0-0.7,0.2-1.2,0.5-1.7c0.3-0.5,0.8-0.8,1.4-1.1c-0.1-0.1-0.3-0.2-0.5-0.2c-1.6,0-3.3,1.7-5.1,5
			c-1.8,3.4-3.6,7.8-5.2,13.3l-0.9,3.4h-3.8l5.2-18.6c0.2-0.6,0.3-1.2,0.3-1.7c0-0.7-0.3-1-0.9-1c-0.6,0-1.2,0.3-1.8,1
			s-1.1,1.8-1.6,3.4L73,77.9h-0.8l1.1-3.2c1-3,2.8-4.5,5.2-4.5c1.6,0,2.5,0.8,2.5,2.5c0,0.8-0.2,2-0.6,3.6L79,81.8
			c1.6-4.2,3-7.2,4.4-8.9c1.4-1.7,2.9-2.6,4.6-2.6C88.8,70.3,89.4,70.5,89.9,71z"/>
		<path class="st0" d="M90.9,79.6c1-2.6,2.5-4.8,4.4-6.6c1.9-1.8,4.1-2.7,6.6-2.7c1.8,0,3.3,0.6,4.4,1.7c1.1,1.1,1.6,2.8,1.6,5.1
			c0,2.3-0.5,4.7-1.5,7.3c-1,2.6-2.5,4.8-4.4,6.6c-1.9,1.8-4.1,2.7-6.6,2.7c-1.9,0-3.3-0.6-4.4-1.7c-1.1-1.1-1.6-2.8-1.6-5.1
			C89.4,84.7,89.9,82.2,90.9,79.6z M97.5,74c-1.3,1.9-2.4,4.2-3.2,7c-0.8,2.8-1.2,5.5-1.2,8.1c0,1.3,0.2,2.3,0.6,2.9
			c0.4,0.6,1,0.9,1.9,0.9c1.5,0,2.9-0.9,4.2-2.8c1.3-1.9,2.4-4.2,3.2-7c0.8-2.8,1.2-5.5,1.2-8.1c0-1.3-0.2-2.3-0.6-2.9
			c-0.4-0.6-1-0.9-1.9-0.9C100.2,71.1,98.8,72.1,97.5,74z"/>
		<path class="st0" d="M130.7,71.8c0.8,1,1.2,2.5,1.2,4.6c0,2.3-0.5,4.9-1.6,7.6c-1,2.7-2.5,5-4.5,6.9c-1.9,1.9-4.2,2.8-6.7,2.8
			c-0.8,0-1.5-0.2-2.1-0.7c-0.6-0.4-1.1-1.1-1.4-1.8L114,97c-0.1,0.3-0.2,0.7-0.2,1c0,0.8,0.3,1.3,1,1.6c0.6,0.3,1.5,0.5,2.7,0.5
			l-0.3,0.9l-0.9,0c-2.5-0.1-4.1-0.1-4.9-0.1c-0.8,0-2.4,0.1-4.8,0.2l0.3-0.9c1,0,1.8-0.2,2.3-0.6c0.5-0.4,0.8-1.1,1.1-2.1l8.1-28.9
			c-0.9,1.9-1.9,3.6-3,5.1c-1.2,1.5-2.6,3-4.3,4.6l-0.5-0.6c1.4-1.3,2.5-2.5,3.4-3.6c0.9-1,1.8-2.3,2.7-3.8c0.9-1.5,1.8-3.3,2.7-5.5
			l0.2-0.6c1.6-0.1,2.9-0.3,3.9-0.6L119,79.4c1.4-3.2,2.7-5.5,4.1-7c1.3-1.4,2.8-2.2,4.3-2.2C128.8,70.3,129.9,70.8,130.7,71.8z
			 M123.5,89.9c1.4-1.9,2.5-4.3,3.4-7c0.9-2.7,1.3-5.2,1.3-7.5c0-1.2-0.2-2.2-0.5-2.8c-0.4-0.6-0.9-1-1.5-1c-0.8,0-1.8,0.7-2.8,2
			c-1.1,1.3-2.2,3.1-3.3,5.3c-1.1,2.2-2.1,4.7-2.9,7.3l-1.1,3.9c0.3,0.9,0.8,1.6,1.3,2c0.5,0.4,1.1,0.6,1.9,0.6
			C120.7,92.8,122.1,91.8,123.5,89.9z"/>
		<path class="st0" d="M154.6,86.1l-1.1,3.2c-1,3-2.8,4.5-5.2,4.5c-2,0-3-0.9-3-2.7c0-0.9,0.2-2,0.7-3.4l4.1-12.4
			c0.3-0.8,0.4-1.5,0.4-2.2c0-1-0.5-1.5-1.4-1.5c-1.1,0-2.2,0.7-3.4,2c-1.2,1.3-2.5,3.2-3.7,5.7c-1.2,2.4-2.4,5.2-3.5,8.4l-1.6,5.4
			h-3.8l8.6-28.9c0.1-0.5,0.2-0.9,0.2-1.2c0-0.6-0.2-1-0.7-1.3c-0.5-0.3-1.2-0.4-2.3-0.4l0.3-0.9c3,0,5.6-0.6,7.8-1.8l-6.3,21.5
			c1.6-3.5,3.1-6.1,4.7-7.6c1.6-1.5,3.3-2.3,5.1-2.3c2.3,0,3.5,1.1,3.5,3.3c0,0.9-0.2,2-0.7,3.3l-4.2,12.7c-0.2,0.7-0.3,1.2-0.3,1.6
			c0,0.7,0.3,1,1,1c0.6,0,1.1-0.3,1.7-1c0.5-0.6,1.1-1.8,1.7-3.4l0.6-1.6H154.6z"/>
		<path class="st0" d="M159.2,79.6c1-2.6,2.5-4.8,4.4-6.6c1.9-1.8,4.1-2.7,6.6-2.7c1.8,0,3.3,0.6,4.4,1.7c1.1,1.1,1.6,2.8,1.6,5.1
			c0,2.3-0.5,4.7-1.5,7.3c-1,2.6-2.5,4.8-4.4,6.6c-1.9,1.8-4.1,2.7-6.6,2.7c-1.9,0-3.3-0.6-4.4-1.7c-1.1-1.1-1.6-2.8-1.6-5.1
			C157.6,84.7,158.2,82.2,159.2,79.6z M165.7,74c-1.3,1.9-2.4,4.2-3.2,7c-0.8,2.8-1.2,5.5-1.2,8.1c0,1.3,0.2,2.3,0.6,2.9
			c0.4,0.6,1,0.9,1.9,0.9c1.5,0,2.9-0.9,4.2-2.8c1.3-1.9,2.4-4.2,3.2-7c0.8-2.8,1.2-5.5,1.2-8.1c0-1.3-0.2-2.3-0.6-2.9
			c-0.4-0.6-1-0.9-1.9-0.9C168.4,71.1,167,72.1,165.7,74z"/>
		<path class="st0" d="M200.8,86.1l-1.1,3.2c-1,3-2.8,4.5-5.2,4.5c-1.3,0-2.2-0.4-2.7-1.3c-0.2-0.3-0.3-0.8-0.3-1.4
			c0-0.8,0.2-1.9,0.7-3.4l4.1-12.4c0.3-1,0.4-1.7,0.4-2.1c0-1-0.5-1.5-1.4-1.5c-1.1,0-2.3,0.8-3.7,2.4s-2.8,3.8-4.1,6.6
			c-1.4,2.8-2.5,5.9-3.5,9.3l-0.8,3.2h-3.8l5.2-18.6c0.2-0.8,0.3-1.3,0.3-1.6c0-0.7-0.3-1.1-1-1.1c-0.6,0-1.2,0.3-1.7,1
			c-0.5,0.6-1,1.8-1.6,3.5l-0.6,1.6h-0.8l1.1-3.2c1-3,2.8-4.5,5.2-4.5c0.9,0,1.6,0.2,2,0.7c0.4,0.4,0.6,1.1,0.6,1.9
			c0,0.8-0.2,1.9-0.6,3.5l-1.5,5.9c1.8-4.4,3.6-7.5,5.3-9.3c1.7-1.8,3.5-2.7,5.6-2.7c2.3,0,3.5,1.1,3.5,3.2c0,1-0.2,2.1-0.7,3.3
			l-4.2,12.7c-0.2,0.7-0.3,1.2-0.3,1.6c0,0.7,0.3,1,1,1c0.6,0,1.1-0.3,1.7-1c0.5-0.6,1.1-1.8,1.7-3.4l0.6-1.6H200.8z"/>
		<path class="st0" d="M222.9,73.8c0,2.7-0.9,5.9-2.6,9.5c-1.7,3.6-3.7,6.8-6,9.7c-2.7,3.4-5.5,5.7-8.5,7.2
			c-1.5,0.7-2.8,1.1-3.8,1.1c-0.6,0-1.1-0.2-1.5-0.5c-0.4-0.3-0.6-0.8-0.6-1.3c0-0.6,0.2-1.1,0.7-1.4c0.5-0.3,1-0.5,1.6-0.5
			c0.6,0,1.2,0.2,1.8,0.5c0.6,0.3,1.2,0.7,1.8,1.2c2.3-1.2,4.4-2.9,6.5-5.2l-3.2-19.4c-0.1-0.9-0.3-1.5-0.5-1.9
			c-0.2-0.3-0.5-0.5-0.9-0.5s-0.8,0.3-1.1,0.8c-0.4,0.6-0.9,1.6-1.4,3.1l-0.6,1.6h-0.8l1.1-3.2c1-2.9,2.7-4.4,5-4.4
			c0.9,0,1.6,0.3,2.1,0.9c0.5,0.6,0.8,1.6,1,3.1l2.2,16.3c1.6-2.2,3-4.5,4.1-6.9c1.2-2.4,2-4.8,2.4-7.2c-0.9-0.5-1.6-1-2.3-1.7
			c-0.7-0.7-1-1.4-1-2.3c0-0.7,0.2-1.2,0.6-1.6c0.4-0.4,0.9-0.6,1.6-0.6C222.1,70.3,222.9,71.4,222.9,73.8z"/>
		<path class="st0" d="M245.9,70.7c0.4,0.3,0.5,0.7,0.5,1.2c0,0.5-0.2,1-0.7,1.5c-0.4,0.4-1,0.6-1.6,0.6c-1,0-1.9-0.3-2.7-1
			c-1.8,1.6-3.4,4.2-4.7,7.6l1,9.3c0.1,0.7,0.3,1.2,0.5,1.5c0.2,0.3,0.5,0.5,1,0.5c0.5,0,1-0.3,1.4-0.8c0.4-0.6,0.9-1.6,1.5-3.1
			l0.6-1.6h0.8l-1.1,3.2c-1.1,2.9-2.7,4.4-4.9,4.4c-2.1,0-3.3-1.3-3.6-4l-0.6-5.6c-1.2,2.6-2.7,4.9-4.6,6.9c-0.9,0.9-1.7,1.6-2.4,2
			c-0.7,0.4-1.4,0.7-2,0.7c-0.6,0-1.1-0.1-1.5-0.4c-0.3-0.3-0.5-0.7-0.5-1.2c0-0.6,0.2-1,0.7-1.5c0.4-0.4,1-0.6,1.6-0.6
			c0.9,0,1.8,0.3,2.7,1c1.2-1.1,2.3-2.4,3.3-3.9c1-1.5,1.8-3.1,2.5-4.6l-0.9-8.3c-0.1-0.7-0.3-1.2-0.5-1.5c-0.2-0.3-0.5-0.5-1-0.5
			c-0.5,0-1,0.3-1.4,0.8c-0.4,0.6-0.9,1.6-1.5,3.1l-0.6,1.6h-0.8l1.1-3.2c1.1-2.9,2.7-4.4,4.9-4.4c1.1,0,1.9,0.3,2.5,0.9
			c0.6,0.6,1,1.6,1.1,3.1l0.5,4.5c1-2.2,2.2-4.1,3.6-5.8c0.8-1,1.6-1.6,2.2-2c0.7-0.4,1.4-0.6,2.1-0.6
			C245.1,70.3,245.6,70.4,245.9,70.7z"/>
	</g>
</g>
</svg>
