<?xml version="1.0" encoding="utf-8"?>
<!-- Generator: Adobe Illustrator 23.0.0, SVG Export Plug-In . SVG Version: 6.00 Build 0)  -->
<svg version="1.1" id="Layer_1" xmlns="http://www.w3.org/2000/svg" xmlns:xlink="http://www.w3.org/1999/xlink" x="0px" y="0px"
	 width="270px" height="160px" viewBox="0 0 270 160" style="enable-background:new 0 0 270 160;" xml:space="preserve">
<style type="text/css">
	.st0{fill:#70706F;}
	.st1{fill:#FFFFFF;}
	.st2{fill-rule:evenodd;clip-rule:evenodd;fill:#70706F;}
	.st3{fill:#F1F2F2;}
	.st4{fill:#3A3A3A;}
	.st5{fill-rule:evenodd;clip-rule:evenodd;fill:#FFFFFF;}
</style>
<g>
	<path class="st0" d="M172.42,42.58c-9.57-9.58-22.81-15.5-37.42-15.5c-14.62,0-27.85,5.92-37.42,15.5
		C88,52.15,82.08,65.39,82.08,80s5.92,27.85,15.5,37.42c9.57,9.58,22.8,15.5,37.42,15.5c14.61,0,27.85-5.92,37.42-15.5
		c9.58-9.57,15.5-22.81,15.5-37.42S182,52.15,172.42,42.58z M171.6,116.61c-9.36,9.36-22.31,15.16-36.6,15.16
		c-14.29,0-27.24-5.79-36.6-15.16C89.03,107.24,83.23,94.29,83.23,80s5.79-27.24,15.16-36.6c9.36-9.37,22.31-15.16,36.6-15.16
		c14.29,0,27.24,5.8,36.6,15.16c9.37,9.37,15.16,22.31,15.16,36.6S180.97,107.24,171.6,116.61z M135,46.01
		c-9.39,0-17.88,3.81-24.03,9.96c-6.15,6.15-9.96,14.65-9.96,24.03c0,9.39,3.81,17.88,9.96,24.04c6.15,6.15,14.65,9.95,24.03,9.95
		c9.39,0,17.88-3.8,24.03-9.95c6.15-6.16,9.95-14.65,9.95-24.04c0-9.38-3.8-17.88-9.95-24.03C152.88,49.82,144.39,46.01,135,46.01z
		 M158.22,103.22c-5.94,5.94-14.15,9.62-23.22,9.62c-9.07,0-17.28-3.68-23.22-9.62c-5.94-5.94-9.62-14.15-9.62-23.22
		c0-9.07,3.68-17.28,9.62-23.22c5.94-5.94,14.15-9.62,23.22-9.62c9.06,0,17.28,3.68,23.22,9.62c5.94,5.94,9.62,14.15,9.62,23.22
		C167.84,89.07,164.16,97.28,158.22,103.22z"/>
	<path class="st1" d="M135,49.63c-8.39,0-15.98,3.4-21.48,8.89c-5.49,5.5-8.9,13.09-8.9,21.48c0,8.39,3.4,15.98,8.9,21.48
		c5.5,5.5,13.09,8.9,21.48,8.9c8.39,0,15.98-3.4,21.48-8.9c5.5-5.5,8.9-13.09,8.9-21.48c0-8.38-3.4-15.98-8.9-21.48
		C150.98,53.02,143.39,49.63,135,49.63L135,49.63z M113.11,58.11c5.6-5.6,13.34-9.06,21.89-9.06c8.55,0,16.29,3.46,21.89,9.06
		c5.61,5.6,9.07,13.34,9.07,21.89c0,8.55-3.46,16.29-9.07,21.89c-5.6,5.6-13.34,9.07-21.89,9.07c-8.55,0-16.29-3.47-21.89-9.07
		c-5.61-5.6-9.07-13.34-9.07-21.89C104.05,71.45,107.51,63.71,113.11,58.11z"/>
	<path class="st2" d="M97.99,117.01c9.47,9.47,22.56,15.33,37.01,15.33s27.54-5.86,37.01-15.33l-13.39-13.39
		c-6.05,6.05-14.4,9.78-23.63,9.78c-9.23,0-17.58-3.74-23.63-9.78L97.99,117.01z"/>
	<g>
		<path class="st3" d="M115.92,115.14c0.68,0.37,0.81,0.98,0.42,1.69l-0.08,0.14l-0.66-0.36l0.1-0.18c0.17-0.32,0.11-0.52-0.11-0.64
			c-0.22-0.12-0.42-0.07-0.6,0.25c-0.5,0.93,0.78,1.85,0.09,3.13c-0.39,0.72-0.97,0.93-1.67,0.55c-0.69-0.38-0.83-0.98-0.44-1.7
			l0.15-0.27l0.66,0.36l-0.17,0.32c-0.17,0.32-0.09,0.51,0.13,0.63c0.22,0.12,0.43,0.08,0.6-0.24c0.5-0.92-0.78-1.85-0.09-3.13
			C114.66,114.99,115.24,114.77,115.92,115.14z"/>
		<path class="st3" d="M119.1,116.77l0.74,0.31l-1.99,4.7l-0.74-0.31L119.1,116.77z"/>
		<path class="st3" d="M122.48,119.53l-1.07,3.54l-0.69-0.21l1.47-4.89l0.96,0.29l-0.09,3.16l0.89-2.93l0.68,0.21l-1.47,4.89
			l-0.79-0.24L122.48,119.53z"/>
		<path class="st3" d="M128.78,122.81l-0.12,0.67c-0.14,0.8-0.62,1.2-1.4,1.06c-0.78-0.14-1.1-0.67-0.96-1.47l0.45-2.62
			c0.14-0.81,0.62-1.2,1.4-1.06c0.78,0.13,1.1,0.66,0.96,1.47l-0.09,0.49l-0.75-0.13l0.09-0.54c0.06-0.36-0.07-0.52-0.33-0.57
			c-0.25-0.05-0.43,0.06-0.49,0.43l-0.47,2.72c-0.06,0.36,0.07,0.52,0.33,0.56c0.25,0.04,0.43-0.06,0.49-0.42l0.13-0.72
			L128.78,122.81z"/>
		<path class="st3" d="M132.35,122.11l1.1,0.06l-0.04,0.73l-1.1-0.06l-0.09,1.49l1.39,0.08l-0.05,0.73l-2.18-0.12l0.29-5.1
			l2.18,0.13l-0.04,0.73l-1.38-0.08L132.35,122.11z"/>
		<path class="st3" d="M139.94,120.39c0.62-0.08,0.71-0.4,0.79-0.75l0.54-0.08l0.69,5.06l-0.79,0.11l-0.53-3.86l-0.62,0.09
			L139.94,120.39z"/>
		<path class="st3" d="M147.33,122.14c0.22,0.84-0.05,1.39-0.85,1.59c-0.76,0.21-1.28-0.14-1.48-0.93l-0.03-0.13l0.73-0.19
			l0.05,0.18c0.09,0.35,0.28,0.44,0.53,0.38c0.27-0.07,0.4-0.25,0.27-0.72l-0.24-0.9c-0.06,0.32-0.26,0.54-0.61,0.63
			c-0.57,0.15-0.96-0.18-1.15-0.9l-0.24-0.9c-0.21-0.79,0.09-1.35,0.85-1.56c0.76-0.2,1.29,0.14,1.5,0.93L147.33,122.14z
			 M146.11,120.65l-0.24-0.89c-0.09-0.35-0.28-0.44-0.53-0.38c-0.25,0.07-0.37,0.24-0.28,0.59l0.24,0.89
			c0.09,0.35,0.28,0.44,0.53,0.38C146.08,121.18,146.2,121,146.11,120.65z"/>
		<path class="st3" d="M152.24,120.38c0.31,0.8,0.12,1.38-0.65,1.68c-0.73,0.29-1.28,0.01-1.58-0.75l-0.05-0.12l0.71-0.28l0.07,0.17
			c0.13,0.33,0.33,0.41,0.57,0.31c0.27-0.11,0.36-0.29,0.18-0.74l-0.34-0.87c-0.02,0.32-0.19,0.56-0.52,0.69
			c-0.55,0.22-0.98-0.06-1.26-0.76l-0.35-0.87c-0.3-0.76-0.07-1.35,0.66-1.64c0.73-0.29,1.31-0.02,1.6,0.74L152.24,120.38z
			 M150.85,119.05l-0.34-0.85c-0.13-0.34-0.33-0.4-0.57-0.31c-0.24,0.09-0.34,0.27-0.21,0.62l0.34,0.85
			c0.13,0.34,0.33,0.41,0.57,0.32C150.88,119.58,150.98,119.39,150.85,119.05z"/>
		<path class="st3" d="M153.78,116.11c0.54-0.3,0.52-0.63,0.47-0.99l0.48-0.26l2.43,4.49l-0.7,0.38l-1.85-3.42l-0.55,0.29
			L153.78,116.11z"/>
	</g>
	<g>
		<path class="st4" d="M98.39,104.88c0.03-0.37,0.24-0.7,0.65-0.99c0.4-0.29,0.78-0.39,1.14-0.29c0.36,0.1,0.71,0.39,1.06,0.87
			l0.32,0.43l0.91-0.66l0.52,0.73l-3.25,2.35l-0.84-1.15C98.53,105.68,98.36,105.25,98.39,104.88z M100.05,104.49
			c-0.16-0.02-0.33,0.04-0.52,0.18c-0.19,0.14-0.28,0.29-0.28,0.46c0,0.17,0.09,0.37,0.26,0.62l0.3,0.41l1.09-0.79l-0.35-0.49
			C100.39,104.64,100.22,104.51,100.05,104.49z"/>
		<path class="st4" d="M95.81,98.42c0.57-0.3,1.06-0.26,1.46,0.11l0.8-1.56l0.51,0.98l-0.73,1.38l0.29,0.55l1.14-0.59l0.41,0.79
			l-3.56,1.85l-0.7-1.35c-0.29-0.55-0.4-1-0.33-1.33C95.15,98.91,95.39,98.64,95.81,98.42z M96.72,99.16
			c-0.14-0.05-0.3-0.03-0.49,0.07c-0.19,0.1-0.3,0.22-0.32,0.36c-0.02,0.14,0.04,0.33,0.17,0.59l0.31,0.59l1.06-0.55l-0.3-0.58
			C97.01,99.38,96.86,99.22,96.72,99.16z"/>
		<path class="st4" d="M92.32,93.07l0.76-0.26l0.65,1.89l0.78-0.27l-0.58-1.7l0.73-0.25l0.58,1.7l0.79-0.27l-0.67-1.95l0.75-0.26
			l0.96,2.8l-3.8,1.3L92.32,93.07z"/>
		<path class="st4" d="M92.27,85.9l2.35,0.71l0.09,0.52l-1.99,1.43l2.49-0.42l0.15,0.88l-3.96,0.67l-0.21-1.2l2.01-1.39l-2.35-0.66
			l-0.2-1.19l3.96-0.67l0.15,0.88L92.27,85.9z"/>
		<path class="st4" d="M90.43,81.71l-0.03-0.9l4.01-0.11l0.03,0.9L90.43,81.71z"/>
		<path class="st4" d="M93.52,76.5c0.2-0.13,0.31-0.32,0.34-0.57c0.02-0.25-0.05-0.46-0.22-0.63c-0.17-0.16-0.41-0.26-0.74-0.29
			l-2.21-0.22l0.09-0.89l2.24,0.22c0.58,0.06,1.01,0.26,1.29,0.61c0.28,0.35,0.4,0.77,0.35,1.28c-0.05,0.5-0.24,0.9-0.59,1.18
			c-0.35,0.29-0.8,0.41-1.38,0.35l-2.24-0.22l0.09-0.89l2.21,0.22C93.06,76.69,93.32,76.63,93.52,76.5z"/>
		<path class="st4" d="M93.76,67.31l1.83,1.63l-0.14,0.52l-2.4,0.46l2.44,0.66l-0.24,0.87l-3.87-1.06l0.32-1.17l2.4-0.42l-1.85-1.59
			l0.32-1.16l3.88,1.06l-0.24,0.86L93.76,67.31z"/>
		<path class="st4" d="M100.5,58.59l-0.94-0.11l-0.85,1.46l0.56,0.76l-0.48,0.82L96.19,58l0.44-0.75l4.34,0.52L100.5,58.59z
			 M97.45,58.22l0.75,1.02l0.51-0.87L97.45,58.22z"/>
		<path class="st4" d="M102.21,54.36c0.24,0,0.44-0.1,0.6-0.3c0.16-0.2,0.21-0.41,0.16-0.65c-0.05-0.23-0.21-0.45-0.46-0.65
			l-1.72-1.39l0.56-0.7l1.75,1.41c0.46,0.36,0.7,0.77,0.74,1.22c0.04,0.44-0.09,0.87-0.41,1.26c-0.31,0.39-0.69,0.62-1.14,0.67
			c-0.45,0.05-0.9-0.1-1.35-0.46l-1.75-1.41l0.56-0.69l1.73,1.39C101.73,54.25,101.97,54.35,102.21,54.36z"/>
		<path class="st4" d="M105.55,47.54l2.2,2.38l-0.66,0.61l-2.2-2.38l-0.84,0.77l-0.52-0.57l2.32-2.16l0.53,0.57L105.55,47.54z"/>
		<path class="st4" d="M110.44,42.75l0.74-0.51l2.27,3.31l-0.74,0.51l-0.89-1.3l-1.32,0.9l0.89,1.3l-0.74,0.51l-2.27-3.31l0.74-0.51
			l0.95,1.38l1.31-0.9L110.44,42.75z"/>
		<path class="st4" d="M116.9,39.2l0.35,0.71l-1.8,0.87l0.36,0.74l1.62-0.78l0.33,0.69l-1.62,0.79l0.36,0.75l1.85-0.9l0.35,0.71
			l-2.66,1.29l-1.75-3.61L116.9,39.2z"/>
		<path class="st4" d="M122.78,37.08l0.86-0.26l1.18,3.84l-0.85,0.27l-2.57-1.85l0.74,2.41l-0.86,0.26l-1.18-3.84l0.8-0.24
			l2.64,1.89L122.78,37.08z"/>
		<path class="st4" d="M128.97,36.58l0.48,3.21l-0.89,0.13l-0.47-3.21l-1.12,0.17l-0.11-0.77l3.14-0.46l0.11,0.77L128.97,36.58z"/>
		<path class="st4" d="M133.15,35.43l0.9-0.03l0.13,4.01l-0.9,0.03L133.15,35.43z"/>
		<path class="st4" d="M139.14,38.82c0.44,0.04,0.82-0.1,1.12-0.42l0.52,0.64c-0.51,0.47-1.06,0.68-1.68,0.62
			c-0.62-0.06-1.1-0.3-1.47-0.73c-0.36-0.43-0.52-0.94-0.46-1.53c0.06-0.59,0.31-1.07,0.75-1.43c0.44-0.36,0.96-0.51,1.55-0.46
			c0.66,0.06,1.18,0.36,1.58,0.9l-0.62,0.58c-0.25-0.38-0.58-0.58-1-0.63c-0.33-0.03-0.63,0.05-0.89,0.25
			c-0.26,0.2-0.41,0.48-0.44,0.85c-0.04,0.37,0.05,0.68,0.25,0.93C138.56,38.66,138.82,38.79,139.14,38.82z"/>
		<path class="st4" d="M150.69,38.6c0.19,0.32,0.2,0.71,0.04,1.18c-0.16,0.47-0.42,0.76-0.76,0.89c-0.35,0.13-0.8,0.09-1.37-0.11
			l-0.5-0.17l-0.36,1.06l-0.85-0.29l1.31-3.8l1.34,0.46C150.12,38.02,150.5,38.28,150.69,38.6z M149.55,39.88
			c0.14-0.08,0.25-0.23,0.32-0.44c0.08-0.22,0.06-0.4-0.03-0.54c-0.1-0.14-0.29-0.25-0.57-0.35l-0.48-0.17l-0.44,1.28l0.57,0.2
			C149.2,39.95,149.41,39.96,149.55,39.88z"/>
		<path class="st4" d="M156.52,42.42c-0.3,0.57-0.72,0.82-1.25,0.75l0.23,1.74l-0.98-0.51l-0.19-1.55l-0.55-0.29l-0.6,1.14
			l-0.79-0.41l1.86-3.56l1.35,0.71c0.55,0.29,0.9,0.59,1.04,0.9C156.78,41.64,156.74,42,156.52,42.42z M155.34,42.34
			c0.14-0.03,0.27-0.15,0.36-0.34c0.1-0.19,0.12-0.35,0.06-0.47c-0.06-0.13-0.22-0.25-0.48-0.39l-0.6-0.31l-0.55,1.06l0.58,0.3
			C154.99,42.32,155.2,42.37,155.34,42.34z"/>
		<path class="st4" d="M160.74,47.87c-0.56,0.08-1.08-0.06-1.56-0.42c-0.48-0.35-0.76-0.81-0.85-1.37
			c-0.09-0.56,0.05-1.08,0.39-1.55c0.35-0.47,0.81-0.74,1.37-0.82c0.56-0.08,1.08,0.06,1.56,0.42c0.47,0.36,0.76,0.81,0.85,1.37
			c0.09,0.56-0.04,1.07-0.4,1.55C161.76,47.52,161.31,47.79,160.74,47.87z M161.38,46.5c0.21-0.28,0.3-0.6,0.27-0.94
			c-0.03-0.34-0.19-0.61-0.45-0.81c-0.27-0.2-0.57-0.27-0.91-0.2c-0.34,0.07-0.61,0.24-0.82,0.53c-0.21,0.29-0.3,0.6-0.27,0.94
			c0.03,0.34,0.19,0.61,0.46,0.81c0.27,0.2,0.57,0.27,0.9,0.21C160.89,46.97,161.17,46.79,161.38,46.5z"/>
		<path class="st4" d="M167.57,50.27c0.02,0.52-0.2,1-0.65,1.43c-0.45,0.43-0.93,0.65-1.45,0.63c-0.52-0.02-1.05-0.3-1.58-0.85
			l-0.96-0.98l2.88-2.8l0.99,1.02C167.3,49.24,167.56,49.75,167.57,50.27z M165.4,51.46c0.3,0.02,0.6-0.11,0.88-0.39
			c0.28-0.28,0.42-0.57,0.42-0.87c0-0.3-0.16-0.62-0.48-0.95l-0.35-0.36l-1.75,1.7l0.4,0.41C164.81,51.3,165.1,51.45,165.4,51.46z"
			/>
		<path class="st4" d="M168.69,55.54c-0.06,0.23-0.03,0.45,0.12,0.65c0.14,0.21,0.33,0.32,0.57,0.33c0.24,0.01,0.49-0.07,0.75-0.26
			l1.81-1.28l0.52,0.74l-1.84,1.29c-0.47,0.33-0.93,0.46-1.37,0.38c-0.44-0.08-0.8-0.33-1.09-0.74c-0.29-0.41-0.4-0.84-0.33-1.28
			c0.07-0.45,0.34-0.84,0.82-1.17l1.83-1.3l0.52,0.74l-1.81,1.28C168.92,55.11,168.75,55.31,168.69,55.54z"/>
		<path class="st4" d="M172.2,61.85c0.19,0.4,0.51,0.64,0.95,0.73l-0.28,0.78c-0.66-0.18-1.13-0.55-1.41-1.11
			c-0.28-0.55-0.33-1.1-0.16-1.63c0.17-0.53,0.52-0.93,1.06-1.19c0.54-0.27,1.07-0.3,1.61-0.12c0.54,0.19,0.94,0.55,1.2,1.07
			c0.3,0.59,0.32,1.2,0.06,1.82L174.42,62c0.19-0.41,0.19-0.8,0-1.18c-0.15-0.3-0.38-0.51-0.68-0.63c-0.3-0.11-0.62-0.09-0.96,0.08
			c-0.33,0.17-0.55,0.4-0.65,0.71C172.03,61.26,172.05,61.56,172.2,61.85z"/>
		<path class="st4" d="M176.81,66.82l-3.08,1.01l-0.28-0.85l3.08-1.01l-0.35-1.08l0.74-0.24l0.98,3.02l-0.74,0.24L176.81,66.82z"/>
		<path class="st4" d="M179.05,77.86c-0.32,0.41-0.79,0.64-1.41,0.68c-0.62,0.05-1.13-0.1-1.52-0.44c-0.39-0.35-0.62-0.9-0.68-1.66
			l-0.11-1.37l4-0.31l0.11,1.42C179.5,76.88,179.37,77.45,179.05,77.86z M176.61,77.39c0.22,0.2,0.53,0.29,0.93,0.26
			c0.39-0.03,0.69-0.17,0.88-0.4c0.19-0.24,0.27-0.58,0.24-1.03l-0.04-0.5l-2.44,0.19l0.05,0.57
			C176.26,76.88,176.39,77.18,176.61,77.39z"/>
		<path class="st4" d="M179.39,84.65l-0.8-0.06l0.14-1.99l-0.82-0.06l-0.13,1.8l-0.76-0.05l0.13-1.8l-0.83-0.05l-0.14,2.06
			l-0.79-0.06l0.21-2.95l4,0.28L179.39,84.65z"/>
		<path class="st4" d="M177.91,88.84c-0.05-0.1-0.13-0.16-0.25-0.19c-0.12-0.02-0.22,0.01-0.31,0.1c-0.09,0.09-0.22,0.31-0.39,0.66
			c-0.17,0.35-0.37,0.62-0.6,0.78c-0.23,0.16-0.52,0.21-0.87,0.14c-0.35-0.08-0.61-0.27-0.77-0.58c-0.16-0.31-0.2-0.68-0.11-1.11
			c0.13-0.62,0.49-1.13,1.05-1.53l0.53,0.66c-0.46,0.34-0.73,0.69-0.81,1.06c-0.03,0.16-0.02,0.3,0.02,0.4
			c0.05,0.11,0.14,0.17,0.25,0.2c0.12,0.02,0.22,0,0.31-0.09c0.09-0.08,0.2-0.26,0.33-0.54c0.21-0.43,0.42-0.74,0.64-0.91
			c0.22-0.17,0.51-0.22,0.88-0.14c0.38,0.08,0.63,0.27,0.78,0.58c0.14,0.31,0.17,0.67,0.09,1.07c-0.06,0.26-0.16,0.51-0.3,0.76
			c-0.15,0.24-0.32,0.45-0.53,0.61l-0.55-0.58c0.33-0.28,0.54-0.61,0.62-0.97C177.97,89.06,177.96,88.94,177.91,88.84z"/>
		<path class="st4" d="M177.34,94.07l-0.29,0.85l-3.8-1.31l0.29-0.85L177.34,94.07z"/>
		<path class="st4" d="M172.84,99.68l-0.4,0.81l-1.28-0.63c-0.22-0.55-0.18-1.15,0.13-1.78c0.26-0.53,0.66-0.89,1.18-1.07
			c0.53-0.19,1.06-0.15,1.59,0.12c0.54,0.26,0.89,0.66,1.07,1.21c0.17,0.54,0.14,1.07-0.12,1.59c-0.25,0.52-0.65,0.88-1.17,1.09
			l-0.4-0.71c0.22-0.09,0.39-0.19,0.51-0.3c0.12-0.11,0.22-0.24,0.3-0.4c0.15-0.31,0.17-0.62,0.07-0.93
			c-0.1-0.31-0.33-0.55-0.66-0.72c-0.34-0.17-0.66-0.2-0.97-0.11c-0.3,0.1-0.52,0.29-0.66,0.57c-0.14,0.28-0.2,0.54-0.18,0.77
			L172.84,99.68z"/>
		<path class="st4" d="M170.82,106.6l-0.52,0.73l-3.27-2.33l0.52-0.73l3.16-0.1l-2.05-1.46l0.52-0.73l3.27,2.33l-0.49,0.68
			l-3.25,0.11L170.82,106.6z"/>
	</g>
	<path class="st4" d="M135,49.31c8.48,0,16.15,3.43,21.7,8.99c5.56,5.56,8.99,13.23,8.99,21.7c0,8.48-3.44,16.15-8.99,21.71
		c-5.55,5.55-13.23,8.99-21.7,8.99c-8.48,0-16.15-3.44-21.7-8.99c-5.56-5.56-8.99-13.23-8.99-21.71c0-8.47,3.44-16.15,8.99-21.7
		C118.85,52.74,126.52,49.31,135,49.31L135,49.31z M155.89,59.11c-5.35-5.35-12.73-8.65-20.89-8.65c-8.16,0-15.54,3.3-20.89,8.65
		s-8.65,12.73-8.65,20.89c0,8.16,3.3,15.55,8.65,20.89c5.35,5.35,12.73,8.65,20.89,8.65c8.16,0,15.54-3.31,20.89-8.65
		c5.35-5.34,8.65-12.73,8.65-20.89C164.54,71.84,161.24,64.46,155.89,59.11z"/>
	<path class="st5" d="M158.97,114.21c0.38-0.27,0.91-0.19,1.2,0.21c0.28,0.38,0.19,0.93-0.21,1.21c-0.39,0.27-0.95,0.17-1.21-0.23
		C158.48,115,158.59,114.47,158.97,114.21L158.97,114.21z M111.02,114.21c0.39,0.27,0.48,0.8,0.22,1.2
		c-0.26,0.39-0.81,0.5-1.21,0.22c-0.41-0.29-0.49-0.83-0.21-1.21C110.11,114.03,110.63,113.94,111.02,114.21z"/>
	<path class="st4" d="M138.95,138.61l-1.77,0l-0.16-0.3c-0.29-0.88-1.1-1.48-2.02-1.48c-0.93,0-1.75,0.6-2.03,1.48l-0.1,0.3l-1.85,0
		c-1.18,0-1.4-0.04-2.84-0.3l-1.26-0.22l-0.05-0.32c-0.13-0.92-0.82-1.65-1.74-1.81c-0.93-0.16-1.83,0.3-2.26,1.11l-0.15,0.28
		l-1.5-0.26c-1.44-0.25-1.47-0.25-2.85-0.77l-1.42-0.52l0.01-0.32c0.04-0.93-0.53-1.77-1.4-2.09c-0.86-0.31-1.86-0.02-2.41,0.7
		l-0.2,0.25l-1.21-0.44c-1.6-0.57-1.63-0.58-3.08-1.44l-1.12-0.65l0.07-0.31c0.19-0.9-0.21-1.83-1.02-2.29
		c-0.79-0.45-1.83-0.34-2.5,0.27l-0.24,0.21l-1.12-0.64c-1.47-0.84-1.5-0.86-2.79-1.95l-0.99-0.84l0.12-0.3
		c0.35-0.86,0.11-1.84-0.6-2.44c-0.69-0.58-1.74-0.65-2.5-0.17l-0.27,0.17l-0.69-0.58c-1.6-1.34-1.63-1.37-2.98-2.98l-0.56-0.67
		l0.17-0.27c0.5-0.79,0.43-1.79-0.17-2.51c-0.58-0.7-1.6-0.95-2.44-0.6l-0.3,0.12l-0.84-1c-1.09-1.28-1.1-1.31-1.95-2.79l-0.64-1.11
		l0.21-0.24c0.63-0.69,0.73-1.69,0.27-2.49c-0.46-0.79-1.41-1.21-2.29-1.02l-0.31,0.07l-0.65-1.12c-0.85-1.46-0.87-1.49-1.44-3.08
		l-0.44-1.22l0.25-0.19c0.74-0.57,1.01-1.54,0.69-2.41c-0.31-0.84-1.11-1.41-2.01-1.41l-0.32,0.02l-0.19-0.3l-0.41-1.12
		c-0.51-1.38-0.52-1.41-0.77-2.86l-0.26-1.5l0.28-0.15c0.82-0.43,1.26-1.34,1.11-2.26c-0.16-0.92-0.89-1.61-1.81-1.74l-0.32-0.05
		l-0.22-1.26c-0.3-1.67-0.3-1.7-0.3-3.39v-1.3l0.31-0.1c0.88-0.28,1.48-1.09,1.48-2.03c0-0.93-0.6-1.74-1.48-2.03l-0.31-0.1v-1.3
		c-0.01-1.69,0-1.72,0.3-3.39l0.22-1.26l0.32-0.05c0.92-0.12,1.65-0.82,1.81-1.74c0.16-0.91-0.28-1.82-1.11-2.26l-0.28-0.15
		l0.26-1.5c0.25-1.45,0.25-1.47,0.77-2.85l0.52-1.42l0.32,0.01h0c0.97,0,1.78-0.56,2.08-1.4c0.32-0.88,0.04-1.85-0.69-2.42
		l-0.25-0.2l0.44-1.21c0.57-1.59,0.59-1.62,1.44-3.08l0.65-1.12l0.31,0.07c0.89,0.19,1.84-0.24,2.29-1.02
		c0.47-0.8,0.36-1.81-0.27-2.5l-0.21-0.24l0.64-1.12c0.84-1.47,0.86-1.49,1.95-2.78l0.84-0.99l0.3,0.12
		c0.84,0.34,1.85,0.09,2.43-0.6c0.6-0.71,0.67-1.72,0.17-2.5l-0.17-0.27l0.58-0.69c1.34-1.59,1.37-1.63,2.97-2.97l0.68-0.57
		l0.27,0.17c0.76,0.48,1.81,0.41,2.5-0.17c0.71-0.6,0.95-1.58,0.6-2.44l-0.12-0.3l0.99-0.84c1.29-1.09,1.31-1.11,2.79-1.95
		l1.12-0.65l0.24,0.21c0.67,0.61,1.71,0.72,2.5,0.27c0.8-0.47,1.22-1.39,1.02-2.3l-0.07-0.31l1.12-0.65
		c1.46-0.85,1.49-0.86,3.08-1.44l1.21-0.44l0.2,0.25c0.55,0.71,1.55,1.01,2.41,0.69c0.87-0.32,1.44-1.15,1.4-2.08l-0.01-0.32
		l1.42-0.52c1.38-0.51,1.4-0.52,2.86-0.76l1.49-0.26l0.15,0.28c0.43,0.81,1.32,1.27,2.26,1.11c0.92-0.16,1.61-0.89,1.74-1.81
		l0.05-0.31l1.28-0.23c1.43-0.26,1.65-0.3,2.84-0.3h1.84l0.1,0.31c0.28,0.89,1.1,1.48,2.03,1.48c0.93,0,1.75-0.59,2.03-1.48
		l0.1-0.31h1.84c1.18,0,1.4,0.04,2.84,0.3l1.27,0.23l0.05,0.31c0.13,0.92,0.82,1.65,1.74,1.81c0.93,0.16,1.83-0.3,2.26-1.11
		l0.15-0.29l1.5,0.26c1.45,0.25,1.48,0.25,2.86,0.76l1.42,0.52l-0.01,0.32c-0.03,0.93,0.53,1.77,1.4,2.08
		c0.86,0.32,1.86,0.02,2.42-0.69l0.19-0.25l1.22,0.44c1.59,0.57,1.62,0.59,3.09,1.44l1.12,0.65l-0.07,0.31
		c-0.2,0.91,0.21,1.83,1.02,2.3c0.79,0.45,1.83,0.34,2.5-0.27l0.24-0.21l1.12,0.65c1.47,0.84,1.5,0.86,2.79,1.95l0.99,0.83
		l-0.12,0.3c-0.35,0.86-0.11,1.84,0.6,2.44c0.69,0.58,1.75,0.65,2.51,0.17l0.27-0.17l0.69,0.58c1.6,1.34,1.63,1.37,2.97,2.98
		l0.56,0.67l-0.17,0.27c-0.5,0.78-0.43,1.79,0.17,2.5c0.58,0.69,1.6,0.95,2.43,0.6l0.3-0.12l0.84,0.99
		c1.09,1.29,1.11,1.32,1.95,2.79l0.64,1.12l-0.21,0.24c-0.63,0.69-0.73,1.69-0.27,2.5c0.46,0.78,1.41,1.21,2.3,1.02l0.32-0.07
		l0.65,1.11c0.85,1.47,0.87,1.49,1.44,3.09l0.44,1.22l-0.25,0.2c-0.74,0.57-1.01,1.54-0.7,2.41c0.3,0.84,1.11,1.4,2,1.4l0.32-0.01
		l0.19,0.3l0.41,1.12c0.51,1.38,0.52,1.4,0.77,2.85l0.26,1.5l-0.28,0.15c-0.82,0.43-1.27,1.34-1.11,2.26
		c0.16,0.92,0.89,1.62,1.81,1.74l0.32,0.05l0.22,1.28c0.3,1.66,0.3,1.7,0.3,3.4v1.28l-0.31,0.1c-0.88,0.29-1.48,1.1-1.48,2.03
		c0,0.93,0.6,1.75,1.48,2.03l0.31,0.1v1.29c0.01,1.7,0,1.73-0.3,3.39l-0.22,1.28l-0.32,0.05c-0.92,0.13-1.65,0.82-1.81,1.74
		c-0.16,0.92,0.28,1.82,1.1,2.26l0.29,0.15l-0.26,1.5c-0.24,1.45-0.25,1.47-0.77,2.86l-0.52,1.41l-0.32-0.02h0
		c-0.97,0-1.78,0.57-2.08,1.41c-0.32,0.87-0.04,1.84,0.7,2.41l0.25,0.19l-0.44,1.22c-0.57,1.59-0.58,1.62-1.44,3.08l-0.65,1.12
		l-0.31-0.07c-0.88-0.19-1.84,0.23-2.3,1.02c-0.46,0.8-0.36,1.81,0.27,2.49l0.21,0.24l-0.64,1.11c-0.84,1.47-0.86,1.5-1.95,2.79
		l-0.84,0.99l-0.3-0.12c-0.84-0.34-1.85-0.09-2.43,0.6c-0.6,0.71-0.67,1.72-0.17,2.51l0.17,0.27l-0.57,0.67
		c-1.34,1.61-1.37,1.64-2.97,2.98l-0.69,0.58l-0.27-0.17c-0.76-0.48-1.81-0.41-2.51,0.17c-0.71,0.6-0.95,1.58-0.6,2.44l0.12,0.3
		l-0.99,0.84c-1.29,1.09-1.31,1.11-2.79,1.95l-1.12,0.64l-0.24-0.22c-0.67-0.61-1.71-0.72-2.5-0.27c-0.8,0.46-1.22,1.39-1.02,2.29
		l0.07,0.31l-1.12,0.65c-1.46,0.85-1.49,0.87-3.09,1.44l-1.21,0.44l-0.19-0.25c-0.55-0.71-1.56-1.01-2.42-0.7
		c-0.87,0.32-1.44,1.15-1.4,2.08l0.01,0.32l-1.42,0.52c-1.38,0.51-1.41,0.52-2.86,0.77l-1.5,0.26l-0.15-0.28
		c-0.43-0.81-1.33-1.27-2.26-1.11c-0.92,0.16-1.62,0.89-1.74,1.81l-0.05,0.32l-1.27,0.22C140.34,138.57,140.15,138.61,138.95,138.61
		z M137.75,137.73h1.2c1.12,0,1.27-0.02,2.71-0.28l0.66-0.12c0.28-1.14,1.21-2.02,2.4-2.23c1.2-0.21,2.37,0.31,3.02,1.28l0.89-0.16
		c1.38-0.23,1.38-0.23,2.7-0.72l0.84-0.31c0.08-1.18,0.84-2.2,1.97-2.61c1.1-0.4,2.38-0.1,3.19,0.74l0.63-0.23
		c1.54-0.55,1.54-0.55,2.94-1.37l0.59-0.35c-0.13-1.17,0.44-2.31,1.49-2.92c1.01-0.58,2.34-0.5,3.27,0.17l0.58-0.33
		c1.42-0.81,1.42-0.81,2.66-1.86l0.52-0.44c-0.33-1.13,0.04-2.36,0.96-3.13c0.9-0.75,2.21-0.9,3.25-0.4l0.21-0.17
		c1.56-1.31,1.56-1.31,2.87-2.87l0.16-0.2c-0.52-1.06-0.37-2.33,0.4-3.25c0.75-0.9,2.02-1.28,3.13-0.96l0.44-0.52
		c1.05-1.24,1.05-1.24,1.86-2.66l0.33-0.58c-0.69-0.96-0.77-2.23-0.17-3.27c0.59-1.02,1.74-1.62,2.92-1.49l0.34-0.58
		c0.82-1.41,0.82-1.41,1.37-2.94l0.23-0.64c-0.85-0.82-1.15-2.06-0.74-3.19c0.41-1.12,1.44-1.89,2.62-1.97l0.31-0.84
		c0.49-1.32,0.49-1.32,0.73-2.7l0.16-0.9c-0.98-0.66-1.49-1.83-1.28-3.02c0.21-1.18,1.09-2.11,2.23-2.39l0.12-0.67
		c0.29-1.6,0.29-1.6,0.29-3.24l0-0.67c-1.08-0.48-1.78-1.55-1.78-2.75c0-1.2,0.71-2.27,1.78-2.75l0-0.66c0-1.64,0-1.64-0.29-3.24
		l-0.12-0.67c-1.14-0.29-2.02-1.21-2.23-2.4c-0.21-1.18,0.3-2.35,1.28-3.02l-0.16-0.89c-0.23-1.38-0.23-1.38-0.73-2.7l-0.31-0.85
		c-1.17-0.08-2.21-0.85-2.62-1.97c-0.41-1.13-0.11-2.37,0.74-3.19l-0.23-0.64c-0.55-1.53-0.55-1.53-1.37-2.94l-0.34-0.58
		c-1.16,0.12-2.33-0.47-2.92-1.49c-0.6-1.04-0.52-2.32,0.17-3.27l-0.33-0.58c-0.81-1.41-0.81-1.41-1.86-2.66L180.99,45
		c-1.11,0.32-2.38-0.06-3.13-0.96c-0.77-0.92-0.92-2.19-0.4-3.25l-0.16-0.2c-1.31-1.57-1.31-1.57-2.87-2.87l-0.21-0.18
		c-1.03,0.51-2.35,0.35-3.25-0.4c-0.92-0.77-1.28-2-0.96-3.14l-0.52-0.43c-1.25-1.05-1.25-1.05-2.66-1.86l-0.58-0.33
		c-0.93,0.68-2.26,0.76-3.27,0.17c-1.04-0.6-1.61-1.74-1.49-2.92l-0.58-0.34c-1.41-0.82-1.41-0.82-2.94-1.37l-0.63-0.23
		c-0.8,0.83-2.09,1.13-3.19,0.73c-1.13-0.41-1.89-1.44-1.97-2.62l-0.84-0.31c-1.32-0.49-1.32-0.49-2.7-0.72l-0.89-0.15
		c-0.65,0.96-1.81,1.49-3.02,1.28c-1.18-0.21-2.11-1.09-2.4-2.24l-0.66-0.12c-1.43-0.25-1.58-0.29-2.69-0.29l-1.22,0
		c-0.48,1.08-1.54,1.78-2.75,1.78c-1.2,0-2.27-0.7-2.75-1.78l-1.22,0c-1.11,0-1.26,0.03-2.68,0.29l-0.67,0.12
		c-0.28,1.15-1.22,2.03-2.4,2.24c-1.21,0.21-2.37-0.31-3.02-1.28l-0.89,0.15c-1.38,0.24-1.38,0.24-2.69,0.72l-0.85,0.31
		c-0.08,1.18-0.84,2.21-1.97,2.62c-1.1,0.4-2.38,0.09-3.19-0.73l-0.63,0.23c-1.53,0.55-1.53,0.55-2.94,1.37l-0.59,0.34
		c0.13,1.17-0.45,2.32-1.49,2.92c-1.02,0.59-2.34,0.51-3.27-0.17l-0.58,0.33c-1.41,0.81-1.41,0.81-2.65,1.86L100,34.01
		c0.33,1.14-0.04,2.36-0.96,3.13c-0.89,0.75-2.21,0.91-3.25,0.4l-0.2,0.17c-1.56,1.31-1.56,1.31-2.86,2.86l-0.18,0.22
		c0.52,1.06,0.37,2.32-0.4,3.25c-0.76,0.9-2.02,1.28-3.13,0.96l-0.44,0.52c-1.05,1.24-1.05,1.24-1.86,2.66l-0.33,0.58
		c0.7,0.95,0.78,2.23,0.17,3.27c-0.58,1.01-1.75,1.61-2.91,1.49l-0.34,0.59c-0.82,1.41-0.82,1.41-1.37,2.94l-0.23,0.63
		c0.85,0.82,1.15,2.06,0.74,3.19c-0.41,1.12-1.44,1.89-2.62,1.97l-0.31,0.85c-0.49,1.31-0.49,1.31-0.72,2.7l-0.16,0.89
		c0.98,0.66,1.49,1.83,1.28,3.02c-0.21,1.18-1.09,2.11-2.23,2.4l-0.12,0.66c-0.29,1.61-0.29,1.61-0.28,3.23v0.69
		c1.08,0.48,1.78,1.55,1.78,2.75c0,1.2-0.71,2.27-1.78,2.75v0.68c-0.01,1.62-0.01,1.62,0.28,3.23l0.12,0.66
		c1.14,0.28,2.02,1.21,2.23,2.39c0.21,1.18-0.3,2.36-1.28,3.02l0.16,0.9c0.23,1.37,0.23,1.37,0.72,2.7l0.31,0.84
		c1.17,0.08,2.21,0.85,2.62,1.97c0.41,1.13,0.11,2.37-0.74,3.19l0.23,0.63c0.55,1.53,0.55,1.53,1.37,2.94l0.34,0.58
		c1.18-0.12,2.33,0.47,2.92,1.49c0.6,1.04,0.52,2.32-0.17,3.27l0.33,0.57c0.81,1.42,0.81,1.42,1.86,2.66l0.44,0.52
		c1.12-0.32,2.38,0.06,3.13,0.96c0.77,0.92,0.92,2.19,0.4,3.25l0.16,0.2c1.31,1.56,1.31,1.56,2.87,2.87l0.21,0.17
		c1.03-0.5,2.35-0.35,3.25,0.4c0.92,0.77,1.29,2,0.96,3.13l0.52,0.44c1.25,1.05,1.25,1.05,2.66,1.86l0.58,0.33
		c0.93-0.68,2.26-0.76,3.27-0.17c1.04,0.6,1.61,1.75,1.49,2.92l0.58,0.35c1.41,0.82,1.41,0.82,2.94,1.37l0.63,0.23
		c0.8-0.83,2.09-1.14,3.19-0.74c1.13,0.41,1.89,1.44,1.97,2.61l0.84,0.31c1.32,0.49,1.32,0.49,2.7,0.72l0.89,0.16
		c0.65-0.97,1.81-1.5,3.02-1.28c1.18,0.21,2.11,1.09,2.4,2.23l0.66,0.12c1.44,0.26,1.58,0.28,2.69,0.28h1.23
		c0.48-1.08,1.54-1.78,2.75-1.78C136.2,135.94,137.27,136.65,137.75,137.73z"/>
	<path class="st2" d="M133.5,78.49L133.5,78.49H123c0.11-3.21,0.53-6.24,1.22-8.99h9.29V78.49L133.5,78.49z M133.49,90.54
		L133.49,90.54h-9.27c-0.69-2.76-1.12-5.81-1.22-9.04h10.49L133.49,90.54L133.49,90.54z M133.49,103.82L133.49,103.82
		c-2.56-0.68-4.9-3.02-6.73-6.48c-0.62-1.15-1.16-2.43-1.64-3.8l8.37,0V103.82L133.49,103.82z M136.5,93.54L136.5,93.54l8.38,0
		c-0.48,1.37-1.03,2.64-1.64,3.79c-1.83,3.46-4.18,5.81-6.73,6.47L136.5,93.54L136.5,93.54z M136.5,81.5L136.5,81.5h10.49
		c-0.1,3.22-0.53,6.27-1.22,9.04h-9.27L136.5,81.5L136.5,81.5z M136.5,69.5L136.5,69.5h9.28c0.68,2.75,1.11,5.79,1.21,9l-10.5,0
		L136.5,69.5L136.5,69.5z M136.5,66.5L136.5,66.5l0-10.32c2.56,0.67,4.9,3.02,6.73,6.47c0.62,1.17,1.18,2.46,1.66,3.85H136.5
		L136.5,66.5z M115.89,60.89c-5.08,5.09-7.92,11.92-7.92,19.11c0,7.46,3.02,14.22,7.92,19.11c4.89,4.89,11.65,7.91,19.11,7.92
		c7.46,0,14.21-3.03,19.11-7.92c4.89-4.89,7.91-11.64,7.92-19.11c0-7.46-3.03-14.22-7.92-19.11c-4.89-4.89-11.64-7.91-19.11-7.91
		C127.53,52.97,120.78,56,115.89,60.89L115.89,60.89z M154.87,66.5c-0.85-1.25-1.82-2.41-2.89-3.48c-2.41-2.41-5.33-4.31-8.59-5.53
		c0.91,1.09,1.74,2.35,2.49,3.76c0.84,1.57,1.56,3.33,2.16,5.24L154.87,66.5L154.87,66.5L154.87,66.5z M158.97,78.49L158.97,78.49
		H150c-0.09-3.17-0.49-6.21-1.13-8.99l7.74,0C157.94,72.25,158.77,75.29,158.97,78.49L158.97,78.49z M156.59,90.54L156.59,90.54
		h-7.73c0.65-2.8,1.05-5.85,1.14-9.04h8.97C158.77,84.73,157.93,87.78,156.59,90.54L156.59,90.54z M143.4,102.51
		c3.25-1.22,6.17-3.11,8.59-5.53c1.05-1.05,2.01-2.2,2.85-3.44l-6.8,0.01c-0.6,1.89-1.33,3.64-2.15,5.19
		C145.14,100.16,144.31,101.42,143.4,102.51L143.4,102.51L143.4,102.51z M115.16,93.55c0.85,1.23,1.8,2.38,2.85,3.43
		c2.42,2.41,5.33,4.31,8.59,5.53c-0.91-1.09-1.75-2.35-2.49-3.76c-0.83-1.56-1.55-3.3-2.15-5.19H115.16L115.16,93.55L115.16,93.55z
		 M111.02,81.5L111.02,81.5H120c0.09,3.19,0.49,6.24,1.14,9.04h-7.73C112.06,87.79,111.22,84.73,111.02,81.5L111.02,81.5z
		 M113.39,69.5L113.39,69.5h7.74c-0.65,2.79-1.04,5.82-1.13,9l-8.97,0C111.22,75.29,112.05,72.25,113.39,69.5L113.39,69.5z
		 M126.6,57.49L126.6,57.49c-0.91,1.09-1.74,2.36-2.49,3.77c-0.83,1.57-1.56,3.33-2.17,5.24h-6.81c0.85-1.25,1.82-2.41,2.88-3.48
		C120.43,60.6,123.35,58.7,126.6,57.49L126.6,57.49z M133.49,56.17l0.01,10.33l-8.4,0c0.49-1.39,1.04-2.67,1.66-3.84
		C128.6,59.2,130.94,56.85,133.49,56.17z"/>
</g>
</svg>
