<?xml version="1.0" encoding="utf-8"?>
<!-- Generator: Adobe Illustrator 23.0.0, SVG Export Plug-In . SVG Version: 6.00 Build 0)  -->
<svg version="1.1" id="Layer_1" xmlns="http://www.w3.org/2000/svg" xmlns:xlink="http://www.w3.org/1999/xlink" x="0px" y="0px"
	 width="270px" height="160px" viewBox="0 0 270 160" style="enable-background:new 0 0 270 160;" xml:space="preserve">
<style type="text/css">
	.st0{fill:#58595B;}
</style>
<g id="XMLID_1_">
	<path id="XMLID_75_" class="st0" d="M69.4,56.6c-6.3,0-8,5.6-13.1,5.6c-4.7,0-6.5-5.6-12.9-5.6v0c0,0,0,0,0,0
		c-5.7,0-10.4,4.7-10.4,10.4c0,6.3,5.6,7.8,5.6,12.9c0,5.1-5.6,6.9-5.6,13.1c0,5.7,4.7,10.4,10.4,10.4S53.7,98.7,53.7,93
		c0-6.3-5.6-8-5.6-13.1c0-4.8,4.4-8.1,8.1-8.1c5.1,0,6.9,5.6,13.1,5.6c5.7,0,10.4-4.7,10.4-10.4S75.1,56.6,69.4,56.6z"/>
	<g>
		<g>
			<path class="st0" d="M94.8,92.6c-0.2-0.2-0.3-0.4-0.3-0.7v-21c0-0.3,0.1-0.5,0.3-0.8c0.2-0.2,0.4-0.3,0.7-0.3h1.9
				c0.3,0,0.6,0.1,0.8,0.3c0.2,0.2,0.3,0.5,0.3,0.8v2c1.2-2,3.3-3,6.2-3h1.7c0.3,0,0.6,0.1,0.8,0.3c0.2,0.2,0.3,0.4,0.3,0.8v1.6
				c0,0.3-0.1,0.5-0.3,0.7s-0.4,0.3-0.8,0.3h-2.5c-1.6,0-2.9,0.5-3.8,1.4c-0.9,0.9-1.4,2.2-1.4,3.9v13.1c0,0.3-0.1,0.5-0.3,0.7
				c-0.2,0.2-0.5,0.3-0.8,0.3h-2C95.2,92.9,95,92.8,94.8,92.6z"/>
			<path class="st0" d="M112.7,90.5c-1.8-1.9-2.8-4.5-3-7.7l0-1.5l0-1.5c0.2-3.2,1.2-5.8,3-7.7c1.8-1.9,4.2-2.8,7.3-2.8
				c3.3,0,5.8,1,7.6,3.1c1.8,2.1,2.7,4.9,2.7,8.5v0.8c0,0.3-0.1,0.5-0.3,0.7c-0.2,0.2-0.4,0.3-0.7,0.3h-15.4v0.4
				c0.1,1.9,0.7,3.6,1.8,4.9c1.1,1.4,2.6,2,4.4,2c1.4,0,2.5-0.3,3.4-0.8c0.9-0.5,1.5-1.1,2-1.7c0.3-0.4,0.5-0.6,0.6-0.6
				c0.1-0.1,0.4-0.1,0.8-0.1h2c0.3,0,0.5,0.1,0.7,0.2c0.2,0.1,0.3,0.3,0.3,0.6c0,0.7-0.4,1.4-1.2,2.4c-0.8,0.9-1.9,1.7-3.4,2.4
				c-1.5,0.7-3.2,1-5.1,1C116.9,93.3,114.5,92.4,112.7,90.5z M126.2,79.7v-0.1c0-2.1-0.6-3.8-1.7-5.1c-1.1-1.3-2.6-2-4.5-2
				c-1.9,0-3.4,0.7-4.5,2c-1.1,1.3-1.6,3-1.6,5.1v0.1H126.2z"/>
			<path class="st0" d="M135.9,92.6c-0.2-0.2-0.3-0.4-0.3-0.7V70.8c0-0.3,0.1-0.5,0.3-0.7c0.2-0.2,0.4-0.3,0.7-0.3h1.9
				c0.3,0,0.5,0.1,0.7,0.3c0.2,0.2,0.3,0.4,0.3,0.7v1.5c1.6-2,3.8-3,6.5-3c3.3,0,5.6,1.4,6.9,4.1c0.7-1.2,1.7-2.2,3-3
				c1.3-0.7,2.8-1.1,4.4-1.1c2.4,0,4.4,0.8,6,2.5c1.5,1.7,2.3,4.1,2.3,7.2v12.9c0,0.3-0.1,0.5-0.3,0.7c-0.2,0.2-0.4,0.3-0.7,0.3
				h-1.9c-0.3,0-0.5-0.1-0.7-0.3c-0.2-0.2-0.3-0.4-0.3-0.7V79.4c0-2.4-0.5-4.1-1.5-5.1c-1-1-2.3-1.5-3.9-1.5c-1.4,0-2.6,0.5-3.7,1.6
				c-1,1.1-1.5,2.7-1.5,5.1v12.5c0,0.3-0.1,0.5-0.3,0.7c-0.2,0.2-0.4,0.3-0.7,0.3h-2c-0.3,0-0.5-0.1-0.7-0.3
				c-0.2-0.2-0.3-0.4-0.3-0.7V79.4c0-2.3-0.5-4-1.5-5.1c-1-1-2.3-1.6-3.8-1.6c-1.4,0-2.6,0.5-3.7,1.6c-1,1-1.5,2.7-1.5,5v12.5
				c0,0.3-0.1,0.5-0.3,0.7c-0.2,0.2-0.4,0.3-0.7,0.3h-2C136.4,92.9,136.1,92.8,135.9,92.6z"/>
			<path class="st0" d="M177,90.6c-1.8-1.8-2.7-4.3-2.8-7.3l0-1.9l0-1.9c0.1-3.1,1.1-5.5,2.9-7.3c1.8-1.8,4.3-2.8,7.5-2.8
				s5.7,0.9,7.5,2.8c1.8,1.8,2.8,4.3,2.9,7.3c0.1,0.7,0.1,1.3,0.1,1.9c0,0.6,0,1.3-0.1,1.9c-0.1,3.1-1.1,5.5-2.8,7.3
				c-1.8,1.8-4.3,2.8-7.5,2.8S178.8,92.4,177,90.6z M189.1,88.2c1.1-1.2,1.7-2.9,1.8-5.2c0-0.3,0-0.9,0-1.7c0-0.8,0-1.4,0-1.7
				c-0.1-2.3-0.7-4-1.8-5.2c-1.1-1.2-2.6-1.8-4.5-1.8s-3.4,0.6-4.5,1.8c-1.1,1.2-1.7,2.9-1.8,5.2l0,1.7l0,1.7c0.1,2.3,0.7,4,1.8,5.2
				c1.1,1.2,2.6,1.8,4.5,1.8S187.9,89.4,189.1,88.2z"/>
			<path class="st0" d="M202.4,85.1V73.2h-3.5c-0.3,0-0.5-0.1-0.7-0.3c-0.2-0.2-0.3-0.4-0.3-0.7v-1.4c0-0.3,0.1-0.5,0.3-0.7
				c0.2-0.2,0.4-0.3,0.7-0.3h3.5v-7.4c0-0.3,0.1-0.5,0.3-0.7c0.2-0.2,0.4-0.3,0.7-0.3h2c0.3,0,0.5,0.1,0.7,0.3
				c0.2,0.2,0.3,0.4,0.3,0.7v7.4h5.5c0.3,0,0.5,0.1,0.7,0.3c0.2,0.2,0.3,0.4,0.3,0.7v1.4c0,0.3-0.1,0.5-0.3,0.7
				c-0.2,0.2-0.4,0.3-0.7,0.3h-5.5v11.6c0,1.5,0.2,2.7,0.7,3.4c0.5,0.8,1.3,1.2,2.5,1.2h2.7c0.3,0,0.5,0.1,0.7,0.3
				c0.2,0.2,0.3,0.4,0.3,0.7v1.5c0,0.3-0.1,0.5-0.3,0.7c-0.2,0.2-0.4,0.3-0.7,0.3h-3C204.7,92.9,202.4,90.3,202.4,85.1z"/>
			<path class="st0" d="M219.6,90.5c-1.8-1.9-2.8-4.5-3-7.7l0-1.5l0-1.5c0.2-3.2,1.2-5.8,3-7.7c1.8-1.9,4.2-2.8,7.3-2.8
				c3.3,0,5.8,1,7.6,3.1c1.8,2.1,2.7,4.9,2.7,8.5v0.8c0,0.3-0.1,0.5-0.3,0.7c-0.2,0.2-0.4,0.3-0.7,0.3h-15.4v0.4
				c0.1,1.9,0.7,3.6,1.8,4.9c1.1,1.4,2.6,2,4.4,2c1.4,0,2.5-0.3,3.4-0.8s1.5-1.1,2-1.7c0.3-0.4,0.5-0.6,0.6-0.6
				c0.1-0.1,0.4-0.1,0.8-0.1h2c0.3,0,0.5,0.1,0.7,0.2c0.2,0.1,0.3,0.3,0.3,0.6c0,0.7-0.4,1.4-1.2,2.4c-0.8,0.9-1.9,1.7-3.4,2.4
				c-1.5,0.7-3.2,1-5.1,1C223.8,93.3,221.4,92.4,219.6,90.5z M233,79.7v-0.1c0-2.1-0.6-3.8-1.7-5.1c-1.1-1.3-2.6-2-4.5-2
				c-1.9,0-3.4,0.7-4.5,2c-1.1,1.3-1.6,3-1.6,5.1v0.1H233z"/>
		</g>
	</g>
</g>
</svg>
